STARTFONT 2.1
COMMENT $XFree86$
COMMENT ISO10646-1 extension by Markus Kuhn <mkuhn@acm.org>, 2001-03-20
COMMENT  (c) Copyright Bigelow & Holmes 1986, 1985. Lucida is a registered
COMMENT  trademark of Bigelow & Holmes. See LEGAL NOTICE file for terms 
COMMENT  of the license. 
FONT -B&H-LucidaBright-DemiBold-I-Normal--20-140-100-100-P-119-ISO10646-1
SIZE 14 100 100
FONTBOUNDINGBOX 36 32 -12 -9
STARTPROPERTIES 22
COMMENT Begin LogicalFontDescription
FONTNAME_REGISTRY ""
FOUNDRY "B&H"
FAMILY_NAME "LucidaBright"
WEIGHT_NAME "DemiBold"
SLANT "I"
SETWIDTH_NAME "Normal"
ADD_STYLE_NAME ""
PIXEL_SIZE 20
POINT_SIZE 140
RESOLUTION_X 100
RESOLUTION_Y 100
SPACING "P"
AVERAGE_WIDTH 119
CHARSET_REGISTRY "ISO10646"
CHARSET_ENCODING "1"
COMMENT END LogicalFontDescription
FONT_ASCENT 18
FONT_DESCENT 5
DEFAULT_CHAR 0
COPYRIGHT "Copyright Bigelow & Holmes 1986, 1985."
FACE_NAME "Lucida Bright Demibold Italic"
X_HEIGHT 11
CAP_HEIGHT 15
ENDPROPERTIES
CHARS 723
STARTCHAR char0
ENCODING 0
SWIDTH 827 0
DWIDTH 17 0
BBX 17 15 1 0
BITMAP
AAAA80
000000
800080
000000
800080
000000
800080
000000
800080
000000
800080
000000
800080
000000
AAAA80
ENDCHAR
STARTCHAR space
ENCODING 32
SWIDTH 333 0
DWIDTH 6 0
BBX 1 1 0 0
BITMAP
00
ENDCHAR
STARTCHAR exclam
ENCODING 33
SWIDTH 265 0
DWIDTH 5 0
BBX 6 15 1 0
BITMAP
1C
1C
38
38
38
38
30
30
30
20
20
00
00
F0
E0
ENDCHAR
STARTCHAR quotedbl
ENCODING 34
SWIDTH 451 0
DWIDTH 9 0
BBX 7 6 4 9
BITMAP
EE
E6
C6
46
46
44
ENDCHAR
STARTCHAR numbersign
ENCODING 35
SWIDTH 636 0
DWIDTH 13 0
BBX 12 15 2 0
BITMAP
0130
0320
0220
0640
0440
7FF0
0880
0980
1900
1100
FFE0
2200
6600
4400
CC00
ENDCHAR
STARTCHAR dollar
ENCODING 36
SWIDTH 636 0
DWIDTH 13 0
BBX 11 18 2 -2
BITMAP
0100
0FE0
1E60
3A60
3A60
3A00
1E00
1E00
0F00
0780
0780
09C0
0980
C980
CB00
FE00
0800
1000
ENDCHAR
STARTCHAR percent
ENCODING 37
SWIDTH 772 0
DWIDTH 15 0
BBX 15 15 2 0
BITMAP
3C06
760C
6718
E730
C660
6EC0
7980
01BC
0366
06C6
0CC6
18CE
30CC
60CC
C070
ENDCHAR
STARTCHAR ampersand
ENCODING 38
SWIDTH 773 0
DWIDTH 15 0
BBX 15 15 1 0
BITMAP
03E0
0670
0E70
0E70
0E60
0EC0
0F00
373E
671C
E398
E398
E1F0
E1E0
70E0
3F78
ENDCHAR
STARTCHAR quotesingle
ENCODING 39
SWIDTH 247 0
DWIDTH 5 0
BBX 3 6 3 9
BITMAP
E0
E0
E0
60
40
40
ENDCHAR
STARTCHAR parenleft
ENCODING 40
SWIDTH 336 0
DWIDTH 7 0
BBX 7 19 2 -4
BITMAP
02
04
0C
18
30
30
70
60
E0
E0
E0
E0
E0
E0
E0
60
60
20
10
ENDCHAR
STARTCHAR parenright
ENCODING 41
SWIDTH 336 0
DWIDTH 7 0
BBX 7 19 0 -4
BITMAP
08
08
0C
06
06
06
06
06
0E
0E
0E
0E
0C
1C
18
30
20
40
80
ENDCHAR
STARTCHAR asterisk
ENCODING 42
SWIDTH 434 0
DWIDTH 9 0
BBX 8 7 3 8
BITMAP
0C
49
EB
66
38
EE
48
ENDCHAR
STARTCHAR plus
ENCODING 43
SWIDTH 636 0
DWIDTH 12 0
BBX 12 13 1 0
BITMAP
0300
0300
0200
0200
0200
0200
FFF0
0400
0400
0400
0400
0C00
0C00
ENDCHAR
STARTCHAR comma
ENCODING 44
SWIDTH 265 0
DWIDTH 5 0
BBX 4 8 1 -4
BITMAP
70
70
70
70
20
60
60
C0
ENDCHAR
STARTCHAR hyphen
ENCODING 45
SWIDTH 289 0
DWIDTH 6 0
BBX 5 1 2 7
BITMAP
F8
ENDCHAR
STARTCHAR period
ENCODING 46
SWIDTH 265 0
DWIDTH 5 0
BBX 4 3 1 0
BITMAP
70
F0
E0
ENDCHAR
STARTCHAR slash
ENCODING 47
SWIDTH 515 0
DWIDTH 10 0
BBX 14 19 0 -4
BITMAP
000C
0008
0010
0030
0020
0040
00C0
0080
0100
0300
0200
0400
0C00
0800
1000
1000
2000
6000
C000
ENDCHAR
STARTCHAR zero
ENCODING 48
SWIDTH 623 0
DWIDTH 13 0
BBX 12 15 2 0
BITMAP
0780
0CE0
1860
3070
7070
7070
E070
E0F0
E0E0
E0E0
E0E0
E1C0
6180
7300
3E00
ENDCHAR
STARTCHAR one
ENCODING 49
SWIDTH 636 0
DWIDTH 13 0
BBX 8 15 3 0
BITMAP
3F
07
07
0E
0E
0E
0E
0E
0C
1C
1C
1C
1C
3C
FF
ENDCHAR
STARTCHAR two
ENCODING 50
SWIDTH 636 0
DWIDTH 13 0
BBX 12 15 1 0
BITMAP
0FC0
18E0
1070
1070
0070
00E0
00C0
0180
0600
0800
1000
2000
6000
FFC0
FFC0
ENDCHAR
STARTCHAR three
ENCODING 51
SWIDTH 636 0
DWIDTH 13 0
BBX 11 15 2 0
BITMAP
1F80
18E0
10E0
00E0
00E0
00C0
0300
1F80
03C0
01C0
01C0
01C0
C180
C380
FE00
ENDCHAR
STARTCHAR four
ENCODING 52
SWIDTH 636 0
DWIDTH 13 0
BBX 11 15 2 0
BITMAP
00E0
01E0
03C0
02C0
04C0
09C0
11C0
2180
4180
FFE0
FFE0
0380
0300
0300
0FC0
ENDCHAR
STARTCHAR five
ENCODING 53
SWIDTH 636 0
DWIDTH 13 0
BBX 12 15 2 0
BITMAP
1FF0
1FE0
1000
3000
2000
3E00
0700
0380
01C0
01C0
01C0
C1C0
C380
C300
FC00
ENDCHAR
STARTCHAR six
ENCODING 54
SWIDTH 636 0
DWIDTH 13 0
BBX 12 15 2 0
BITMAP
03F0
0C30
1820
3000
7000
7F80
F1C0
F0E0
E0E0
E0E0
E0E0
E1C0
6180
7380
1E00
ENDCHAR
STARTCHAR seven
ENCODING 55
SWIDTH 636 0
DWIDTH 13 0
BBX 11 15 3 0
BITMAP
7FE0
7FE0
0040
0080
0100
0300
0600
0C00
1C00
1800
3000
7000
7000
E000
E000
ENDCHAR
STARTCHAR eight
ENCODING 56
SWIDTH 636 0
DWIDTH 13 0
BBX 12 15 2 0
BITMAP
07C0
1C60
1870
3870
3860
1EC0
1F80
1FC0
33E0
61E0
E0E0
E0E0
E0C0
7180
3E00
ENDCHAR
STARTCHAR nine
ENCODING 57
SWIDTH 636 0
DWIDTH 13 0
BBX 12 15 2 0
BITMAP
0780
1CC0
3860
3070
7070
7070
7070
70F0
39E0
1EE0
00C0
01C0
C180
C300
FC00
ENDCHAR
STARTCHAR colon
ENCODING 58
SWIDTH 265 0
DWIDTH 5 0
BBX 5 11 1 0
BITMAP
38
38
38
00
00
00
00
00
E0
E0
E0
ENDCHAR
STARTCHAR semicolon
ENCODING 59
SWIDTH 265 0
DWIDTH 5 0
BBX 6 15 0 -4
BITMAP
1C
1C
38
00
00
00
00
00
00
70
70
30
30
60
C0
ENDCHAR
STARTCHAR less
ENCODING 60
SWIDTH 636 0
DWIDTH 12 0
BBX 13 13 1 0
BITMAP
0008
0038
00E0
0380
0E00
3800
E000
3800
1C00
0700
01C0
00E0
0020
ENDCHAR
STARTCHAR equal
ENCODING 61
SWIDTH 636 0
DWIDTH 12 0
BBX 13 6 1 3
BITMAP
7FF8
0000
0000
0000
0000
FFF0
ENDCHAR
STARTCHAR greater
ENCODING 62
SWIDTH 636 0
DWIDTH 12 0
BBX 13 13 0 0
BITMAP
2000
3800
1C00
0700
01C0
00E0
0038
00E0
0380
0E00
3800
E000
8000
ENDCHAR
STARTCHAR question
ENCODING 63
SWIDTH 493 0
DWIDTH 10 0
BBX 9 15 3 0
BITMAP
7E00
4780
C380
0380
0300
0600
0400
1800
3000
7000
7000
0000
0000
E000
E000
ENDCHAR
STARTCHAR at
ENCODING 64
SWIDTH 861 0
DWIDTH 17 0
BBX 17 15 2 0
BITMAP
01F800
060C00
180200
21C100
623100
463100
843180
8C7100
8C6100
8CE300
8DE600
873800
400000
304000
0F8000
ENDCHAR
STARTCHAR A
ENCODING 65
SWIDTH 765 0
DWIDTH 15 0
BBX 15 15 0 0
BITMAP
0060
00E0
00F0
01F0
0170
0270
0270
0438
0C38
0FF8
1838
1018
201C
601C
F07E
ENDCHAR
STARTCHAR B
ENCODING 66
SWIDTH 651 0
DWIDTH 13 0
BBX 13 15 1 0
BITMAP
1FF0
0E38
0E38
0C38
0C38
1C70
1CE0
1F80
1CE0
1870
3870
3870
3870
38E0
FFC0
ENDCHAR
STARTCHAR C
ENCODING 67
SWIDTH 740 0
DWIDTH 15 0
BBX 14 15 2 0
BITMAP
03FC
0E1C
1C0C
3808
3000
7000
7000
E000
E000
E000
E000
F000
7000
3830
1FC0
ENDCHAR
STARTCHAR D
ENCODING 68
SWIDTH 822 0
DWIDTH 16 0
BBX 16 15 1 0
BITMAP
1FF8
0E1E
0E0E
0E07
0C07
1C07
1C07
1C07
1C07
1C0E
380E
381C
3838
3870
FFC0
ENDCHAR
STARTCHAR E
ENCODING 69
SWIDTH 630 0
DWIDTH 13 0
BBX 13 15 1 0
BITMAP
1FF8
0E18
0E18
0E00
1C00
1C00
1C60
1FC0
1C40
1800
3800
3800
3820
3860
FFE0
ENDCHAR
STARTCHAR F
ENCODING 70
SWIDTH 602 0
DWIDTH 12 0
BBX 13 15 1 0
BITMAP
1FF8
0E18
0E18
0E00
1C00
1C00
1C60
1FC0
1C40
1800
3800
3800
3800
3800
FC00
ENDCHAR
STARTCHAR G
ENCODING 71
SWIDTH 780 0
DWIDTH 16 0
BBX 14 15 2 0
BITMAP
03FC
0E1C
1C0C
3808
3800
7000
7000
E000
E0FC
E070
E070
E070
7070
3860
1FC0
ENDCHAR
STARTCHAR H
ENCODING 72
SWIDTH 827 0
DWIDTH 17 0
BBX 18 15 1 0
BITMAP
1F8FC0
0E0700
0E0700
0E0700
0E0700
1C0E00
1C0E00
1FFE00
1C0E00
1C0E00
381C00
381C00
381C00
381C00
FC7E00
ENDCHAR
STARTCHAR I
ENCODING 73
SWIDTH 372 0
DWIDTH 7 0
BBX 9 15 1 0
BITMAP
1F80
0E00
0E00
0E00
0E00
1C00
1C00
1C00
1C00
1C00
3800
3800
3800
3800
FC00
ENDCHAR
STARTCHAR J
ENCODING 74
SWIDTH 478 0
DWIDTH 10 0
BBX 12 18 0 -3
BITMAP
03F0
01E0
01C0
01C0
01C0
0380
0380
0380
0380
0380
0380
0700
0700
0700
0700
CE00
CC00
F800
ENDCHAR
STARTCHAR K
ENCODING 75
SWIDTH 746 0
DWIDTH 15 0
BBX 15 15 1 0
BITMAP
1F9E
0E08
0E10
0C20
1C40
1D80
1F00
1F80
1B80
19C0
39E0
38E0
3870
3878
FCFC
ENDCHAR
STARTCHAR L
ENCODING 76
SWIDTH 611 0
DWIDTH 12 0
BBX 12 15 1 0
BITMAP
1F80
0F00
0E00
0E00
0E00
1E00
1C00
1C00
1C00
1C00
3C00
3800
3830
3830
FFE0
ENDCHAR
STARTCHAR M
ENCODING 77
SWIDTH 926 0
DWIDTH 19 0
BBX 20 15 1 0
BITMAP
1E01F0
0F01C0
0F03C0
0F03C0
0F05C0
1B8980
1B8B80
139380
139380
11E380
31C300
31C700
218700
200700
F81F80
ENDCHAR
STARTCHAR N
ENCODING 78
SWIDTH 797 0
DWIDTH 16 0
BBX 17 15 1 0
BITMAP
1E0F80
0E0200
0F0200
0F0600
0B8600
1B8400
19C400
11C400
10EC00
10EC00
307800
307800
203800
203800
F81800
ENDCHAR
STARTCHAR O
ENCODING 79
SWIDTH 831 0
DWIDTH 17 0
BBX 15 15 2 0
BITMAP
01F0
0E1C
1C0C
380E
300E
700E
700E
E00E
E00E
E01C
E01C
E038
7070
70E0
1F80
ENDCHAR
STARTCHAR P
ENCODING 80
SWIDTH 628 0
DWIDTH 13 0
BBX 14 15 0 0
BITMAP
1FF0
0E1C
0E1C
0E1C
0E1C
1E18
1C38
1C70
1FC0
1C00
3C00
3800
3800
3800
FE00
ENDCHAR
STARTCHAR Q
ENCODING 81
SWIDTH 835 0
DWIDTH 17 0
BBX 17 19 2 -4
BITMAP
01F000
0E1800
1C0C00
380E00
300E00
700E00
700E00
E00E00
E00E00
E01E00
E01C00
E03C00
707800
70F000
1FE000
018000
00C000
007000
001F80
ENDCHAR
STARTCHAR R
ENCODING 82
SWIDTH 711 0
DWIDTH 14 0
BBX 14 15 1 0
BITMAP
1FF8
0E3C
0E1C
0E1C
0E1C
1E38
1C70
1FE0
1DC0
1CE0
38E0
3870
3870
3838
FC3C
ENDCHAR
STARTCHAR S
ENCODING 83
SWIDTH 587 0
DWIDTH 12 0
BBX 12 15 1 0
BITMAP
07E0
1C30
1830
3820
3800
3C00
1F00
0F80
03C0
01C0
01E0
41C0
C1C0
C380
7E00
ENDCHAR
STARTCHAR T
ENCODING 84
SWIDTH 716 0
DWIDTH 14 0
BBX 14 15 3 0
BITMAP
FFFC
C38C
C708
0700
0700
0700
0700
0E00
0E00
0E00
0E00
0E00
1C00
1C00
7F00
ENDCHAR
STARTCHAR U
ENCODING 85
SWIDTH 775 0
DWIDTH 16 0
BBX 15 15 3 0
BITMAP
FE3E
3818
7018
7018
7010
7010
7010
E010
E030
E020
E020
E020
E040
7080
3F00
ENDCHAR
STARTCHAR V
ENCODING 86
SWIDTH 741 0
DWIDTH 15 0
BBX 15 15 3 0
BITMAP
FC1E
700C
7808
3810
3810
3820
3860
3C40
1C80
1C80
1D00
1F00
0E00
0C00
0C00
ENDCHAR
STARTCHAR W
ENCODING 87
SWIDTH 922 0
DWIDTH 18 0
BBX 19 15 2 0
BITMAP
F861E0
7060C0
70E080
70E180
71E100
716300
726200
726600
367400
347C00
347800
387800
387000
307000
306000
ENDCHAR
STARTCHAR X
ENCODING 88
SWIDTH 672 0
DWIDTH 13 0
BBX 16 15 0 0
BITMAP
1F8F
0F04
070C
0718
03B0
03A0
03C0
01C0
03C0
06E0
0CE0
1870
1070
6078
F0FC
ENDCHAR
STARTCHAR Y
ENCODING 89
SWIDTH 669 0
DWIDTH 13 0
BBX 14 15 2 0
BITMAP
FC3C
7818
3830
3820
3C40
1C80
1D00
0F00
0E00
0E00
1E00
1C00
1C00
1C00
7F00
ENDCHAR
STARTCHAR Z
ENCODING 90
SWIDTH 684 0
DWIDTH 14 0
BBX 14 15 1 0
BITMAP
1FFC
1838
1878
00F0
01E0
01C0
03C0
0780
0F00
0E00
1C00
3C00
7830
7030
FFE0
ENDCHAR
STARTCHAR bracketleft
ENCODING 91
SWIDTH 336 0
DWIDTH 7 0
BBX 8 19 1 -4
BITMAP
0F
1C
1C
18
18
18
38
38
30
30
30
70
70
60
60
60
E0
E0
F8
ENDCHAR
STARTCHAR backslash
ENCODING 92
SWIDTH 515 0
DWIDTH 10 0
BBX 6 19 3 -4
BITMAP
80
40
40
40
40
20
20
20
20
30
10
10
10
10
08
08
08
08
04
ENDCHAR
STARTCHAR bracketright
ENCODING 93
SWIDTH 336 0
DWIDTH 7 0
BBX 8 19 0 -4
BITMAP
1F
07
07
06
06
06
0E
0E
0C
0C
0C
1C
1C
18
18
18
38
38
F0
ENDCHAR
STARTCHAR asciicircum
ENCODING 94
SWIDTH 636 0
DWIDTH 12 0
BBX 12 13 1 2
BITMAP
0080
0180
0180
0380
02C0
04C0
0C40
0840
1860
3060
2020
6030
C030
ENDCHAR
STARTCHAR underscore
ENCODING 95
SWIDTH 500 0
DWIDTH 10 0
BBX 8 1 1 -2
BITMAP
FF
ENDCHAR
STARTCHAR grave
ENCODING 96
SWIDTH 599 0
DWIDTH 12 0
BBX 4 3 7 12
BITMAP
E0
60
30
ENDCHAR
STARTCHAR a
ENCODING 97
SWIDTH 634 0
DWIDTH 13 0
BBX 12 11 1 0
BITMAP
07F0
0870
3070
30E0
70E0
61E0
E1E0
E2E0
E5C0
F9C0
71F0
ENDCHAR
STARTCHAR b
ENCODING 98
SWIDTH 633 0
DWIDTH 13 0
BBX 12 15 2 0
BITMAP
7C00
1C00
1C00
3800
38E0
39F0
3A70
3C70
7870
7860
70E0
70C0
6080
F100
FE00
ENDCHAR
STARTCHAR c
ENCODING 99
SWIDTH 524 0
DWIDTH 10 0
BBX 10 11 2 0
BITMAP
07C0
18C0
30C0
70C0
6000
E000
E000
E000
E000
7080
3F00
ENDCHAR
STARTCHAR d
ENCODING 100
SWIDTH 634 0
DWIDTH 13 0
BBX 13 15 1 0
BITMAP
00F8
0038
0070
0070
07F0
0870
1070
30E0
70E0
60E0
E1E0
E2E0
E5C0
F9C0
71F0
ENDCHAR
STARTCHAR e
ENCODING 101
SWIDTH 548 0
DWIDTH 11 0
BBX 10 11 2 0
BITMAP
0780
19C0
31C0
71C0
6380
E700
FE00
E000
E000
70C0
3F00
ENDCHAR
STARTCHAR f
ENCODING 102
SWIDTH 415 0
DWIDTH 8 0
BBX 11 20 1 -4
BITMAP
03E0
0660
0C60
0C00
1C00
7F80
1C00
3800
3800
3800
3800
3800
7000
7000
7000
7000
7000
E000
E000
E000
ENDCHAR
STARTCHAR g
ENCODING 103
SWIDTH 628 0
DWIDTH 13 0
BBX 12 15 1 -4
BITMAP
03F0
0C70
1870
3860
30E0
70E0
71E0
72E0
77C0
7DC0
79C0
01C0
8180
E300
7C00
ENDCHAR
STARTCHAR h
ENCODING 104
SWIDTH 656 0
DWIDTH 13 0
BBX 11 15 2 0
BITMAP
7C00
1800
3800
3800
39C0
3BE0
36E0
74E0
78E0
71C0
71C0
61C0
E1C0
E1C0
E1E0
ENDCHAR
STARTCHAR i
ENCODING 105
SWIDTH 319 0
DWIDTH 6 0
BBX 6 15 2 0
BITMAP
1C
1C
1C
00
F8
38
38
30
70
70
70
70
60
E0
F8
ENDCHAR
STARTCHAR j
ENCODING 106
SWIDTH 381 0
DWIDTH 8 0
BBX 11 19 -1 -4
BITMAP
00E0
00E0
00E0
0000
07C0
01C0
01C0
0380
0380
0380
0380
0380
0700
0700
0700
0600
C600
CC00
F800
ENDCHAR
STARTCHAR k
ENCODING 107
SWIDTH 626 0
DWIDTH 13 0
BBX 11 15 2 0
BITMAP
7C00
1C00
1800
3800
38E0
38E0
39C0
3380
7E00
7E00
7700
7700
6380
E3C0
E1E0
ENDCHAR
STARTCHAR l
ENCODING 108
SWIDTH 319 0
DWIDTH 6 0
BBX 6 15 2 0
BITMAP
7C
1C
18
38
38
38
38
30
70
70
70
70
60
E0
F8
ENDCHAR
STARTCHAR m
ENCODING 109
SWIDTH 969 0
DWIDTH 19 0
BBX 18 11 2 0
BITMAP
F8E380
3BE7C0
3EEDC0
34F9C0
78F1C0
70E380
70E380
61C380
61C380
E1C380
E1C7C0
ENDCHAR
STARTCHAR n
ENCODING 110
SWIDTH 656 0
DWIDTH 13 0
BBX 11 11 2 0
BITMAP
F9C0
3BE0
36E0
74E0
78E0
71C0
71C0
61C0
E1C0
E1C0
E1E0
ENDCHAR
STARTCHAR o
ENCODING 111
SWIDTH 599 0
DWIDTH 12 0
BBX 11 11 2 0
BITMAP
0780
18C0
30E0
70E0
70E0
E0E0
E0C0
E1C0
E180
7300
3C00
ENDCHAR
STARTCHAR p
ENCODING 112
SWIDTH 639 0
DWIDTH 13 0
BBX 12 15 1 -4
BITMAP
7CE0
39F0
3A70
3C70
3C70
3870
30E0
70E0
70C0
7180
7E00
6000
E000
E000
E000
ENDCHAR
STARTCHAR q
ENCODING 113
SWIDTH 630 0
DWIDTH 13 0
BBX 12 15 1 -4
BITMAP
07F0
0870
3070
30E0
70E0
61E0
E1E0
E2E0
E5C0
F9C0
71C0
01C0
01C0
0380
0380
ENDCHAR
STARTCHAR r
ENCODING 114
SWIDTH 496 0
DWIDTH 10 0
BBX 10 11 2 0
BITMAP
F8C0
3B80
3B80
7400
7800
7800
7000
7000
E000
E000
E000
ENDCHAR
STARTCHAR s
ENCODING 115
SWIDTH 479 0
DWIDTH 10 0
BBX 9 11 1 0
BITMAP
0F80
3880
3880
3800
3C00
1E00
0F00
0700
C700
C700
7C00
ENDCHAR
STARTCHAR t
ENCODING 116
SWIDTH 375 0
DWIDTH 7 0
BBX 7 14 2 0
BITMAP
18
38
38
FE
70
70
70
70
70
E0
E0
E0
E8
78
ENDCHAR
STARTCHAR u
ENCODING 117
SWIDTH 655 0
DWIDTH 13 0
BBX 11 11 2 0
BITMAP
F1E0
70E0
70E0
70C0
71C0
71C0
E3C0
E5C0
ED80
FB80
73E0
ENDCHAR
STARTCHAR v
ENCODING 118
SWIDTH 584 0
DWIDTH 12 0
BBX 12 11 1 0
BITMAP
F0F0
7070
3870
3860
38C0
1C80
1D00
1E00
1E00
1C00
1800
ENDCHAR
STARTCHAR w
ENCODING 119
SWIDTH 822 0
DWIDTH 16 0
BBX 16 11 2 0
BITMAP
F087
7087
31C6
39C6
3BC4
3AE8
3EF8
1CF0
18E0
1860
1040
ENDCHAR
STARTCHAR x
ENCODING 120
SWIDTH 534 0
DWIDTH 11 0
BBX 11 11 1 0
BITMAP
78E0
1C60
1CC0
0E80
0F00
0600
1F00
3700
6380
C380
E1E0
ENDCHAR
STARTCHAR y
ENCODING 121
SWIDTH 586 0
DWIDTH 12 0
BBX 14 15 0 -4
BITMAP
3C3C
1E1C
0E1C
0E18
0E10
0720
0740
07C0
0780
0700
0600
0400
0800
3800
F000
ENDCHAR
STARTCHAR z
ENCODING 122
SWIDTH 567 0
DWIDTH 11 0
BBX 11 11 1 0
BITMAP
3FE0
31C0
23C0
0380
0700
0E00
1C00
3800
7840
70C0
FF80
ENDCHAR
STARTCHAR braceleft
ENCODING 123
SWIDTH 361 0
DWIDTH 7 0
BBX 7 19 2 -4
BITMAP
0E
1C
18
38
38
38
38
38
30
C0
60
30
70
70
60
E0
E0
E0
70
ENDCHAR
STARTCHAR bar
ENCODING 124
SWIDTH 253 0
DWIDTH 5 0
BBX 5 19 1 -4
BITMAP
18
18
18
10
10
30
30
30
20
20
20
60
60
60
40
40
C0
C0
C0
ENDCHAR
STARTCHAR braceright
ENCODING 125
SWIDTH 361 0
DWIDTH 7 0
BBX 7 19 1 -4
BITMAP
1C
0E
0E
0E
0E
1C
1C
18
0C
06
18
38
38
38
38
38
30
70
E0
ENDCHAR
STARTCHAR asciitilde
ENCODING 126
SWIDTH 636 0
DWIDTH 12 0
BBX 12 5 1 3
BITMAP
3810
4C10
8610
8320
81C0
ENDCHAR
STARTCHAR space
ENCODING 160
SWIDTH 333 0
DWIDTH 6 0
BBX 1 1 0 0
BITMAP
00
ENDCHAR
STARTCHAR exclamdown
ENCODING 161
SWIDTH 265 0
DWIDTH 5 0
BBX 6 15 0 -4
BITMAP
1C
3C
00
00
10
10
30
30
30
70
70
70
60
E0
E0
ENDCHAR
STARTCHAR cent
ENCODING 162
SWIDTH 636 0
DWIDTH 13 0
BBX 10 15 3 0
BITMAP
0100
0200
0FC0
1AC0
32C0
7200
6200
E400
E400
E400
E400
F480
7F00
0800
0800
ENDCHAR
STARTCHAR sterling
ENCODING 163
SWIDTH 636 0
DWIDTH 13 0
BBX 12 15 2 0
BITMAP
01F0
0730
0630
0E00
0E00
0E00
0C00
3F80
1C00
1C00
1C00
3800
3000
FFC0
FF80
ENDCHAR
STARTCHAR currency
ENCODING 164
SWIDTH 636 0
DWIDTH 13 0
BBX 14 13 1 1
BITMAP
2004
100C
0FD0
0460
0820
1830
1030
1020
1860
18C0
3FE0
4020
8010
ENDCHAR
STARTCHAR yen
ENCODING 165
SWIDTH 636 0
DWIDTH 13 0
BBX 14 15 2 0
BITMAP
FC3C
7818
3820
3860
1CC0
1F80
0F00
7FC0
0E00
0E00
7F80
1C00
1C00
1C00
7E00
ENDCHAR
STARTCHAR brokenbar
ENCODING 166
SWIDTH 253 0
DWIDTH 5 0
BBX 5 19 1 -4
BITMAP
18
18
18
10
10
30
30
30
20
00
20
60
60
60
40
40
C0
C0
C0
ENDCHAR
STARTCHAR section
ENCODING 167
SWIDTH 636 0
DWIDTH 13 0
BBX 12 19 1 -4
BITMAP
07F0
0C30
1830
1800
1C00
1F00
0F80
13C0
30E0
7060
3840
3EC0
1F80
07C0
01C0
01C0
C1C0
C380
FE00
ENDCHAR
STARTCHAR dieresis
ENCODING 168
SWIDTH 599 0
DWIDTH 12 0
BBX 6 2 6 13
BITMAP
CC
CC
ENDCHAR
STARTCHAR copyright
ENCODING 169
SWIDTH 853 0
DWIDTH 17 0
BBX 17 15 2 0
BITMAP
07E000
1C1800
300400
61FA00
471100
860100
8C0080
8C0080
8C0080
8C0100
460100
63E200
300400
1C1800
07E000
ENDCHAR
STARTCHAR ordfeminine
ENCODING 170
SWIDTH 468 0
DWIDTH 9 0
BBX 9 9 2 6
BITMAP
1F80
3300
6300
6700
E700
CF00
F600
F700
6780
ENDCHAR
STARTCHAR guillemotleft
ENCODING 171
SWIDTH 527 0
DWIDTH 11 0
BBX 10 10 2 1
BITMAP
0840
1CC0
1980
3300
6600
EE00
6700
3300
3300
1100
ENDCHAR
STARTCHAR logicalnot
ENCODING 172
SWIDTH 636 0
DWIDTH 12 0
BBX 12 6 2 3
BITMAP
FFF0
0030
0030
0020
0020
0020
ENDCHAR
STARTCHAR hyphen
ENCODING 173
SWIDTH 289 0
DWIDTH 6 0
BBX 5 1 2 7
BITMAP
F8
ENDCHAR
STARTCHAR registered
ENCODING 174
SWIDTH 636 0
DWIDTH 13 0
BBX 11 10 3 5
BITMAP
1F00
6080
5F40
8940
8920
9E20
9240
5340
6080
1F00
ENDCHAR
STARTCHAR macron
ENCODING 175
SWIDTH 599 0
DWIDTH 12 0
BBX 6 1 6 14
BITMAP
FC
ENDCHAR
STARTCHAR degree
ENCODING 176
SWIDTH 259 0
DWIDTH 5 0
BBX 3 4 4 11
BITMAP
60
A0
A0
60
ENDCHAR
STARTCHAR plusminus
ENCODING 177
SWIDTH 636 0
DWIDTH 12 0
BBX 13 13 1 0
BITMAP
0180
0100
0100
0100
0100
7FF8
0300
0200
0200
0200
0000
0000
FFF0
ENDCHAR
STARTCHAR twosuperior
ENCODING 178
SWIDTH 381 0
DWIDTH 8 0
BBX 7 9 -12 6
BITMAP
3C
26
66
06
0C
30
60
C0
FC
ENDCHAR
STARTCHAR threesuperior
ENCODING 179
SWIDTH 381 0
DWIDTH 8 0
BBX 7 9 -12 6
BITMAP
3C
26
04
0C
38
0C
0C
8C
F8
ENDCHAR
STARTCHAR acute
ENCODING 180
SWIDTH 599 0
DWIDTH 12 0
BBX 5 3 7 12
BITMAP
38
60
C0
ENDCHAR
STARTCHAR mu
ENCODING 181
SWIDTH 687 0
DWIDTH 14 0
BBX 12 15 2 -4
BITMAP
78F0
3870
3870
3860
38E0
30E0
71E0
73E0
76C0
7DC0
79F0
6000
E000
E000
E000
ENDCHAR
STARTCHAR paragraph
ENCODING 182
SWIDTH 636 0
DWIDTH 13 0
BBX 9 19 3 -4
BITMAP
3F80
7900
F900
F900
F900
F900
7100
3200
1200
1200
1200
1200
2400
2400
2400
2400
2400
4400
4800
ENDCHAR
STARTCHAR periodcentered
ENCODING 183
SWIDTH 636 0
DWIDTH 12 0
BBX 3 2 6 6
BITMAP
E0
E0
ENDCHAR
STARTCHAR cedilla
ENCODING 184
SWIDTH 599 0
DWIDTH 12 0
BBX 4 5 3 -4
BITMAP
20
40
30
30
E0
ENDCHAR
STARTCHAR onesuperior
ENCODING 185
SWIDTH 381 0
DWIDTH 8 0
BBX 5 9 -12 6
BITMAP
38
18
18
10
30
30
30
30
F8
ENDCHAR
STARTCHAR ordmasculine
ENCODING 186
SWIDTH 468 0
DWIDTH 9 0
BBX 9 9 2 6
BITMAP
0F00
3380
6380
6380
E380
E300
E300
E600
7800
ENDCHAR
STARTCHAR guillemotright
ENCODING 187
SWIDTH 527 0
DWIDTH 11 0
BBX 10 10 1 1
BITMAP
2200
3300
3300
3980
1DC0
1980
3300
6600
CE00
8400
ENDCHAR
STARTCHAR onequarter
ENCODING 188
SWIDTH 818 0
DWIDTH 16 0
BBX 16 15 4 0
BITMAP
3803
1804
1808
1018
3030
3060
30C6
318E
FB14
0624
0C4C
18FE
300C
2008
C03C
ENDCHAR
STARTCHAR onehalf
ENCODING 189
SWIDTH 818 0
DWIDTH 16 0
BBX 16 15 4 0
BITMAP
3803
1804
1808
1018
3030
3060
30FC
31A6
FB66
0606
0C0C
1830
3060
20C0
C0FC
ENDCHAR
STARTCHAR threequarters
ENCODING 190
SWIDTH 818 0
DWIDTH 16 0
BBX 16 15 4 0
BITMAP
3C03
2604
0408
0C18
3830
0C60
0CC6
8D8E
FB14
0624
0C4C
18FE
300C
2008
C03C
ENDCHAR
STARTCHAR questiondown
ENCODING 191
SWIDTH 493 0
DWIDTH 10 0
BBX 9 15 0 -4
BITMAP
0380
0380
0000
0000
0700
0700
0600
0C00
1000
3000
6000
E000
E180
F100
3F00
ENDCHAR
STARTCHAR Agrave
ENCODING 192
SWIDTH 765 0
DWIDTH 15 0
BBX 15 19 0 0
BITMAP
00E0
0060
0030
0000
0060
00E0
00F0
01F0
0170
0270
0270
0438
0C38
0FF8
1838
1018
201C
601C
F07E
ENDCHAR
STARTCHAR Aacute
ENCODING 193
SWIDTH 765 0
DWIDTH 15 0
BBX 15 19 0 0
BITMAP
001C
0030
0060
0000
0060
00E0
00F0
01F0
0170
0270
0270
0438
0C38
0FF8
1838
1018
201C
601C
F07E
ENDCHAR
STARTCHAR Acircumflex
ENCODING 194
SWIDTH 765 0
DWIDTH 15 0
BBX 15 19 0 0
BITMAP
0078
00F8
018C
0000
0060
00E0
00F0
01F0
0170
0270
0270
0438
0C38
0FF8
1838
1018
201C
601C
F07E
ENDCHAR
STARTCHAR Atilde
ENCODING 195
SWIDTH 765 0
DWIDTH 15 0
BBX 15 19 0 0
BITMAP
00E4
01FC
0138
0000
0060
00E0
00F0
01F0
0170
0270
0270
0438
0C38
0FF8
1838
1018
201C
601C
F07E
ENDCHAR
STARTCHAR Adieresis
ENCODING 196
SWIDTH 765 0
DWIDTH 15 0
BBX 15 18 0 0
BITMAP
00CC
00CC
0000
0060
00E0
00F0
01F0
0170
0270
0270
0438
0C38
0FF8
1838
1018
201C
601C
F07E
ENDCHAR
STARTCHAR Aring
ENCODING 197
SWIDTH 765 0
DWIDTH 15 0
BBX 15 19 0 0
BITMAP
0070
0050
0070
0000
0060
00E0
00F0
01F0
0170
0270
0270
0438
0C38
0FF8
1838
1018
201C
601C
F07E
ENDCHAR
STARTCHAR AE
ENCODING 198
SWIDTH 958 0
DWIDTH 19 0
BBX 21 15 0 0
BITMAP
001FF8
001E18
003C18
005C00
00DC00
009C00
011C60
021FE0
063840
043800
0FF800
103800
203860
607060
F1FFE0
ENDCHAR
STARTCHAR Ccedilla
ENCODING 199
SWIDTH 740 0
DWIDTH 15 0
BBX 14 19 2 -4
BITMAP
03FC
0E1C
1C0C
3808
3000
7000
7000
E000
E000
E000
E000
F000
7000
3830
1FC0
1000
0C00
0C00
3800
ENDCHAR
STARTCHAR Egrave
ENCODING 200
SWIDTH 630 0
DWIDTH 13 0
BBX 13 19 1 0
BITMAP
0380
0180
00C0
0000
1FF8
0E18
0E18
0E00
1C00
1C00
1C60
1FC0
1C40
1800
3800
3800
3820
3860
FFE0
ENDCHAR
STARTCHAR Eacute
ENCODING 201
SWIDTH 630 0
DWIDTH 13 0
BBX 13 19 1 0
BITMAP
0070
00C0
0180
0000
1FF8
0E18
0E18
0E00
1C00
1C00
1C60
1FC0
1C40
1800
3800
3800
3820
3860
FFE0
ENDCHAR
STARTCHAR Ecircumflex
ENCODING 202
SWIDTH 630 0
DWIDTH 13 0
BBX 13 19 1 0
BITMAP
01E0
03E0
0630
0000
1FF8
0E18
0E18
0E00
1C00
1C00
1C60
1FC0
1C40
1800
3800
3800
3820
3860
FFE0
ENDCHAR
STARTCHAR Edieresis
ENCODING 203
SWIDTH 630 0
DWIDTH 13 0
BBX 13 18 1 0
BITMAP
0330
0330
0000
1FF8
0E18
0E18
0E00
1C00
1C00
1C60
1FC0
1C40
1800
3800
3800
3820
3860
FFE0
ENDCHAR
STARTCHAR Igrave
ENCODING 204
SWIDTH 372 0
DWIDTH 7 0
BBX 9 19 1 0
BITMAP
0E00
0600
0300
0000
1F80
0E00
0E00
0E00
0E00
1C00
1C00
1C00
1C00
1C00
3800
3800
3800
3800
FC00
ENDCHAR
STARTCHAR Iacute
ENCODING 205
SWIDTH 372 0
DWIDTH 7 0
BBX 10 19 1 0
BITMAP
01C0
0300
0600
0000
1F80
0E00
0E00
0E00
0E00
1C00
1C00
1C00
1C00
1C00
3800
3800
3800
3800
FC00
ENDCHAR
STARTCHAR Icircumflex
ENCODING 206
SWIDTH 372 0
DWIDTH 7 0
BBX 10 19 1 0
BITMAP
0780
0F80
18C0
0000
1F80
0E00
0E00
0E00
0E00
1C00
1C00
1C00
1C00
1C00
3800
3800
3800
3800
FC00
ENDCHAR
STARTCHAR Idieresis
ENCODING 207
SWIDTH 372 0
DWIDTH 7 0
BBX 9 18 1 0
BITMAP
1980
1980
0000
1F80
0E00
0E00
0E00
0E00
1C00
1C00
1C00
1C00
1C00
3800
3800
3800
3800
FC00
ENDCHAR
STARTCHAR Eth
ENCODING 208
SWIDTH 822 0
DWIDTH 16 0
BBX 16 15 1 0
BITMAP
1FF8
0E1E
0E0E
0E07
1E07
1C07
1C07
7F87
1C07
1C0E
380E
381C
3838
3870
FFC0
ENDCHAR
STARTCHAR Ntilde
ENCODING 209
SWIDTH 797 0
DWIDTH 16 0
BBX 17 19 1 0
BITMAP
00E400
01FC00
013800
000000
1E0F80
0E0200
0F0200
0F0600
0B8600
1B8400
19C400
11C400
10EC00
10EC00
307800
307800
203800
203800
F81800
ENDCHAR
STARTCHAR Ograve
ENCODING 210
SWIDTH 831 0
DWIDTH 17 0
BBX 15 19 2 0
BITMAP
01C0
00C0
0060
0000
01F0
0E1C
1C0C
380E
300E
700E
700E
E00E
E00E
E01C
E01C
E038
7070
70E0
1F80
ENDCHAR
STARTCHAR Oacute
ENCODING 211
SWIDTH 831 0
DWIDTH 17 0
BBX 15 19 2 0
BITMAP
0038
0060
00C0
0000
01F0
0E1C
1C0C
380E
300E
700E
700E
E00E
E00E
E01C
E01C
E038
7070
70E0
1F80
ENDCHAR
STARTCHAR Ocircumflex
ENCODING 212
SWIDTH 831 0
DWIDTH 17 0
BBX 15 19 2 0
BITMAP
00F0
01F0
0318
0000
01F0
0E1C
1C0C
380E
300E
700E
700E
E00E
E00E
E01C
E01C
E038
7070
70E0
1F80
ENDCHAR
STARTCHAR Otilde
ENCODING 213
SWIDTH 831 0
DWIDTH 17 0
BBX 15 19 2 0
BITMAP
01C8
03F8
0270
0000
01F0
0E1C
1C0C
380E
300E
700E
700E
E00E
E00E
E01C
E01C
E038
7070
70E0
1F80
ENDCHAR
STARTCHAR Odieresis
ENCODING 214
SWIDTH 831 0
DWIDTH 17 0
BBX 15 18 2 0
BITMAP
0330
0330
0000
01F0
0E1C
1C0C
380E
300E
700E
700E
E00E
E00E
E01C
E01C
E038
7070
70E0
1F80
ENDCHAR
STARTCHAR multiply
ENCODING 215
SWIDTH 636 0
DWIDTH 12 0
BBX 13 13 1 0
BITMAP
2008
3018
1830
0860
0CC0
0700
0200
0700
1980
3080
60C0
C060
8020
ENDCHAR
STARTCHAR Oslash
ENCODING 216
SWIDTH 831 0
DWIDTH 17 0
BBX 18 15 1 0
BITMAP
00F8C0
030F00
0E0700
0C0F00
181F00
383700
386700
38C700
718700
730700
740E00
781C00
381800
3C7000
CFC000
ENDCHAR
STARTCHAR Ugrave
ENCODING 217
SWIDTH 775 0
DWIDTH 16 0
BBX 15 19 3 0
BITMAP
0380
0180
00C0
0000
FE3E
3818
7018
7018
7010
7010
7010
E010
E030
E020
E020
E020
E040
7080
3F00
ENDCHAR
STARTCHAR Uacute
ENCODING 218
SWIDTH 775 0
DWIDTH 16 0
BBX 15 19 3 0
BITMAP
00E0
0180
0300
0000
FE3E
3818
7018
7018
7010
7010
7010
E010
E030
E020
E020
E020
E040
7080
3F00
ENDCHAR
STARTCHAR Ucircumflex
ENCODING 219
SWIDTH 775 0
DWIDTH 16 0
BBX 15 19 3 0
BITMAP
03C0
07C0
0C60
0000
FE3E
3818
7018
7018
7010
7010
7010
E010
E030
E020
E020
E020
E040
7080
3F00
ENDCHAR
STARTCHAR Udieresis
ENCODING 220
SWIDTH 775 0
DWIDTH 16 0
BBX 15 18 3 0
BITMAP
0660
0660
0000
FE3E
3818
7018
7018
7010
7010
7010
E010
E030
E020
E020
E020
E040
7080
3F00
ENDCHAR
STARTCHAR Yacute
ENCODING 221
SWIDTH 669 0
DWIDTH 13 0
BBX 14 19 2 0
BITMAP
00E0
0180
0300
0000
FC3C
7818
3830
3820
3C40
1C80
1D00
0F00
0E00
0E00
1E00
1C00
1C00
1C00
7F00
ENDCHAR
STARTCHAR Thorn
ENCODING 222
SWIDTH 628 0
DWIDTH 13 0
BBX 13 15 1 0
BITMAP
1F80
0E00
0E00
0FF0
0E78
1C38
1C38
1C38
1C30
1C70
38E0
3F80
3800
3800
FC00
ENDCHAR
STARTCHAR germandbls
ENCODING 223
SWIDTH 656 0
DWIDTH 13 0
BBX 12 20 1 -4
BITMAP
03C0
0E60
0C70
1C60
1C40
1C80
1900
3B80
3BC0
39E0
38E0
3870
7030
7230
7660
77C0
7000
E000
E000
E000
ENDCHAR
STARTCHAR agrave
ENCODING 224
SWIDTH 634 0
DWIDTH 13 0
BBX 12 15 1 0
BITMAP
0380
0180
00C0
0000
07F0
0870
3070
30E0
70E0
61E0
E1E0
E2E0
E5C0
F9C0
71F0
ENDCHAR
STARTCHAR aacute
ENCODING 225
SWIDTH 634 0
DWIDTH 13 0
BBX 12 15 1 0
BITMAP
0070
00C0
0180
0000
07F0
0870
3070
30E0
70E0
61E0
E1E0
E2E0
E5C0
F9C0
71F0
ENDCHAR
STARTCHAR acircumflex
ENCODING 226
SWIDTH 634 0
DWIDTH 13 0
BBX 12 15 1 0
BITMAP
03C0
07C0
0C60
0000
07F0
0870
3070
30E0
70E0
61E0
E1E0
E2E0
E5C0
F9C0
71F0
ENDCHAR
STARTCHAR atilde
ENCODING 227
SWIDTH 634 0
DWIDTH 13 0
BBX 12 15 1 0
BITMAP
0390
07F0
04E0
0000
07F0
0870
3070
30E0
70E0
61E0
E1E0
E2E0
E5C0
F9C0
71F0
ENDCHAR
STARTCHAR adieresis
ENCODING 228
SWIDTH 634 0
DWIDTH 13 0
BBX 12 14 1 0
BITMAP
0660
0660
0000
07F0
0870
3070
30E0
70E0
61E0
E1E0
E2E0
E5C0
F9C0
71F0
ENDCHAR
STARTCHAR aring
ENCODING 229
SWIDTH 634 0
DWIDTH 13 0
BBX 12 15 1 0
BITMAP
01C0
0140
01C0
0000
07F0
0870
3070
30E0
70E0
61E0
E1E0
E2E0
E5C0
F9C0
71F0
ENDCHAR
STARTCHAR ae
ENCODING 230
SWIDTH 905 0
DWIDTH 18 0
BBX 17 11 1 0
BITMAP
07FF00
08F380
30E380
30E380
70E300
61C600
E1FC00
E2C000
E4C000
F8E180
707E00
ENDCHAR
STARTCHAR ccedilla
ENCODING 231
SWIDTH 524 0
DWIDTH 10 0
BBX 10 15 2 -4
BITMAP
07C0
18C0
30C0
70C0
6000
E000
E000
E000
E000
7080
3F00
2000
1800
1800
7000
ENDCHAR
STARTCHAR egrave
ENCODING 232
SWIDTH 548 0
DWIDTH 11 0
BBX 10 15 2 0
BITMAP
0700
0300
0180
0000
0780
19C0
31C0
71C0
6380
E700
FE00
E000
E000
70C0
3F00
ENDCHAR
STARTCHAR eacute
ENCODING 233
SWIDTH 548 0
DWIDTH 11 0
BBX 10 15 2 0
BITMAP
01C0
0300
0600
0000
0780
19C0
31C0
71C0
6380
E700
FE00
E000
E000
70C0
3F00
ENDCHAR
STARTCHAR ecircumflex
ENCODING 234
SWIDTH 548 0
DWIDTH 11 0
BBX 10 15 2 0
BITMAP
0780
0F80
18C0
0000
0780
19C0
31C0
71C0
6380
E700
FE00
E000
E000
70C0
3F00
ENDCHAR
STARTCHAR edieresis
ENCODING 235
SWIDTH 548 0
DWIDTH 11 0
BBX 10 14 2 0
BITMAP
0CC0
0CC0
0000
0780
19C0
31C0
71C0
6380
E700
FE00
E000
E000
70C0
3F00
ENDCHAR
STARTCHAR igrave
ENCODING 236
SWIDTH 319 0
DWIDTH 6 0
BBX 6 15 2 0
BITMAP
38
18
0C
00
F8
38
38
70
70
70
70
70
E0
E0
F8
ENDCHAR
STARTCHAR iacute
ENCODING 237
SWIDTH 319 0
DWIDTH 6 0
BBX 8 15 2 0
BITMAP
07
0C
18
00
F8
38
38
70
70
70
70
70
E0
E0
F8
ENDCHAR
STARTCHAR icircumflex
ENCODING 238
SWIDTH 319 0
DWIDTH 6 0
BBX 8 15 2 0
BITMAP
1E
3E
63
00
F8
38
38
70
70
70
70
70
E0
E0
F8
ENDCHAR
STARTCHAR idieresis
ENCODING 239
SWIDTH 319 0
DWIDTH 6 0
BBX 7 14 2 0
BITMAP
66
66
00
F8
38
38
70
70
70
70
70
E0
E0
F8
ENDCHAR
STARTCHAR eth
ENCODING 240
SWIDTH 617 0
DWIDTH 12 0
BBX 11 16 2 0
BITMAP
0040
3F80
0780
0FC0
11C0
07E0
18E0
30E0
70E0
60E0
E0E0
E0C0
E1C0
E180
7300
3C00
ENDCHAR
STARTCHAR ntilde
ENCODING 241
SWIDTH 656 0
DWIDTH 13 0
BBX 11 15 2 0
BITMAP
0720
0FE0
09C0
0000
F9C0
3BE0
36E0
74E0
78E0
71C0
71C0
61C0
E1C0
E1C0
E1E0
ENDCHAR
STARTCHAR ograve
ENCODING 242
SWIDTH 599 0
DWIDTH 12 0
BBX 11 15 2 0
BITMAP
0700
0300
0180
0000
0780
18C0
30E0
70E0
70E0
E0E0
E0C0
E1C0
E180
7300
3C00
ENDCHAR
STARTCHAR oacute
ENCODING 243
SWIDTH 599 0
DWIDTH 12 0
BBX 11 15 2 0
BITMAP
00E0
0180
0300
0000
0780
18C0
30E0
70E0
70E0
E0E0
E0C0
E1C0
E180
7300
3C00
ENDCHAR
STARTCHAR ocircumflex
ENCODING 244
SWIDTH 599 0
DWIDTH 12 0
BBX 11 15 2 0
BITMAP
03C0
07C0
0C60
0000
0780
18C0
30E0
70E0
70E0
E0E0
E0C0
E1C0
E180
7300
3C00
ENDCHAR
STARTCHAR otilde
ENCODING 245
SWIDTH 599 0
DWIDTH 12 0
BBX 11 15 2 0
BITMAP
0720
0FE0
09C0
0000
0780
18C0
30E0
70E0
70E0
E0E0
E0C0
E1C0
E180
7300
3C00
ENDCHAR
STARTCHAR odieresis
ENCODING 246
SWIDTH 599 0
DWIDTH 12 0
BBX 11 14 2 0
BITMAP
0660
0660
0000
0780
18C0
30E0
70E0
70E0
E0E0
E0C0
E1C0
E180
7300
3C00
ENDCHAR
STARTCHAR divide
ENCODING 247
SWIDTH 636 0
DWIDTH 12 0
BBX 12 11 1 0
BITMAP
0300
0700
0000
0000
0000
FFF0
0000
0000
0000
0C00
0C00
ENDCHAR
STARTCHAR oslash
ENCODING 248
SWIDTH 599 0
DWIDTH 12 0
BBX 13 11 1 0
BITMAP
03D8
0CF0
1870
38F0
7170
7270
7460
78E0
70C0
7180
DE00
ENDCHAR
STARTCHAR ugrave
ENCODING 249
SWIDTH 655 0
DWIDTH 13 0
BBX 11 15 2 0
BITMAP
0700
0300
0180
0000
F1E0
70E0
70E0
70C0
71C0
71C0
E3C0
E5C0
ED80
FB80
73E0
ENDCHAR
STARTCHAR uacute
ENCODING 250
SWIDTH 655 0
DWIDTH 13 0
BBX 11 15 2 0
BITMAP
00E0
0180
0300
0000
F1E0
70E0
70E0
70C0
71C0
71C0
E3C0
E5C0
ED80
FB80
73E0
ENDCHAR
STARTCHAR ucircumflex
ENCODING 251
SWIDTH 655 0
DWIDTH 13 0
BBX 11 15 2 0
BITMAP
03C0
07C0
0C60
0000
F1E0
70E0
70E0
70C0
71C0
71C0
E3C0
E5C0
ED80
FB80
73E0
ENDCHAR
STARTCHAR udieresis
ENCODING 252
SWIDTH 655 0
DWIDTH 13 0
BBX 11 14 2 0
BITMAP
0CC0
0CC0
0000
F1E0
70E0
70E0
70C0
71C0
71C0
E3C0
E5C0
ED80
FB80
73E0
ENDCHAR
STARTCHAR yacute
ENCODING 253
SWIDTH 586 0
DWIDTH 12 0
BBX 14 19 0 -4
BITMAP
0038
0060
00C0
0000
3C3C
1E1C
0E1C
0E18
0E10
0720
0740
07C0
0780
0700
0600
0400
0800
3800
F000
ENDCHAR
STARTCHAR thorn
ENCODING 254
SWIDTH 639 0
DWIDTH 13 0
BBX 12 18 1 -4
BITMAP
3C00
1C00
1C00
1CE0
39F0
3A70
3C70
3C70
3870
30E0
70E0
70C0
7180
7E00
6000
E000
E000
E000
ENDCHAR
STARTCHAR ydieresis
ENCODING 255
SWIDTH 586 0
DWIDTH 12 0
BBX 14 18 0 -4
BITMAP
0198
0198
0000
3C3C
1E1C
0E1C
0E18
0E10
0720
0740
07C0
0780
0700
0600
0400
0800
3800
F000
ENDCHAR
STARTCHAR Amacron
ENCODING 256
SWIDTH 765 0
DWIDTH 15 0
BBX 15 17 0 0
BITMAP
03F0
0000
0060
00E0
00F0
01F0
0170
0270
0270
0438
0C38
0FF8
1838
1018
201C
601C
F07E
ENDCHAR
STARTCHAR amacron
ENCODING 257
SWIDTH 634 0
DWIDTH 13 0
BBX 12 13 1 0
BITMAP
07E0
0000
07F0
0870
3070
30E0
70E0
61E0
E1E0
E2E0
E5C0
F9C0
71F0
ENDCHAR
STARTCHAR Abreve
ENCODING 258
SWIDTH 765 0
DWIDTH 15 0
BBX 15 19 0 0
BITMAP
0208
03F0
01E0
0000
0060
00E0
00F0
01F0
0170
0270
0270
0438
0C38
0FF8
1838
1018
201C
601C
F07E
ENDCHAR
STARTCHAR abreve
ENCODING 259
SWIDTH 634 0
DWIDTH 13 0
BBX 12 15 1 0
BITMAP
0820
0FC0
0780
0000
07F0
0870
3070
30E0
70E0
61E0
E1E0
E2E0
E5C0
F9C0
71F0
ENDCHAR
STARTCHAR Aogonek
ENCODING 260
SWIDTH 765 0
DWIDTH 15 0
BBX 15 19 0 -4
BITMAP
0060
00E0
00F0
01F0
0170
0270
0270
0438
0C38
0FF8
1838
1018
201C
601C
F07E
0000
0180
0300
03C0
ENDCHAR
STARTCHAR aogonek
ENCODING 261
SWIDTH 634 0
DWIDTH 13 0
BBX 12 15 1 -4
BITMAP
07F0
0870
3070
30E0
70E0
61E0
E1E0
E2E0
E5C0
F9C0
71F0
0000
0600
0C00
0F00
ENDCHAR
STARTCHAR Cacute
ENCODING 262
SWIDTH 740 0
DWIDTH 15 0
BBX 14 19 2 0
BITMAP
0070
00C0
0180
0000
03FC
0E1C
1C0C
3808
3000
7000
7000
E000
E000
E000
E000
F000
7000
3830
1FC0
ENDCHAR
STARTCHAR cacute
ENCODING 263
SWIDTH 524 0
DWIDTH 10 0
BBX 10 15 2 0
BITMAP
01C0
0300
0600
0000
07C0
18C0
30C0
70C0
6000
E000
E000
E000
E000
7080
3F00
ENDCHAR
STARTCHAR Ccircumflex
ENCODING 264
SWIDTH 740 0
DWIDTH 15 0
BBX 14 19 2 0
BITMAP
01E0
03E0
0630
0000
03FC
0E1C
1C0C
3808
3000
7000
7000
E000
E000
E000
E000
F000
7000
3830
1FC0
ENDCHAR
STARTCHAR ccircumflex
ENCODING 265
SWIDTH 524 0
DWIDTH 10 0
BBX 10 15 2 0
BITMAP
0780
0F80
18C0
0000
07C0
18C0
30C0
70C0
6000
E000
E000
E000
E000
7080
3F00
ENDCHAR
STARTCHAR Cdotaccent
ENCODING 266
SWIDTH 740 0
DWIDTH 15 0
BBX 14 18 2 0
BITMAP
01C0
01C0
0000
03FC
0E1C
1C0C
3808
3000
7000
7000
E000
E000
E000
E000
F000
7000
3830
1FC0
ENDCHAR
STARTCHAR cdotaccent
ENCODING 267
SWIDTH 524 0
DWIDTH 10 0
BBX 10 14 2 0
BITMAP
0700
0700
0000
07C0
18C0
30C0
70C0
6000
E000
E000
E000
E000
7080
3F00
ENDCHAR
STARTCHAR Ccaron
ENCODING 268
SWIDTH 740 0
DWIDTH 15 0
BBX 14 19 2 0
BITMAP
0630
03E0
03C0
0000
03FC
0E1C
1C0C
3808
3000
7000
7000
E000
E000
E000
E000
F000
7000
3830
1FC0
ENDCHAR
STARTCHAR ccaron
ENCODING 269
SWIDTH 524 0
DWIDTH 10 0
BBX 10 15 2 0
BITMAP
18C0
0F80
0F00
0000
07C0
18C0
30C0
70C0
6000
E000
E000
E000
E000
7080
3F00
ENDCHAR
STARTCHAR Dcaron
ENCODING 270
SWIDTH 822 0
DWIDTH 16 0
BBX 16 19 1 0
BITMAP
0318
01F0
01E0
0000
1FF8
0E1E
0E0E
0E07
0C07
1C07
1C07
1C07
1C07
1C0E
380E
381C
3838
3870
FFC0
ENDCHAR
STARTCHAR dcaron
ENCODING 271
SWIDTH 867 0
DWIDTH 17 0
BBX 18 15 1 0
BITMAP
00F9C0
0039C0
0071C0
007080
07F180
087300
107000
30E000
70E000
60E000
E1E000
E2E000
E5C000
F9C000
71F000
ENDCHAR
STARTCHAR Dcroat
ENCODING 272
SWIDTH 822 0
DWIDTH 16 0
BBX 16 15 1 0
BITMAP
1FF8
0E1E
0E0E
0E07
1E07
1C07
1C07
7F87
1C07
1C0E
380E
381C
3838
3870
FFC0
ENDCHAR
STARTCHAR dcroat
ENCODING 273
SWIDTH 634 0
DWIDTH 13 0
BBX 14 15 1 0
BITMAP
00F8
0038
07FC
0070
07F0
0870
1070
30E0
70E0
60E0
E1E0
E2E0
E5C0
F9C0
71F0
ENDCHAR
STARTCHAR Emacron
ENCODING 274
SWIDTH 630 0
DWIDTH 13 0
BBX 13 17 1 0
BITMAP
0FC0
0000
1FF8
0E18
0E18
0E00
1C00
1C00
1C60
1FC0
1C40
1800
3800
3800
3820
3860
FFE0
ENDCHAR
STARTCHAR emacron
ENCODING 275
SWIDTH 548 0
DWIDTH 11 0
BBX 10 13 2 0
BITMAP
1F80
0000
0780
19C0
31C0
71C0
6380
E700
FE00
E000
E000
70C0
3F00
ENDCHAR
STARTCHAR Ebreve
ENCODING 276
SWIDTH 630 0
DWIDTH 13 0
BBX 13 19 1 0
BITMAP
0820
0FC0
0780
0000
1FF8
0E18
0E18
0E00
1C00
1C00
1C60
1FC0
1C40
1800
3800
3800
3820
3860
FFE0
ENDCHAR
STARTCHAR ebreve
ENCODING 277
SWIDTH 548 0
DWIDTH 11 0
BBX 10 15 2 0
BITMAP
1040
1F80
0F00
0000
0780
19C0
31C0
71C0
6380
E700
FE00
E000
E000
70C0
3F00
ENDCHAR
STARTCHAR Edotaccent
ENCODING 278
SWIDTH 630 0
DWIDTH 13 0
BBX 13 18 1 0
BITMAP
0380
0380
0000
1FF8
0E18
0E18
0E00
1C00
1C00
1C60
1FC0
1C40
1800
3800
3800
3820
3860
FFE0
ENDCHAR
STARTCHAR edotaccent
ENCODING 279
SWIDTH 548 0
DWIDTH 11 0
BBX 10 14 2 0
BITMAP
0700
0700
0000
0780
19C0
31C0
71C0
6380
E700
FE00
E000
E000
70C0
3F00
ENDCHAR
STARTCHAR Eogonek
ENCODING 280
SWIDTH 630 0
DWIDTH 13 0
BBX 13 19 1 -4
BITMAP
1FF8
0E18
0E18
0E00
1C00
1C00
1C60
1FC0
1C40
1800
3800
3800
3820
3860
FFE0
0000
0600
0C00
0F00
ENDCHAR
STARTCHAR eogonek
ENCODING 281
SWIDTH 548 0
DWIDTH 11 0
BBX 10 15 2 -4
BITMAP
0780
19C0
31C0
71C0
6380
E700
FE00
E000
E000
70C0
3F00
0000
0C00
1800
1E00
ENDCHAR
STARTCHAR Ecaron
ENCODING 282
SWIDTH 630 0
DWIDTH 13 0
BBX 13 19 1 0
BITMAP
0C60
07C0
0780
0000
1FF8
0E18
0E18
0E00
1C00
1C00
1C60
1FC0
1C40
1800
3800
3800
3820
3860
FFE0
ENDCHAR
STARTCHAR ecaron
ENCODING 283
SWIDTH 548 0
DWIDTH 11 0
BBX 10 15 2 0
BITMAP
18C0
0F80
0F00
0000
0780
19C0
31C0
71C0
6380
E700
FE00
E000
E000
70C0
3F00
ENDCHAR
STARTCHAR Gcircumflex
ENCODING 284
SWIDTH 780 0
DWIDTH 16 0
BBX 14 19 2 0
BITMAP
01E0
03E0
0630
0000
03FC
0E1C
1C0C
3808
3800
7000
7000
E000
E0FC
E070
E070
E070
7070
3860
1FC0
ENDCHAR
STARTCHAR gcircumflex
ENCODING 285
SWIDTH 628 0
DWIDTH 13 0
BBX 12 19 1 -4
BITMAP
03C0
07C0
0C60
0000
03F0
0C70
1870
3860
30E0
70E0
71E0
72E0
77C0
7DC0
79C0
01C0
8180
E300
7C00
ENDCHAR
STARTCHAR Gbreve
ENCODING 286
SWIDTH 780 0
DWIDTH 16 0
BBX 14 19 2 0
BITMAP
0410
07E0
03C0
0000
03FC
0E1C
1C0C
3808
3800
7000
7000
E000
E0FC
E070
E070
E070
7070
3860
1FC0
ENDCHAR
STARTCHAR gbreve
ENCODING 287
SWIDTH 628 0
DWIDTH 13 0
BBX 12 19 1 -4
BITMAP
0820
0FC0
0780
0000
03F0
0C70
1870
3860
30E0
70E0
71E0
72E0
77C0
7DC0
79C0
01C0
8180
E300
7C00
ENDCHAR
STARTCHAR Gdotaccent
ENCODING 288
SWIDTH 780 0
DWIDTH 16 0
BBX 14 18 2 0
BITMAP
01C0
01C0
0000
03FC
0E1C
1C0C
3808
3800
7000
7000
E000
E0FC
E070
E070
E070
7070
3860
1FC0
ENDCHAR
STARTCHAR gdotaccent
ENCODING 289
SWIDTH 628 0
DWIDTH 13 0
BBX 12 18 1 -4
BITMAP
0380
0380
0000
03F0
0C70
1870
3860
30E0
70E0
71E0
72E0
77C0
7DC0
79C0
01C0
8180
E300
7C00
ENDCHAR
STARTCHAR Gcommaaccent
ENCODING 290
SWIDTH 780 0
DWIDTH 16 0
BBX 14 24 2 -9
BITMAP
03FC
0E1C
1C0C
3808
3800
7000
7000
E000
E0FC
E070
E070
E070
7070
3860
1FC0
0000
0700
0700
0700
0700
0200
0600
0600
0C00
ENDCHAR
STARTCHAR gcommaaccent
ENCODING 291
SWIDTH 628 0
DWIDTH 13 0
BBX 12 22 1 -4
BITMAP
00C0
0180
0100
0380
0380
0380
0000
03F0
0C70
1870
3860
30E0
70E0
71E0
72E0
77C0
7DC0
79C0
01C0
8180
E300
7C00
ENDCHAR
STARTCHAR Hcircumflex
ENCODING 292
SWIDTH 827 0
DWIDTH 17 0
BBX 18 19 1 0
BITMAP
00F000
01F000
031800
000000
1F8FC0
0E0700
0E0700
0E0700
0E0700
1C0E00
1C0E00
1FFE00
1C0E00
1C0E00
381C00
381C00
381C00
381C00
FC7E00
ENDCHAR
STARTCHAR hcircumflex
ENCODING 293
SWIDTH 656 0
DWIDTH 13 0
BBX 11 19 2 0
BITMAP
1E00
3E00
6300
0000
7C00
1800
3800
3800
39C0
3BE0
36E0
74E0
78E0
71C0
71C0
61C0
E1C0
E1C0
E1E0
ENDCHAR
STARTCHAR Hbar
ENCODING 294
SWIDTH 827 0
DWIDTH 17 0
BBX 18 15 1 0
BITMAP
1F8FC0
0E0700
0E0700
FFFFC0
0E0700
1C0E00
1C0E00
1FFE00
1C0E00
1C0E00
381C00
381C00
381C00
381C00
FC7E00
ENDCHAR
STARTCHAR hbar
ENCODING 295
SWIDTH 656 0
DWIDTH 13 0
BBX 12 15 1 0
BITMAP
3E00
0C00
FF80
1C00
1CE0
1DF0
1B70
3A70
3C70
38E0
38E0
30E0
70E0
70E0
70F0
ENDCHAR
STARTCHAR Itilde
ENCODING 296
SWIDTH 372 0
DWIDTH 7 0
BBX 9 19 1 0
BITMAP
1C80
3F80
2700
0000
1F80
0E00
0E00
0E00
0E00
1C00
1C00
1C00
1C00
1C00
3800
3800
3800
3800
FC00
ENDCHAR
STARTCHAR itilde
ENCODING 297
SWIDTH 319 0
DWIDTH 6 0
BBX 7 15 1 0
BITMAP
72
FE
9C
00
7C
1C
1C
38
38
38
38
38
70
70
7C
ENDCHAR
STARTCHAR Imacron
ENCODING 298
SWIDTH 372 0
DWIDTH 7 0
BBX 9 17 1 0
BITMAP
3F00
0000
1F80
0E00
0E00
0E00
0E00
1C00
1C00
1C00
1C00
1C00
3800
3800
3800
3800
FC00
ENDCHAR
STARTCHAR imacron
ENCODING 299
SWIDTH 319 0
DWIDTH 6 0
BBX 6 13 2 0
BITMAP
FC
00
F8
38
38
70
70
70
70
70
E0
E0
F8
ENDCHAR
STARTCHAR Ibreve
ENCODING 300
SWIDTH 372 0
DWIDTH 7 0
BBX 9 19 1 0
BITMAP
2080
3F00
1E00
0000
1F80
0E00
0E00
0E00
0E00
1C00
1C00
1C00
1C00
1C00
3800
3800
3800
3800
FC00
ENDCHAR
STARTCHAR ibreve
ENCODING 301
SWIDTH 319 0
DWIDTH 6 0
BBX 7 15 2 0
BITMAP
82
FC
78
00
F8
38
38
70
70
70
70
70
E0
E0
F8
ENDCHAR
STARTCHAR Iogonek
ENCODING 302
SWIDTH 372 0
DWIDTH 7 0
BBX 9 19 1 -4
BITMAP
1F80
0E00
0E00
0E00
0E00
1C00
1C00
1C00
1C00
1C00
3800
3800
3800
3800
FC00
0000
1800
3000
3C00
ENDCHAR
STARTCHAR iogonek
ENCODING 303
SWIDTH 319 0
DWIDTH 6 0
BBX 6 19 2 -4
BITMAP
1C
1C
1C
00
F8
38
38
30
70
70
70
70
60
E0
F8
00
60
C0
F0
ENDCHAR
STARTCHAR Idotaccent
ENCODING 304
SWIDTH 372 0
DWIDTH 7 0
BBX 9 18 1 0
BITMAP
0E00
0E00
0000
1F80
0E00
0E00
0E00
0E00
1C00
1C00
1C00
1C00
1C00
3800
3800
3800
3800
FC00
ENDCHAR
STARTCHAR dotlessi
ENCODING 305
SWIDTH 319 0
DWIDTH 6 0
BBX 5 11 2 0
BITMAP
F8
38
38
70
70
70
70
70
E0
E0
F8
ENDCHAR
STARTCHAR IJ
ENCODING 306
SWIDTH 831 0
DWIDTH 17 0
BBX 18 18 1 -3
BITMAP
1F8FC0
0E0780
0E0700
0E0700
0E0700
1C0E00
1C0E00
1C0E00
1C0E00
1C0E00
380E00
381C00
381C00
381C00
FC1C00
033800
033000
03E000
ENDCHAR
STARTCHAR ij
ENCODING 307
SWIDTH 684 0
DWIDTH 14 0
BBX 14 19 2 -4
BITMAP
1C1C
1C1C
1C1C
0000
F8F8
3838
3838
3070
7070
7070
7070
7070
60E0
E0E0
F8E0
00C0
18C0
1980
1F00
ENDCHAR
STARTCHAR Jcircumflex
ENCODING 308
SWIDTH 478 0
DWIDTH 10 0
BBX 12 22 0 -3
BITMAP
03C0
07C0
0C60
0000
03F0
01E0
01C0
01C0
01C0
0380
0380
0380
0380
0380
0380
0700
0700
0700
0700
CE00
CC00
F800
ENDCHAR
STARTCHAR jcircumflex
ENCODING 309
SWIDTH 381 0
DWIDTH 8 0
BBX 11 19 -1 -4
BITMAP
03C0
07C0
0C60
0000
07C0
01C0
01C0
0380
0380
0380
0380
0380
0700
0700
0700
0600
C600
CC00
F800
ENDCHAR
STARTCHAR Kcommaaccent
ENCODING 310
SWIDTH 746 0
DWIDTH 15 0
BBX 15 24 1 -9
BITMAP
1F9E
0E08
0E10
0C20
1C40
1D80
1F00
1F80
1B80
19C0
39E0
38E0
3870
3878
FCFC
0000
0380
0380
0380
0380
0100
0300
0300
0600
ENDCHAR
STARTCHAR kcommaaccent
ENCODING 311
SWIDTH 626 0
DWIDTH 13 0
BBX 11 24 2 -9
BITMAP
7C00
1C00
1800
3800
38E0
38E0
39C0
3380
7E00
7E00
7700
7700
6380
E3C0
E1E0
0000
0E00
0E00
0E00
0E00
0400
0C00
0C00
1800
ENDCHAR
STARTCHAR kgreenlandic
ENCODING 312
SWIDTH 626 0
DWIDTH 13 0
BBX 11 11 2 0
BITMAP
38E0
38E0
39C0
3380
7E00
7E00
7700
7700
6380
E3C0
E1E0
ENDCHAR
STARTCHAR Lacute
ENCODING 313
SWIDTH 611 0
DWIDTH 12 0
BBX 12 19 1 0
BITMAP
0380
0600
0C00
0000
1F80
0F00
0E00
0E00
0E00
1E00
1C00
1C00
1C00
1C00
3C00
3800
3830
3830
FFE0
ENDCHAR
STARTCHAR lacute
ENCODING 314
SWIDTH 319 0
DWIDTH 6 0
BBX 7 19 2 0
BITMAP
0E
18
30
00
7C
1C
18
38
38
38
38
30
70
70
70
70
60
E0
F8
ENDCHAR
STARTCHAR Lcommaaccent
ENCODING 315
SWIDTH 611 0
DWIDTH 12 0
BBX 12 24 1 -9
BITMAP
1F80
0F00
0E00
0E00
0E00
1E00
1C00
1C00
1C00
1C00
3C00
3800
3830
3830
FFE0
0000
0E00
0E00
0E00
0E00
0400
0C00
0C00
1800
ENDCHAR
STARTCHAR lcommaaccent
ENCODING 316
SWIDTH 319 0
DWIDTH 6 0
BBX 6 24 2 -9
BITMAP
7C
1C
18
38
38
38
38
30
70
70
70
70
60
E0
F8
00
70
70
70
70
20
60
60
C0
ENDCHAR
STARTCHAR Lcaron
ENCODING 317
SWIDTH 845 0
DWIDTH 16 0
BBX 17 15 1 0
BITMAP
1F8380
0F0380
0E0380
0E0100
0E0300
1E0600
1C0000
1C0000
1C0000
1C0000
3C0000
380000
383000
383000
FFE000
ENDCHAR
STARTCHAR lcaron
ENCODING 318
SWIDTH 568 0
DWIDTH 11 0
BBX 11 15 2 0
BITMAP
7CE0
1CE0
18E0
3840
38C0
3980
3800
3000
7000
7000
7000
7000
6000
E000
F800
ENDCHAR
STARTCHAR Ldot
ENCODING 319
SWIDTH 1216 0
DWIDTH 23 0
BBX 19 15 1 0
BITMAP
1F8000
0F0000
0E0000
0E0000
0E0000
1E0000
1C0000
1C00E0
1C00E0
1C0000
3C0000
380000
383000
383000
FFE000
ENDCHAR
STARTCHAR ldot
ENCODING 320
SWIDTH 939 0
DWIDTH 18 0
BBX 13 15 2 0
BITMAP
7C00
1C00
1800
3800
3800
3800
3800
3038
7038
7000
7000
7000
6000
E000
F800
ENDCHAR
STARTCHAR Lslash
ENCODING 321
SWIDTH 611 0
DWIDTH 12 0
BBX 12 15 1 0
BITMAP
1F80
0F00
0E00
0E00
0E00
1E80
1F00
7C00
5C00
1C00
3C00
3800
3830
3830
FFE0
ENDCHAR
STARTCHAR lslash
ENCODING 322
SWIDTH 319 0
DWIDTH 6 0
BBX 8 15 1 0
BITMAP
3E
0E
1E
1C
1C
1C
1F
3C
F8
38
38
38
70
70
7C
ENDCHAR
STARTCHAR Nacute
ENCODING 323
SWIDTH 797 0
DWIDTH 16 0
BBX 17 19 1 0
BITMAP
007000
00C000
018000
000000
1E0F80
0E0200
0F0200
0F0600
0B8600
1B8400
19C400
11C400
10EC00
10EC00
307800
307800
203800
203800
F81800
ENDCHAR
STARTCHAR nacute
ENCODING 324
SWIDTH 656 0
DWIDTH 13 0
BBX 11 15 2 0
BITMAP
0380
0600
0C00
0000
F9C0
3BE0
36E0
74E0
78E0
71C0
71C0
61C0
E1C0
E1C0
E1E0
ENDCHAR
STARTCHAR Ncommaaccent
ENCODING 325
SWIDTH 797 0
DWIDTH 16 0
BBX 17 24 1 -9
BITMAP
1E0F80
0E0200
0F0200
0F0600
0B8600
1B8400
19C400
11C400
10EC00
10EC00
307800
307800
203800
203800
F81800
000000
01C000
01C000
01C000
01C000
008000
018000
018000
030000
ENDCHAR
STARTCHAR ncommaaccent
ENCODING 326
SWIDTH 656 0
DWIDTH 13 0
BBX 11 20 2 -9
BITMAP
F9C0
3BE0
36E0
74E0
78E0
71C0
71C0
61C0
E1C0
E1C0
E1E0
0000
0E00
0E00
0E00
0E00
0400
0C00
0C00
1800
ENDCHAR
STARTCHAR Ncaron
ENCODING 327
SWIDTH 797 0
DWIDTH 16 0
BBX 17 19 1 0
BITMAP
031800
01F000
01E000
000000
1E0F80
0E0200
0F0200
0F0600
0B8600
1B8400
19C400
11C400
10EC00
10EC00
307800
307800
203800
203800
F81800
ENDCHAR
STARTCHAR ncaron
ENCODING 328
SWIDTH 656 0
DWIDTH 13 0
BBX 11 15 2 0
BITMAP
18C0
0F80
0F00
0000
F9C0
3BE0
36E0
74E0
78E0
71C0
71C0
61C0
E1C0
E1C0
E1E0
ENDCHAR
STARTCHAR napostrophe
ENCODING 329
SWIDTH 908 0
DWIDTH 18 0
BBX 15 15 3 0
BITMAP
7000
7000
7000
2000
6F9C
C3BE
036E
074E
078E
071C
071C
061C
0E1C
0E1C
0E1E
ENDCHAR
STARTCHAR Eng
ENCODING 330
SWIDTH 797 0
DWIDTH 16 0
BBX 17 19 1 -4
BITMAP
1E0F80
0E0200
0F0200
0F0600
0B8600
1B8400
19C400
11C400
10EC00
10EC00
307800
307800
207800
207800
F87800
006000
0C6000
0CC000
0F8000
ENDCHAR
STARTCHAR eng
ENCODING 331
SWIDTH 656 0
DWIDTH 13 0
BBX 11 15 2 -4
BITMAP
F9C0
3BE0
36E0
74E0
78E0
71C0
71C0
61C0
E380
E380
E380
0300
6300
6600
7C00
ENDCHAR
STARTCHAR Omacron
ENCODING 332
SWIDTH 831 0
DWIDTH 17 0
BBX 15 17 2 0
BITMAP
07E0
0000
01F0
0E1C
1C0C
380E
300E
700E
700E
E00E
E00E
E01C
E01C
E038
7070
70E0
1F80
ENDCHAR
STARTCHAR omacron
ENCODING 333
SWIDTH 599 0
DWIDTH 12 0
BBX 11 13 2 0
BITMAP
1F80
0000
0780
18C0
30E0
70E0
70E0
E0E0
E0C0
E1C0
E180
7300
3C00
ENDCHAR
STARTCHAR Obreve
ENCODING 334
SWIDTH 831 0
DWIDTH 17 0
BBX 15 19 2 0
BITMAP
0410
07E0
03C0
0000
01F0
0E1C
1C0C
380E
300E
700E
700E
E00E
E00E
E01C
E01C
E038
7070
70E0
1F80
ENDCHAR
STARTCHAR obreve
ENCODING 335
SWIDTH 599 0
DWIDTH 12 0
BBX 11 15 2 0
BITMAP
1040
1F80
0F00
0000
0780
18C0
30E0
70E0
70E0
E0E0
E0C0
E1C0
E180
7300
3C00
ENDCHAR
STARTCHAR Ohungarumlaut
ENCODING 336
SWIDTH 831 0
DWIDTH 17 0
BBX 15 19 2 0
BITMAP
00D8
01A0
0240
0000
01F0
0E1C
1C0C
380E
300E
700E
700E
E00E
E00E
E01C
E01C
E038
7070
70E0
1F80
ENDCHAR
STARTCHAR ohungarumlaut
ENCODING 337
SWIDTH 599 0
DWIDTH 12 0
BBX 11 15 2 0
BITMAP
0360
0680
0900
0000
0780
18C0
30E0
70E0
70E0
E0E0
E0C0
E1C0
E180
7300
3C00
ENDCHAR
STARTCHAR OE
ENCODING 338
SWIDTH 1067 0
DWIDTH 21 0
BBX 21 15 2 0
BITMAP
03EFF8
0E3E18
1C1C18
381C00
301C00
701C00
701C60
E03FE0
E03840
E03800
E03800
E07800
707020
38F060
1FFFE0
ENDCHAR
STARTCHAR oe
ENCODING 339
SWIDTH 921 0
DWIDTH 18 0
BBX 17 11 2 0
BITMAP
078F00
18D380
30F180
70E180
60E300
E0E700
E0FC00
E1C000
E1C000
73E180
3E7F00
ENDCHAR
STARTCHAR Racute
ENCODING 340
SWIDTH 711 0
DWIDTH 14 0
BBX 14 19 1 0
BITMAP
0070
00C0
0180
0000
1FF8
0E3C
0E1C
0E1C
0E1C
1E38
1C70
1FE0
1DC0
1CE0
38E0
3870
3870
3838
FC3C
ENDCHAR
STARTCHAR racute
ENCODING 341
SWIDTH 496 0
DWIDTH 10 0
BBX 10 15 2 0
BITMAP
0380
0600
0C00
0000
F8C0
3B80
3B80
7400
7800
7800
7000
7000
E000
E000
E000
ENDCHAR
STARTCHAR Rcommaaccent
ENCODING 342
SWIDTH 711 0
DWIDTH 14 0
BBX 14 24 1 -9
BITMAP
1FF8
0E3C
0E1C
0E1C
0E1C
1E38
1C70
1FE0
1DC0
1CE0
38E0
3870
3870
3838
FC3C
0000
0380
0380
0380
0380
0100
0300
0300
0600
ENDCHAR
STARTCHAR rcommaaccent
ENCODING 343
SWIDTH 496 0
DWIDTH 10 0
BBX 10 20 2 -9
BITMAP
F8C0
3B80
3B80
7400
7800
7800
7000
7000
E000
E000
E000
0000
7000
7000
7000
7000
2000
6000
6000
C000
ENDCHAR
STARTCHAR Rcaron
ENCODING 344
SWIDTH 711 0
DWIDTH 14 0
BBX 14 19 1 0
BITMAP
0630
03E0
03C0
0000
1FF8
0E3C
0E1C
0E1C
0E1C
1E38
1C70
1FE0
1DC0
1CE0
38E0
3870
3870
3838
FC3C
ENDCHAR
STARTCHAR rcaron
ENCODING 345
SWIDTH 496 0
DWIDTH 10 0
BBX 10 15 2 0
BITMAP
3180
1F00
1E00
0000
F8C0
3B80
3B80
7400
7800
7800
7000
7000
E000
E000
E000
ENDCHAR
STARTCHAR Sacute
ENCODING 346
SWIDTH 587 0
DWIDTH 12 0
BBX 12 19 1 0
BITMAP
01C0
0300
0600
0000
07E0
1C30
1830
3820
3800
3C00
1F00
0F80
03C0
01C0
01E0
41C0
C1C0
C380
7E00
ENDCHAR
STARTCHAR sacute
ENCODING 347
SWIDTH 479 0
DWIDTH 10 0
BBX 9 15 1 0
BITMAP
0380
0600
0C00
0000
0F80
3880
3880
3800
3C00
1E00
0F00
0700
C700
C700
7C00
ENDCHAR
STARTCHAR Scircumflex
ENCODING 348
SWIDTH 587 0
DWIDTH 12 0
BBX 12 19 1 0
BITMAP
0780
0F80
18C0
0000
07E0
1C30
1830
3820
3800
3C00
1F00
0F80
03C0
01C0
01E0
41C0
C1C0
C380
7E00
ENDCHAR
STARTCHAR scircumflex
ENCODING 349
SWIDTH 479 0
DWIDTH 10 0
BBX 9 15 1 0
BITMAP
0F00
1F00
3180
0000
0F80
3880
3880
3800
3C00
1E00
0F00
0700
C700
C700
7C00
ENDCHAR
STARTCHAR Scedilla
ENCODING 350
SWIDTH 587 0
DWIDTH 12 0
BBX 12 19 1 -4
BITMAP
07E0
1C30
1830
3820
3800
3C00
1F00
0F80
03C0
01C0
01E0
41C0
C1C0
C380
7E00
0800
0600
0600
1C00
ENDCHAR
STARTCHAR scedilla
ENCODING 351
SWIDTH 479 0
DWIDTH 10 0
BBX 9 15 1 -4
BITMAP
0F80
3880
3880
3800
3C00
1E00
0F00
0700
C700
C700
7C00
1000
0C00
0C00
3800
ENDCHAR
STARTCHAR Scaron
ENCODING 352
SWIDTH 587 0
DWIDTH 12 0
BBX 12 19 1 0
BITMAP
0630
03E0
03C0
0000
07E0
1C30
1830
3820
3800
3C00
1F00
0F80
03C0
01C0
01E0
41C0
C1C0
C380
7E00
ENDCHAR
STARTCHAR scaron
ENCODING 353
SWIDTH 479 0
DWIDTH 10 0
BBX 11 15 1 0
BITMAP
0C60
07C0
0780
0000
0F80
3880
3880
3800
3C00
1E00
0F00
0700
C700
C700
7C00
ENDCHAR
STARTCHAR Tcommaaccent
ENCODING 354
SWIDTH 716 0
DWIDTH 14 0
BBX 14 19 3 -4
BITMAP
FFFC
C38C
C708
0700
0700
0700
0700
0E00
0E00
0E00
0E00
0E00
1C00
1C00
7F00
0800
0600
0600
1C00
ENDCHAR
STARTCHAR tcommaaccent
ENCODING 355
SWIDTH 375 0
DWIDTH 7 0
BBX 7 18 2 -4
BITMAP
18
38
38
FE
70
70
70
70
70
E0
E0
E0
E8
78
20
18
18
70
ENDCHAR
STARTCHAR Tcaron
ENCODING 356
SWIDTH 716 0
DWIDTH 14 0
BBX 14 19 3 0
BITMAP
0C60
07C0
0780
0000
FFFC
C38C
C708
0700
0700
0700
0700
0E00
0E00
0E00
0E00
0E00
1C00
1C00
7F00
ENDCHAR
STARTCHAR tcaron
ENCODING 357
SWIDTH 621 0
DWIDTH 12 0
BBX 12 15 2 0
BITMAP
0070
1870
3870
3820
FE60
70C0
7000
7000
7000
7000
E000
E000
E000
E800
7800
ENDCHAR
STARTCHAR Tbar
ENCODING 358
SWIDTH 716 0
DWIDTH 14 0
BBX 14 15 3 0
BITMAP
FFFC
C38C
C708
0700
0700
0700
0700
1FF0
0E00
0E00
0E00
0E00
1C00
1C00
7F00
ENDCHAR
STARTCHAR tbar
ENCODING 359
SWIDTH 375 0
DWIDTH 7 0
BBX 9 14 1 0
BITMAP
0C00
1C00
1C00
7F00
3800
3800
3800
3800
FF80
7000
7000
7000
7400
3C00
ENDCHAR
STARTCHAR Utilde
ENCODING 360
SWIDTH 775 0
DWIDTH 16 0
BBX 15 19 3 0
BITMAP
0720
0FE0
09C0
0000
FE3E
3818
7018
7018
7010
7010
7010
E010
E030
E020
E020
E020
E040
7080
3F00
ENDCHAR
STARTCHAR utilde
ENCODING 361
SWIDTH 655 0
DWIDTH 13 0
BBX 11 15 2 0
BITMAP
1C80
3F80
2700
0000
F1E0
70E0
70E0
70C0
71C0
71C0
E3C0
E5C0
ED80
FB80
73E0
ENDCHAR
STARTCHAR Umacron
ENCODING 362
SWIDTH 775 0
DWIDTH 16 0
BBX 15 17 3 0
BITMAP
0FC0
0000
FE3E
3818
7018
7018
7010
7010
7010
E010
E030
E020
E020
E020
E040
7080
3F00
ENDCHAR
STARTCHAR umacron
ENCODING 363
SWIDTH 655 0
DWIDTH 13 0
BBX 11 13 2 0
BITMAP
1F80
0000
F1E0
70E0
70E0
70C0
71C0
71C0
E3C0
E5C0
ED80
FB80
73E0
ENDCHAR
STARTCHAR Ubreve
ENCODING 364
SWIDTH 775 0
DWIDTH 16 0
BBX 15 19 3 0
BITMAP
0820
0FC0
0780
0000
FE3E
3818
7018
7018
7010
7010
7010
E010
E030
E020
E020
E020
E040
7080
3F00
ENDCHAR
STARTCHAR ubreve
ENCODING 365
SWIDTH 655 0
DWIDTH 13 0
BBX 11 15 2 0
BITMAP
1040
1F80
0F00
0000
F1E0
70E0
70E0
70C0
71C0
71C0
E3C0
E5C0
ED80
FB80
73E0
ENDCHAR
STARTCHAR Uring
ENCODING 366
SWIDTH 775 0
DWIDTH 16 0
BBX 15 19 3 0
BITMAP
0380
0280
0380
0000
FE3E
3818
7018
7018
7010
7010
7010
E010
E030
E020
E020
E020
E040
7080
3F00
ENDCHAR
STARTCHAR uring
ENCODING 367
SWIDTH 655 0
DWIDTH 13 0
BBX 11 15 2 0
BITMAP
0E00
0A00
0E00
0000
F1E0
70E0
70E0
70C0
71C0
71C0
E3C0
E5C0
ED80
FB80
73E0
ENDCHAR
STARTCHAR Uhungarumlaut
ENCODING 368
SWIDTH 775 0
DWIDTH 16 0
BBX 15 19 3 0
BITMAP
01B0
0340
0480
0000
FE3E
3818
7018
7018
7010
7010
7010
E010
E030
E020
E020
E020
E040
7080
3F00
ENDCHAR
STARTCHAR uhungarumlaut
ENCODING 369
SWIDTH 655 0
DWIDTH 13 0
BBX 11 15 2 0
BITMAP
06C0
0D00
1200
0000
F1E0
70E0
70E0
70C0
71C0
71C0
E3C0
E5C0
ED80
FB80
73E0
ENDCHAR
STARTCHAR Uogonek
ENCODING 370
SWIDTH 775 0
DWIDTH 16 0
BBX 15 19 3 -4
BITMAP
FE3E
3818
7018
7018
7010
7010
7010
E010
E030
E020
E020
E020
E040
7080
3F00
0000
0C00
1800
1E00
ENDCHAR
STARTCHAR uogonek
ENCODING 371
SWIDTH 655 0
DWIDTH 13 0
BBX 11 15 2 -4
BITMAP
F1E0
70E0
70E0
70C0
71C0
71C0
E3C0
E5C0
ED80
FB80
73E0
0000
0C00
1800
1E00
ENDCHAR
STARTCHAR Wcircumflex
ENCODING 372
SWIDTH 922 0
DWIDTH 18 0
BBX 19 19 2 0
BITMAP
01E000
03E000
063000
000000
F861E0
7060C0
70E080
70E180
71E100
716300
726200
726600
367400
347C00
347800
387800
387000
307000
306000
ENDCHAR
STARTCHAR wcircumflex
ENCODING 373
SWIDTH 822 0
DWIDTH 16 0
BBX 16 15 2 0
BITMAP
01E0
03E0
0630
0000
F087
7087
31C6
39C6
3BC4
3AE8
3EF8
1CF0
18E0
1860
1040
ENDCHAR
STARTCHAR Ycircumflex
ENCODING 374
SWIDTH 669 0
DWIDTH 13 0
BBX 14 19 2 0
BITMAP
0780
0F80
18C0
0000
FC3C
7818
3830
3820
3C40
1C80
1D00
0F00
0E00
0E00
1E00
1C00
1C00
1C00
7F00
ENDCHAR
STARTCHAR ycircumflex
ENCODING 375
SWIDTH 586 0
DWIDTH 12 0
BBX 14 19 0 -4
BITMAP
03C0
07C0
0C60
0000
3C3C
1E1C
0E1C
0E18
0E10
0720
0740
07C0
0780
0700
0600
0400
0800
3800
F000
ENDCHAR
STARTCHAR Ydieresis
ENCODING 376
SWIDTH 669 0
DWIDTH 13 0
BBX 14 18 2 0
BITMAP
0660
0660
0000
FC3C
7818
3830
3820
3C40
1C80
1D00
0F00
0E00
0E00
1E00
1C00
1C00
1C00
7F00
ENDCHAR
STARTCHAR Zacute
ENCODING 377
SWIDTH 684 0
DWIDTH 14 0
BBX 14 19 1 0
BITMAP
0070
00C0
0180
0000
1FFC
1838
1878
00F0
01E0
01C0
03C0
0780
0F00
0E00
1C00
3C00
7830
7030
FFE0
ENDCHAR
STARTCHAR zacute
ENCODING 378
SWIDTH 567 0
DWIDTH 11 0
BBX 11 15 1 0
BITMAP
01C0
0300
0600
0000
3FE0
31C0
23C0
0380
0700
0E00
1C00
3800
7840
70C0
FF80
ENDCHAR
STARTCHAR Zdotaccent
ENCODING 379
SWIDTH 684 0
DWIDTH 14 0
BBX 14 18 1 0
BITMAP
01C0
01C0
0000
1FFC
1838
1878
00F0
01E0
01C0
03C0
0780
0F00
0E00
1C00
3C00
7830
7030
FFE0
ENDCHAR
STARTCHAR zdotaccent
ENCODING 380
SWIDTH 567 0
DWIDTH 11 0
BBX 11 14 1 0
BITMAP
0700
0700
0000
3FE0
31C0
23C0
0380
0700
0E00
1C00
3800
7840
70C0
FF80
ENDCHAR
STARTCHAR Zcaron
ENCODING 381
SWIDTH 684 0
DWIDTH 14 0
BBX 14 19 1 0
BITMAP
0318
01F0
01E0
0000
1FFC
1838
1878
00F0
01E0
01C0
03C0
0780
0F00
0E00
1C00
3C00
7830
7030
FFE0
ENDCHAR
STARTCHAR zcaron
ENCODING 382
SWIDTH 567 0
DWIDTH 11 0
BBX 12 15 1 0
BITMAP
0630
03E0
03C0
0000
3FE0
31C0
23C0
0380
0700
0E00
1C00
3800
7840
70C0
FF80
ENDCHAR
STARTCHAR uni0186
ENCODING 390
SWIDTH 740 0
DWIDTH 15 0
BBX 14 15 2 0
BITMAP
0FE0
3070
0038
003C
001C
001C
001C
001C
0038
0038
0030
4070
C0E0
E1C0
FF00
ENDCHAR
STARTCHAR uni0189
ENCODING 393
SWIDTH 822 0
DWIDTH 16 0
BBX 16 15 1 0
BITMAP
1FF8
0E1E
0E0E
0E07
1E07
1C07
1C07
7F87
1C07
1C0E
380E
381C
3838
3870
FFC0
ENDCHAR
STARTCHAR uni018E
ENCODING 398
SWIDTH 630 0
DWIDTH 13 0
BBX 13 15 1 0
BITMAP
3FF8
30E0
20E0
00E0
00E0
00C0
11C0
1FC0
31C0
01C0
01C0
0380
C380
C380
FFC0
ENDCHAR
STARTCHAR florin
ENCODING 402
SWIDTH 636 0
DWIDTH 13 0
BBX 11 19 4 -4
BITMAP
03E0
0660
0C60
1C00
1C00
1C00
3800
FF00
3800
3800
3800
7000
7000
7000
7000
7000
E000
E000
E000
ENDCHAR
STARTCHAR uni0197
ENCODING 407
SWIDTH 372 0
DWIDTH 7 0
BBX 9 15 1 0
BITMAP
1F80
0E00
0E00
0E00
0E00
1C00
1C00
FF80
1C00
1C00
3800
3800
3800
3800
FC00
ENDCHAR
STARTCHAR uni019A
ENCODING 410
SWIDTH 319 0
DWIDTH 6 0
BBX 9 15 1 0
BITMAP
3E00
0E00
0C00
1C00
1C00
1C00
1C00
FF80
3800
3800
3800
3800
3000
7000
7C00
ENDCHAR
STARTCHAR uni019D
ENCODING 413
SWIDTH 797 0
DWIDTH 16 0
BBX 21 19 -3 -4
BITMAP
01E0F8
00E020
00F020
00F060
00B860
01B840
019C40
011C40
010EC0
010EC0
038780
038780
070380
070380
070180
060000
C60000
CC0000
F80000
ENDCHAR
STARTCHAR uni019F
ENCODING 415
SWIDTH 831 0
DWIDTH 17 0
BBX 15 15 2 0
BITMAP
01F0
0E1C
1C0C
380E
300E
700E
700E
FFFE
E00E
E01C
E01C
E038
7070
70E0
1F80
ENDCHAR
STARTCHAR Ohorn
ENCODING 416
SWIDTH 831 0
DWIDTH 17 0
BBX 18 15 2 0
BITMAP
01F1C0
0E1DC0
1C0DC0
380E80
300F80
700F00
700E00
E00E00
E00E00
E01C00
E01C00
E03800
707000
70E000
1F8000
ENDCHAR
STARTCHAR ohorn
ENCODING 417
SWIDTH 599 0
DWIDTH 12 0
BBX 14 11 2 0
BITMAP
079C
18DC
30FC
70E8
70F8
E0F0
E0C0
E1C0
E180
7300
3C00
ENDCHAR
STARTCHAR Uhorn
ENCODING 431
SWIDTH 775 0
DWIDTH 16 0
BBX 18 15 3 0
BITMAP
FE3FC0
3819C0
7019C0
701880
701180
701300
701000
E01000
E03000
E02000
E02000
E02000
E04000
708000
3F0000
ENDCHAR
STARTCHAR uhorn
ENCODING 432
SWIDTH 655 0
DWIDTH 13 0
BBX 14 11 2 0
BITMAP
F1FC
70FC
70FC
70C8
71D8
71F0
E3C0
E5C0
ED80
FB80
73E0
ENDCHAR
STARTCHAR uni01B5
ENCODING 437
SWIDTH 684 0
DWIDTH 14 0
BBX 14 15 1 0
BITMAP
1FFC
1838
1878
00F0
01E0
01C0
03C0
1FF0
0F00
0E00
1C00
3C00
7830
7030
FFE0
ENDCHAR
STARTCHAR uni01B6
ENCODING 438
SWIDTH 567 0
DWIDTH 11 0
BBX 11 11 1 0
BITMAP
3FE0
31C0
23C0
0380
0700
7FC0
1C00
3800
7840
70C0
FF80
ENDCHAR
STARTCHAR uni01BB
ENCODING 443
SWIDTH 636 0
DWIDTH 13 0
BBX 12 15 1 0
BITMAP
0FC0
18E0
1070
1070
0070
00E0
00C0
FFF0
0600
0800
1000
2000
6000
FFC0
FFC0
ENDCHAR
STARTCHAR uni01BC
ENCODING 444
SWIDTH 636 0
DWIDTH 13 0
BBX 12 15 2 0
BITMAP
1FF0
1FE0
1000
3000
2000
3E00
0700
0380
01C0
01C0
01C0
C1C0
C380
C300
FC00
ENDCHAR
STARTCHAR uni01C0
ENCODING 448
SWIDTH 253 0
DWIDTH 5 0
BBX 5 19 1 -4
BITMAP
18
18
18
10
10
30
30
30
20
20
20
60
60
60
40
40
C0
C0
C0
ENDCHAR
STARTCHAR uni01C2
ENCODING 450
SWIDTH 636 0
DWIDTH 12 0
BBX 13 19 1 -3
BITMAP
0180
0180
0180
0100
0100
0300
0300
7FF8
0200
0200
0200
0600
FFF0
0600
0400
0400
0C00
0C00
0C00
ENDCHAR
STARTCHAR uni01C3
ENCODING 451
SWIDTH 265 0
DWIDTH 5 0
BBX 6 15 1 0
BITMAP
1C
1C
38
38
38
38
30
30
30
20
20
00
00
F0
E0
ENDCHAR
STARTCHAR uni01CD
ENCODING 461
SWIDTH 765 0
DWIDTH 15 0
BBX 15 19 0 0
BITMAP
0318
01F0
01E0
0000
0060
00E0
00F0
01F0
0170
0270
0270
0438
0C38
0FF8
1838
1018
201C
601C
F07E
ENDCHAR
STARTCHAR uni01CE
ENCODING 462
SWIDTH 634 0
DWIDTH 13 0
BBX 12 15 1 0
BITMAP
0C60
07C0
0780
0000
07F0
0870
3070
30E0
70E0
61E0
E1E0
E2E0
E5C0
F9C0
71F0
ENDCHAR
STARTCHAR uni01CF
ENCODING 463
SWIDTH 372 0
DWIDTH 7 0
BBX 9 19 1 0
BITMAP
3180
1F00
1E00
0000
1F80
0E00
0E00
0E00
0E00
1C00
1C00
1C00
1C00
1C00
3800
3800
3800
3800
FC00
ENDCHAR
STARTCHAR uni01D0
ENCODING 464
SWIDTH 319 0
DWIDTH 6 0
BBX 7 15 2 0
BITMAP
C6
7C
78
00
F8
38
38
70
70
70
70
70
E0
E0
F8
ENDCHAR
STARTCHAR uni01D1
ENCODING 465
SWIDTH 831 0
DWIDTH 17 0
BBX 15 19 2 0
BITMAP
0630
03E0
03C0
0000
01F0
0E1C
1C0C
380E
300E
700E
700E
E00E
E00E
E01C
E01C
E038
7070
70E0
1F80
ENDCHAR
STARTCHAR uni01D2
ENCODING 466
SWIDTH 599 0
DWIDTH 12 0
BBX 11 15 2 0
BITMAP
18C0
0F80
0F00
0000
0780
18C0
30E0
70E0
70E0
E0E0
E0C0
E1C0
E180
7300
3C00
ENDCHAR
STARTCHAR uni01D3
ENCODING 467
SWIDTH 775 0
DWIDTH 16 0
BBX 15 19 3 0
BITMAP
0C60
07C0
0780
0000
FE3E
3818
7018
7018
7010
7010
7010
E010
E030
E020
E020
E020
E040
7080
3F00
ENDCHAR
STARTCHAR uni01D4
ENCODING 468
SWIDTH 655 0
DWIDTH 13 0
BBX 11 15 2 0
BITMAP
18C0
0F80
0F00
0000
F1E0
70E0
70E0
70C0
71C0
71C0
E3C0
E5C0
ED80
FB80
73E0
ENDCHAR
STARTCHAR uni01D5
ENCODING 469
SWIDTH 775 0
DWIDTH 16 0
BBX 15 20 3 0
BITMAP
0FC0
0000
0660
0660
0000
FE3E
3818
7018
7018
7010
7010
7010
E010
E030
E020
E020
E020
E040
7080
3F00
ENDCHAR
STARTCHAR uni01D6
ENCODING 470
SWIDTH 655 0
DWIDTH 13 0
BBX 11 16 2 0
BITMAP
1F80
0000
0CC0
0CC0
0000
F1E0
70E0
70E0
70C0
71C0
71C0
E3C0
E5C0
ED80
FB80
73E0
ENDCHAR
STARTCHAR uni01D7
ENCODING 471
SWIDTH 775 0
DWIDTH 16 0
BBX 15 22 3 0
BITMAP
00E0
0180
0300
0000
0660
0660
0000
FE3E
3818
7018
7018
7010
7010
7010
E010
E030
E020
E020
E020
E040
7080
3F00
ENDCHAR
STARTCHAR uni01D8
ENCODING 472
SWIDTH 655 0
DWIDTH 13 0
BBX 11 18 2 0
BITMAP
01C0
0300
0600
0000
0CC0
0CC0
0000
F1E0
70E0
70E0
70C0
71C0
71C0
E3C0
E5C0
ED80
FB80
73E0
ENDCHAR
STARTCHAR uni01D9
ENCODING 473
SWIDTH 775 0
DWIDTH 16 0
BBX 15 22 3 0
BITMAP
0C60
07C0
0780
0000
0660
0660
0000
FE3E
3818
7018
7018
7010
7010
7010
E010
E030
E020
E020
E020
E040
7080
3F00
ENDCHAR
STARTCHAR uni01DA
ENCODING 474
SWIDTH 655 0
DWIDTH 13 0
BBX 11 18 2 0
BITMAP
18C0
0F80
0F00
0000
0CC0
0CC0
0000
F1E0
70E0
70E0
70C0
71C0
71C0
E3C0
E5C0
ED80
FB80
73E0
ENDCHAR
STARTCHAR uni01DB
ENCODING 475
SWIDTH 775 0
DWIDTH 16 0
BBX 15 22 3 0
BITMAP
0700
0300
0180
0000
0660
0660
0000
FE3E
3818
7018
7018
7010
7010
7010
E010
E030
E020
E020
E020
E040
7080
3F00
ENDCHAR
STARTCHAR uni01DC
ENCODING 476
SWIDTH 655 0
DWIDTH 13 0
BBX 11 18 2 0
BITMAP
1C00
0C00
0600
0000
0CC0
0CC0
0000
F1E0
70E0
70E0
70C0
71C0
71C0
E3C0
E5C0
ED80
FB80
73E0
ENDCHAR
STARTCHAR uni01DD
ENCODING 477
SWIDTH 548 0
DWIDTH 11 0
BBX 10 11 2 0
BITMAP
3F00
C380
01C0
01C0
1FC0
39C0
7180
E380
E300
E600
7800
ENDCHAR
STARTCHAR uni01DE
ENCODING 478
SWIDTH 765 0
DWIDTH 15 0
BBX 15 20 0 0
BITMAP
01F8
0000
00CC
00CC
0000
0060
00E0
00F0
01F0
0170
0270
0270
0438
0C38
0FF8
1838
1018
201C
601C
F07E
ENDCHAR
STARTCHAR uni01DF
ENCODING 479
SWIDTH 634 0
DWIDTH 13 0
BBX 12 16 1 0
BITMAP
0FC0
0000
0660
0660
0000
07F0
0870
3070
30E0
70E0
61E0
E1E0
E2E0
E5C0
F9C0
71F0
ENDCHAR
STARTCHAR uni01E0
ENCODING 480
SWIDTH 765 0
DWIDTH 15 0
BBX 15 20 0 0
BITMAP
03F0
0000
01C0
01C0
0000
0060
00E0
00F0
01F0
0170
0270
0270
0438
0C38
0FF8
1838
1018
201C
601C
F07E
ENDCHAR
STARTCHAR uni01E1
ENCODING 481
SWIDTH 634 0
DWIDTH 13 0
BBX 12 16 1 0
BITMAP
0FC0
0000
0380
0380
0000
07F0
0870
3070
30E0
70E0
61E0
E1E0
E2E0
E5C0
F9C0
71F0
ENDCHAR
STARTCHAR uni01E2
ENCODING 482
SWIDTH 958 0
DWIDTH 19 0
BBX 21 17 0 0
BITMAP
003F00
000000
001FF8
001E18
003C18
005C00
00DC00
009C00
011C60
021FE0
063840
043800
0FF800
103800
203860
607060
F1FFE0
ENDCHAR
STARTCHAR uni01E3
ENCODING 483
SWIDTH 905 0
DWIDTH 18 0
BBX 17 13 1 0
BITMAP
01F800
000000
07FF00
08F380
30E380
30E380
70E300
61C600
E1FC00
E2C000
E4C000
F8E180
707E00
ENDCHAR
STARTCHAR uni01E4
ENCODING 484
SWIDTH 780 0
DWIDTH 16 0
BBX 17 15 2 0
BITMAP
03FC00
0E1C00
1C0C00
380800
380000
700000
700000
E00000
E0FC00
E07000
E0FF80
E07000
707000
386000
1FC000
ENDCHAR
STARTCHAR uni01E5
ENCODING 485
SWIDTH 628 0
DWIDTH 13 0
BBX 12 15 1 -4
BITMAP
03F0
0C70
1870
3860
30E0
70E0
71E0
72E0
77C0
7DC0
79C0
FFF0
8180
E300
7C00
ENDCHAR
STARTCHAR Gcaron
ENCODING 486
SWIDTH 780 0
DWIDTH 16 0
BBX 14 19 2 0
BITMAP
0630
03E0
03C0
0000
03FC
0E1C
1C0C
3808
3800
7000
7000
E000
E0FC
E070
E070
E070
7070
3860
1FC0
ENDCHAR
STARTCHAR gcaron
ENCODING 487
SWIDTH 628 0
DWIDTH 13 0
BBX 12 19 1 -4
BITMAP
0C60
07C0
0780
0000
03F0
0C70
1870
3860
30E0
70E0
71E0
72E0
77C0
7DC0
79C0
01C0
8180
E300
7C00
ENDCHAR
STARTCHAR uni01E8
ENCODING 488
SWIDTH 746 0
DWIDTH 15 0
BBX 15 19 1 0
BITMAP
0630
03E0
03C0
0000
1F9E
0E08
0E10
0C20
1C40
1D80
1F00
1F80
1B80
19C0
39E0
38E0
3870
3878
FCFC
ENDCHAR
STARTCHAR uni01E9
ENCODING 489
SWIDTH 626 0
DWIDTH 13 0
BBX 11 19 2 0
BITMAP
6300
3E00
3C00
0000
7C00
1C00
1800
3800
38E0
38E0
39C0
3380
7E00
7E00
7700
7700
6380
E3C0
E1E0
ENDCHAR
STARTCHAR uni01EA
ENCODING 490
SWIDTH 831 0
DWIDTH 17 0
BBX 15 19 2 -4
BITMAP
01F0
0E1C
1C0C
380E
300E
700E
700E
E00E
E00E
E01C
E01C
E038
7070
70E0
1F80
0000
0300
0600
0780
ENDCHAR
STARTCHAR uni01EB
ENCODING 491
SWIDTH 599 0
DWIDTH 12 0
BBX 11 15 2 -4
BITMAP
0780
18C0
30E0
70E0
70E0
E0E0
E0C0
E1C0
E180
7300
3C00
0000
0C00
1800
1E00
ENDCHAR
STARTCHAR uni01EC
ENCODING 492
SWIDTH 831 0
DWIDTH 17 0
BBX 15 21 2 -4
BITMAP
07E0
0000
01F0
0E1C
1C0C
380E
300E
700E
700E
E00E
E00E
E01C
E01C
E038
7070
70E0
1F80
0000
0300
0600
0780
ENDCHAR
STARTCHAR uni01ED
ENCODING 493
SWIDTH 599 0
DWIDTH 12 0
BBX 11 17 2 -4
BITMAP
1F80
0000
0780
18C0
30E0
70E0
70E0
E0E0
E0C0
E1C0
E180
7300
3C00
0000
0C00
1800
1E00
ENDCHAR
STARTCHAR uni01F0
ENCODING 496
SWIDTH 381 0
DWIDTH 8 0
BBX 11 19 -1 -4
BITMAP
0C60
07C0
0780
0000
07C0
01C0
01C0
0380
0380
0380
0380
0380
0700
0700
0700
0600
C600
CC00
F800
ENDCHAR
STARTCHAR uni01F4
ENCODING 500
SWIDTH 780 0
DWIDTH 16 0
BBX 14 19 2 0
BITMAP
0070
00C0
0180
0000
03FC
0E1C
1C0C
3808
3800
7000
7000
E000
E0FC
E070
E070
E070
7070
3860
1FC0
ENDCHAR
STARTCHAR uni01F5
ENCODING 501
SWIDTH 628 0
DWIDTH 13 0
BBX 12 19 1 -4
BITMAP
00E0
0180
0300
0000
03F0
0C70
1870
3860
30E0
70E0
71E0
72E0
77C0
7DC0
79C0
01C0
8180
E300
7C00
ENDCHAR
STARTCHAR uni01F8
ENCODING 504
SWIDTH 797 0
DWIDTH 16 0
BBX 17 19 1 0
BITMAP
038000
018000
00C000
000000
1E0F80
0E0200
0F0200
0F0600
0B8600
1B8400
19C400
11C400
10EC00
10EC00
307800
307800
203800
203800
F81800
ENDCHAR
STARTCHAR uni01F9
ENCODING 505
SWIDTH 656 0
DWIDTH 13 0
BBX 11 15 2 0
BITMAP
1C00
0C00
0600
0000
F9C0
3BE0
36E0
74E0
78E0
71C0
71C0
61C0
E1C0
E1C0
E1E0
ENDCHAR
STARTCHAR Aringacute
ENCODING 506
SWIDTH 765 0
DWIDTH 15 0
BBX 15 23 0 0
BITMAP
0038
0060
00C0
0000
0070
0050
0070
0000
0060
00E0
00F0
01F0
0170
0270
0270
0438
0C38
0FF8
1838
1018
201C
601C
F07E
ENDCHAR
STARTCHAR aringacute
ENCODING 507
SWIDTH 634 0
DWIDTH 13 0
BBX 12 19 1 0
BITMAP
00E0
0180
0300
0000
01C0
0140
01C0
0000
07F0
0870
3070
30E0
70E0
61E0
E1E0
E2E0
E5C0
F9C0
71F0
ENDCHAR
STARTCHAR AEacute
ENCODING 508
SWIDTH 958 0
DWIDTH 19 0
BBX 21 19 0 0
BITMAP
000380
000600
000C00
000000
001FF8
001E18
003C18
005C00
00DC00
009C00
011C60
021FE0
063840
043800
0FF800
103800
203860
607060
F1FFE0
ENDCHAR
STARTCHAR aeacute
ENCODING 509
SWIDTH 905 0
DWIDTH 18 0
BBX 17 15 1 0
BITMAP
003800
006000
00C000
000000
07FF00
08F380
30E380
30E380
70E300
61C600
E1FC00
E2C000
E4C000
F8E180
707E00
ENDCHAR
STARTCHAR Oslashacute
ENCODING 510
SWIDTH 831 0
DWIDTH 17 0
BBX 18 19 1 0
BITMAP
001C00
003000
006000
000000
00F8C0
030F00
0E0700
0C0F00
181F00
383700
386700
38C700
718700
730700
740E00
781C00
381800
3C7000
CFC000
ENDCHAR
STARTCHAR oslashacute
ENCODING 511
SWIDTH 599 0
DWIDTH 12 0
BBX 13 15 1 0
BITMAP
00E0
0180
0300
0000
03D8
0CF0
1870
38F0
7170
7270
7460
78E0
70C0
7180
DE00
ENDCHAR
STARTCHAR Scommaaccent
ENCODING 536
SWIDTH 587 0
DWIDTH 12 0
BBX 12 24 1 -9
BITMAP
07E0
1C30
1830
3820
3800
3C00
1F00
0F80
03C0
01C0
01E0
41C0
C1C0
C380
7E00
0000
0E00
0E00
0E00
0E00
0400
0C00
0C00
1800
ENDCHAR
STARTCHAR scommaaccent
ENCODING 537
SWIDTH 479 0
DWIDTH 10 0
BBX 9 20 1 -9
BITMAP
0F80
3880
3880
3800
3C00
1E00
0F00
0700
C700
C700
7C00
0000
1C00
1C00
1C00
1C00
0800
1800
1800
3000
ENDCHAR
STARTCHAR Tcommaaccent
ENCODING 538
SWIDTH 716 0
DWIDTH 14 0
BBX 14 24 3 -9
BITMAP
FFFC
C38C
C708
0700
0700
0700
0700
0E00
0E00
0E00
0E00
0E00
1C00
1C00
7F00
0000
0E00
0E00
0E00
0E00
0400
0C00
0C00
1800
ENDCHAR
STARTCHAR tcommaaccent
ENCODING 539
SWIDTH 375 0
DWIDTH 7 0
BBX 7 23 2 -9
BITMAP
18
38
38
FE
70
70
70
70
70
E0
E0
E0
E8
78
00
70
70
70
70
20
60
60
C0
ENDCHAR
STARTCHAR uni021E
ENCODING 542
SWIDTH 827 0
DWIDTH 17 0
BBX 18 19 1 0
BITMAP
018C00
00F800
00F000
000000
1F8FC0
0E0700
0E0700
0E0700
0E0700
1C0E00
1C0E00
1FFE00
1C0E00
1C0E00
381C00
381C00
381C00
381C00
FC7E00
ENDCHAR
STARTCHAR uni021F
ENCODING 543
SWIDTH 656 0
DWIDTH 13 0
BBX 11 19 2 0
BITMAP
6300
3E00
3C00
0000
7C00
1800
3800
3800
39C0
3BE0
36E0
74E0
78E0
71C0
71C0
61C0
E1C0
E1C0
E1E0
ENDCHAR
STARTCHAR uni0226
ENCODING 550
SWIDTH 765 0
DWIDTH 15 0
BBX 15 18 0 0
BITMAP
01C0
01C0
0000
0060
00E0
00F0
01F0
0170
0270
0270
0438
0C38
0FF8
1838
1018
201C
601C
F07E
ENDCHAR
STARTCHAR uni0227
ENCODING 551
SWIDTH 634 0
DWIDTH 13 0
BBX 12 14 1 0
BITMAP
0380
0380
0000
07F0
0870
3070
30E0
70E0
61E0
E1E0
E2E0
E5C0
F9C0
71F0
ENDCHAR
STARTCHAR uni0228
ENCODING 552
SWIDTH 630 0
DWIDTH 13 0
BBX 13 19 1 -4
BITMAP
1FF8
0E18
0E18
0E00
1C00
1C00
1C60
1FC0
1C40
1800
3800
3800
3820
3860
FFE0
0400
0300
0300
0E00
ENDCHAR
STARTCHAR uni0229
ENCODING 553
SWIDTH 548 0
DWIDTH 11 0
BBX 10 15 2 -4
BITMAP
0780
19C0
31C0
71C0
6380
E700
FE00
E000
E000
70C0
3F00
0800
0600
0600
1C00
ENDCHAR
STARTCHAR uni022A
ENCODING 554
SWIDTH 831 0
DWIDTH 17 0
BBX 15 20 2 0
BITMAP
03F0
0000
0330
0330
0000
01F0
0E1C
1C0C
380E
300E
700E
700E
E00E
E00E
E01C
E01C
E038
7070
70E0
1F80
ENDCHAR
STARTCHAR uni022B
ENCODING 555
SWIDTH 599 0
DWIDTH 12 0
BBX 11 16 2 0
BITMAP
0FC0
0000
0660
0660
0000
0780
18C0
30E0
70E0
70E0
E0E0
E0C0
E1C0
E180
7300
3C00
ENDCHAR
STARTCHAR uni022C
ENCODING 556
SWIDTH 831 0
DWIDTH 17 0
BBX 15 21 2 0
BITMAP
03F0
0000
01C8
03F8
0270
0000
01F0
0E1C
1C0C
380E
300E
700E
700E
E00E
E00E
E01C
E01C
E038
7070
70E0
1F80
ENDCHAR
STARTCHAR uni022D
ENCODING 557
SWIDTH 599 0
DWIDTH 12 0
BBX 11 17 2 0
BITMAP
0FC0
0000
0720
0FE0
09C0
0000
0780
18C0
30E0
70E0
70E0
E0E0
E0C0
E1C0
E180
7300
3C00
ENDCHAR
STARTCHAR uni022E
ENCODING 558
SWIDTH 831 0
DWIDTH 17 0
BBX 15 18 2 0
BITMAP
01C0
01C0
0000
01F0
0E1C
1C0C
380E
300E
700E
700E
E00E
E00E
E01C
E01C
E038
7070
70E0
1F80
ENDCHAR
STARTCHAR uni022F
ENCODING 559
SWIDTH 599 0
DWIDTH 12 0
BBX 11 14 2 0
BITMAP
0700
0700
0000
0780
18C0
30E0
70E0
70E0
E0E0
E0C0
E1C0
E180
7300
3C00
ENDCHAR
STARTCHAR uni0230
ENCODING 560
SWIDTH 831 0
DWIDTH 17 0
BBX 15 20 2 0
BITMAP
07E0
0000
01C0
01C0
0000
01F0
0E1C
1C0C
380E
300E
700E
700E
E00E
E00E
E01C
E01C
E038
7070
70E0
1F80
ENDCHAR
STARTCHAR uni0231
ENCODING 561
SWIDTH 599 0
DWIDTH 12 0
BBX 11 16 2 0
BITMAP
1F80
0000
0700
0700
0000
0780
18C0
30E0
70E0
70E0
E0E0
E0C0
E1C0
E180
7300
3C00
ENDCHAR
STARTCHAR uni0232
ENCODING 562
SWIDTH 669 0
DWIDTH 13 0
BBX 14 17 2 0
BITMAP
1F80
0000
FC3C
7818
3830
3820
3C40
1C80
1D00
0F00
0E00
0E00
1E00
1C00
1C00
1C00
7F00
ENDCHAR
STARTCHAR uni0233
ENCODING 563
SWIDTH 586 0
DWIDTH 12 0
BBX 14 17 0 -4
BITMAP
07E0
0000
3C3C
1E1C
0E1C
0E18
0E10
0720
0740
07C0
0780
0700
0600
0400
0800
3800
F000
ENDCHAR
STARTCHAR uni0250
ENCODING 592
SWIDTH 634 0
DWIDTH 13 0
BBX 12 11 1 0
BITMAP
F8E0
39F0
3A70
7470
7870
7860
70E0
70C0
E0C0
E100
FE00
ENDCHAR
STARTCHAR uni0259
ENCODING 601
SWIDTH 548 0
DWIDTH 11 0
BBX 10 11 2 0
BITMAP
3F00
C380
01C0
01C0
1FC0
39C0
7180
E380
E300
E600
7800
ENDCHAR
STARTCHAR uni025F
ENCODING 607
SWIDTH 415 0
DWIDTH 8 0
BBX 11 20 1 -9
BITMAP
00E0
00E0
00E0
01C0
01C0
01C0
01C0
01C0
0380
0380
0380
0380
0380
0700
3FC0
0700
0600
C600
CC00
F800
ENDCHAR
STARTCHAR uni0265
ENCODING 613
SWIDTH 656 0
DWIDTH 13 0
BBX 11 15 2 -4
BITMAP
F0E0
70E0
70E0
70C0
71C0
71C0
E3C0
E5C0
ED80
FB80
7380
0380
0380
0300
07C0
ENDCHAR
STARTCHAR uni0275
ENCODING 629
SWIDTH 599 0
DWIDTH 12 0
BBX 11 11 2 0
BITMAP
0780
18C0
30E0
70E0
70E0
FFE0
E0C0
E1C0
E180
7300
3C00
ENDCHAR
STARTCHAR uni0279
ENCODING 633
SWIDTH 496 0
DWIDTH 10 0
BBX 10 11 2 0
BITMAP
01C0
01C0
01C0
0380
0380
0780
0780
0B80
7700
7700
C7C0
ENDCHAR
STARTCHAR uni0287
ENCODING 647
SWIDTH 375 0
DWIDTH 7 0
BBX 7 14 2 0
BITMAP
3C
2E
0E
0E
0E
1C
1C
1C
1C
1C
FE
38
38
30
ENDCHAR
STARTCHAR uni0289
ENCODING 649
SWIDTH 655 0
DWIDTH 13 0
BBX 11 11 2 0
BITMAP
F1E0
70E0
70E0
70C0
71C0
FFE0
E3C0
E5C0
ED80
FB80
73E0
ENDCHAR
STARTCHAR uni028C
ENCODING 652
SWIDTH 584 0
DWIDTH 12 0
BBX 12 11 1 0
BITMAP
0180
0380
0780
0780
0B80
1380
31C0
61C0
E1C0
E0E0
F0F0
ENDCHAR
STARTCHAR uni028D
ENCODING 653
SWIDTH 822 0
DWIDTH 16 0
BBX 16 11 2 0
BITMAP
0208
0618
0718
0F38
1F7C
175C
23DC
639C
638C
E10E
E10F
ENDCHAR
STARTCHAR uni028E
ENCODING 654
SWIDTH 586 0
DWIDTH 12 0
BBX 14 15 0 0
BITMAP
003C
0070
0040
0080
0180
0380
0780
0F80
0B80
1380
21C0
61C0
E1C0
E1E0
F0F0
ENDCHAR
STARTCHAR uni029E
ENCODING 670
SWIDTH 626 0
DWIDTH 13 0
BBX 11 15 2 -4
BITMAP
F0E0
78E0
38C0
1DC0
1DC0
0FC0
0FC0
3980
7380
E380
E380
0380
0300
0700
07C0
ENDCHAR
STARTCHAR uni02BB
ENCODING 699
SWIDTH 265 0
DWIDTH 5 0
BBX 4 6 3 9
BITMAP
30
60
40
E0
E0
E0
ENDCHAR
STARTCHAR afii57929
ENCODING 700
SWIDTH 265 0
DWIDTH 5 0
BBX 4 6 3 9
BITMAP
70
70
70
20
60
C0
ENDCHAR
STARTCHAR afii64937
ENCODING 701
SWIDTH 265 0
DWIDTH 5 0
BBX 4 6 3 9
BITMAP
E0
E0
E0
40
60
30
ENDCHAR
STARTCHAR circumflex
ENCODING 710
SWIDTH 599 0
DWIDTH 12 0
BBX 7 3 5 12
BITMAP
3C
7C
C6
ENDCHAR
STARTCHAR caron
ENCODING 711
SWIDTH 599 0
DWIDTH 12 0
BBX 7 3 6 12
BITMAP
C6
7C
78
ENDCHAR
STARTCHAR uni02C8
ENCODING 712
SWIDTH 247 0
DWIDTH 5 0
BBX 3 6 3 9
BITMAP
E0
E0
E0
60
40
40
ENDCHAR
STARTCHAR macron
ENCODING 713
SWIDTH 599 0
DWIDTH 12 0
BBX 6 1 6 14
BITMAP
FC
ENDCHAR
STARTCHAR uni02CA
ENCODING 714
SWIDTH 599 0
DWIDTH 12 0
BBX 5 3 7 12
BITMAP
38
60
C0
ENDCHAR
STARTCHAR uni02CB
ENCODING 715
SWIDTH 599 0
DWIDTH 12 0
BBX 4 3 7 12
BITMAP
E0
60
30
ENDCHAR
STARTCHAR uni02CD
ENCODING 717
SWIDTH 599 0
DWIDTH 12 0
BBX 6 1 6 -2
BITMAP
FC
ENDCHAR
STARTCHAR uni02CE
ENCODING 718
SWIDTH 599 0
DWIDTH 12 0
BBX 4 3 7 -4
BITMAP
E0
60
30
ENDCHAR
STARTCHAR uni02CF
ENCODING 719
SWIDTH 599 0
DWIDTH 12 0
BBX 5 3 7 -4
BITMAP
38
60
C0
ENDCHAR
STARTCHAR breve
ENCODING 728
SWIDTH 599 0
DWIDTH 12 0
BBX 7 3 6 12
BITMAP
82
FC
78
ENDCHAR
STARTCHAR dotaccent
ENCODING 729
SWIDTH 599 0
DWIDTH 12 0
BBX 3 2 7 13
BITMAP
E0
E0
ENDCHAR
STARTCHAR ring
ENCODING 730
SWIDTH 599 0
DWIDTH 12 0
BBX 3 3 8 13
BITMAP
E0
A0
E0
ENDCHAR
STARTCHAR ogonek
ENCODING 731
SWIDTH 599 0
DWIDTH 12 0
BBX 4 3 4 -4
BITMAP
60
C0
F0
ENDCHAR
STARTCHAR tilde
ENCODING 732
SWIDTH 599 0
DWIDTH 12 0
BBX 7 3 6 12
BITMAP
72
FE
9C
ENDCHAR
STARTCHAR hungarumlaut
ENCODING 733
SWIDTH 599 0
DWIDTH 12 0
BBX 7 3 7 12
BITMAP
36
68
90
ENDCHAR
STARTCHAR uni02EE
ENCODING 750
SWIDTH 464 0
DWIDTH 9 0
BBX 9 6 2 9
BITMAP
7380
7380
7780
3300
6300
C600
ENDCHAR
STARTCHAR uni037E
ENCODING 894
SWIDTH 265 0
DWIDTH 5 0
BBX 6 15 0 -4
BITMAP
1C
1C
38
00
00
00
00
00
00
70
70
30
30
60
C0
ENDCHAR
STARTCHAR tonos
ENCODING 900
SWIDTH 599 0
DWIDTH 12 0
BBX 5 3 7 12
BITMAP
38
60
C0
ENDCHAR
STARTCHAR dieresistonos
ENCODING 901
SWIDTH 599 0
DWIDTH 12 0
BBX 7 6 6 13
BITMAP
0E
18
30
00
CC
CC
ENDCHAR
STARTCHAR anoteleia
ENCODING 903
SWIDTH 636 0
DWIDTH 12 0
BBX 3 2 6 6
BITMAP
E0
E0
ENDCHAR
STARTCHAR mu
ENCODING 956
SWIDTH 687 0
DWIDTH 14 0
BBX 12 15 2 -4
BITMAP
78F0
3870
3870
3860
38E0
30E0
71E0
73E0
76C0
7DC0
79F0
6000
E000
E000
E000
ENDCHAR
STARTCHAR uni1E00
ENCODING 7680
SWIDTH 765 0
DWIDTH 15 0
BBX 15 19 0 -4
BITMAP
0060
00E0
00F0
01F0
0170
0270
0270
0438
0C38
0FF8
1838
1018
201C
601C
F07E
0000
01C0
0140
01C0
ENDCHAR
STARTCHAR uni1E01
ENCODING 7681
SWIDTH 634 0
DWIDTH 13 0
BBX 12 15 1 -4
BITMAP
07F0
0870
3070
30E0
70E0
61E0
E1E0
E2E0
E5C0
F9C0
71F0
0000
0E00
0A00
0E00
ENDCHAR
STARTCHAR uni1E02
ENCODING 7682
SWIDTH 651 0
DWIDTH 13 0
BBX 13 18 1 0
BITMAP
0380
0380
0000
1FF0
0E38
0E38
0C38
0C38
1C70
1CE0
1F80
1CE0
1870
3870
3870
3870
38E0
FFC0
ENDCHAR
STARTCHAR uni1E03
ENCODING 7683
SWIDTH 633 0
DWIDTH 13 0
BBX 12 18 2 0
BITMAP
1C00
1C00
0000
7C00
1C00
1C00
3800
38E0
39F0
3A70
3C70
7870
7860
70E0
70C0
6080
F100
FE00
ENDCHAR
STARTCHAR uni1E04
ENCODING 7684
SWIDTH 651 0
DWIDTH 13 0
BBX 13 18 1 -3
BITMAP
1FF0
0E38
0E38
0C38
0C38
1C70
1CE0
1F80
1CE0
1870
3870
3870
3870
38E0
FFC0
0000
0700
0700
ENDCHAR
STARTCHAR uni1E05
ENCODING 7685
SWIDTH 633 0
DWIDTH 13 0
BBX 12 18 2 -3
BITMAP
7C00
1C00
1C00
3800
38E0
39F0
3A70
3C70
7870
7860
70E0
70C0
6080
F100
FE00
0000
1C00
1C00
ENDCHAR
STARTCHAR uni1E06
ENCODING 7686
SWIDTH 651 0
DWIDTH 13 0
BBX 13 17 1 -2
BITMAP
1FF0
0E38
0E38
0C38
0C38
1C70
1CE0
1F80
1CE0
1870
3870
3870
3870
38E0
FFC0
0000
1F80
ENDCHAR
STARTCHAR uni1E07
ENCODING 7687
SWIDTH 633 0
DWIDTH 13 0
BBX 12 17 2 -2
BITMAP
7C00
1C00
1C00
3800
38E0
39F0
3A70
3C70
7870
7860
70E0
70C0
6080
F100
FE00
0000
3F00
ENDCHAR
STARTCHAR uni1E08
ENCODING 7688
SWIDTH 740 0
DWIDTH 15 0
BBX 14 23 2 -4
BITMAP
00E0
0180
0300
0000
03FC
0E1C
1C0C
3808
3000
7000
7000
E000
E000
E000
E000
F000
7000
3830
1FC0
1000
0C00
0C00
3800
ENDCHAR
STARTCHAR uni1E09
ENCODING 7689
SWIDTH 524 0
DWIDTH 10 0
BBX 10 19 2 -4
BITMAP
0380
0600
0C00
0000
07C0
18C0
30C0
70C0
6000
E000
E000
E000
E000
7080
3F00
2000
1800
1800
7000
ENDCHAR
STARTCHAR uni1E0A
ENCODING 7690
SWIDTH 822 0
DWIDTH 16 0
BBX 16 18 1 0
BITMAP
01C0
01C0
0000
1FF8
0E1E
0E0E
0E07
0C07
1C07
1C07
1C07
1C07
1C0E
380E
381C
3838
3870
FFC0
ENDCHAR
STARTCHAR uni1E0B
ENCODING 7691
SWIDTH 634 0
DWIDTH 13 0
BBX 13 18 1 0
BITMAP
00E0
00E0
0000
00F8
0038
0070
0070
07F0
0870
1070
30E0
70E0
60E0
E1E0
E2E0
E5C0
F9C0
71F0
ENDCHAR
STARTCHAR uni1E0C
ENCODING 7692
SWIDTH 822 0
DWIDTH 16 0
BBX 16 18 1 -3
BITMAP
1FF8
0E1E
0E0E
0E07
0C07
1C07
1C07
1C07
1C07
1C0E
380E
381C
3838
3870
FFC0
0000
0380
0380
ENDCHAR
STARTCHAR uni1E0D
ENCODING 7693
SWIDTH 634 0
DWIDTH 13 0
BBX 13 18 1 -3
BITMAP
00F8
0038
0070
0070
07F0
0870
1070
30E0
70E0
60E0
E1E0
E2E0
E5C0
F9C0
71F0
0000
0E00
0E00
ENDCHAR
STARTCHAR uni1E0E
ENCODING 7694
SWIDTH 822 0
DWIDTH 16 0
BBX 16 17 1 -2
BITMAP
1FF8
0E1E
0E0E
0E07
0C07
1C07
1C07
1C07
1C07
1C0E
380E
381C
3838
3870
FFC0
0000
0FC0
ENDCHAR
STARTCHAR uni1E0F
ENCODING 7695
SWIDTH 634 0
DWIDTH 13 0
BBX 13 17 1 -2
BITMAP
00F8
0038
0070
0070
07F0
0870
1070
30E0
70E0
60E0
E1E0
E2E0
E5C0
F9C0
71F0
0000
1F80
ENDCHAR
STARTCHAR uni1E10
ENCODING 7696
SWIDTH 822 0
DWIDTH 16 0
BBX 16 19 1 -4
BITMAP
1FF8
0E1E
0E0E
0E07
0C07
1C07
1C07
1C07
1C07
1C0E
380E
381C
3838
3870
FFC0
0200
0180
0180
0700
ENDCHAR
STARTCHAR uni1E11
ENCODING 7697
SWIDTH 634 0
DWIDTH 13 0
BBX 13 19 1 -4
BITMAP
00F8
0038
0070
0070
07F0
0870
1070
30E0
70E0
60E0
E1E0
E2E0
E5C0
F9C0
73F0
0400
0300
0300
0E00
ENDCHAR
STARTCHAR uni1E12
ENCODING 7698
SWIDTH 822 0
DWIDTH 16 0
BBX 16 19 1 -4
BITMAP
1FF8
0E1E
0E0E
0E07
0C07
1C07
1C07
1C07
1C07
1C0E
380E
381C
3838
3870
FFC0
0000
0780
0F80
18C0
ENDCHAR
STARTCHAR uni1E13
ENCODING 7699
SWIDTH 634 0
DWIDTH 13 0
BBX 13 19 1 -4
BITMAP
00F8
0038
0070
0070
07F0
0870
1070
30E0
70E0
60E0
E1E0
E2E0
E5C0
F9C0
71F0
0000
0F00
1F00
3180
ENDCHAR
STARTCHAR uni1E14
ENCODING 7700
SWIDTH 630 0
DWIDTH 13 0
BBX 13 21 1 0
BITMAP
0700
0300
0180
0000
0FC0
0000
1FF8
0E18
0E18
0E00
1C00
1C00
1C60
1FC0
1C40
1800
3800
3800
3820
3860
FFE0
ENDCHAR
STARTCHAR uni1E15
ENCODING 7701
SWIDTH 548 0
DWIDTH 11 0
BBX 10 17 2 0
BITMAP
1C00
0C00
0600
0000
1F80
0000
0780
19C0
31C0
71C0
6380
E700
FE00
E000
E000
70C0
3F00
ENDCHAR
STARTCHAR uni1E16
ENCODING 7702
SWIDTH 630 0
DWIDTH 13 0
BBX 13 21 1 0
BITMAP
00E0
0180
0300
0000
0FC0
0000
1FF8
0E18
0E18
0E00
1C00
1C00
1C60
1FC0
1C40
1800
3800
3800
3820
3860
FFE0
ENDCHAR
STARTCHAR uni1E17
ENCODING 7703
SWIDTH 548 0
DWIDTH 11 0
BBX 10 17 2 0
BITMAP
01C0
0300
0600
0000
1F80
0000
0780
19C0
31C0
71C0
6380
E700
FE00
E000
E000
70C0
3F00
ENDCHAR
STARTCHAR uni1E18
ENCODING 7704
SWIDTH 630 0
DWIDTH 13 0
BBX 13 19 1 -4
BITMAP
1FF8
0E18
0E18
0E00
1C00
1C00
1C60
1FC0
1C40
1800
3800
3800
3820
3860
FFE0
0000
0F00
1F00
3180
ENDCHAR
STARTCHAR uni1E19
ENCODING 7705
SWIDTH 548 0
DWIDTH 11 0
BBX 10 15 2 -4
BITMAP
0780
19C0
31C0
71C0
6380
E700
FE00
E000
E000
70C0
3F00
0000
1E00
3E00
6300
ENDCHAR
STARTCHAR uni1E1A
ENCODING 7706
SWIDTH 630 0
DWIDTH 13 0
BBX 13 19 1 -4
BITMAP
1FF8
0E18
0E18
0E00
1C00
1C00
1C60
1FC0
1C40
1800
3800
3800
3820
3860
FFE0
0000
1C80
3F80
2700
ENDCHAR
STARTCHAR uni1E1B
ENCODING 7707
SWIDTH 548 0
DWIDTH 11 0
BBX 10 15 2 -4
BITMAP
0780
19C0
31C0
71C0
6380
E700
FE00
E000
E000
70C0
3F00
0000
3900
7F00
4E00
ENDCHAR
STARTCHAR uni1E1C
ENCODING 7708
SWIDTH 630 0
DWIDTH 13 0
BBX 13 23 1 -4
BITMAP
0820
0FC0
0780
0000
1FF8
0E18
0E18
0E00
1C00
1C00
1C60
1FC0
1C40
1800
3800
3800
3820
3860
FFE0
0400
0300
0300
0E00
ENDCHAR
STARTCHAR uni1E1D
ENCODING 7709
SWIDTH 548 0
DWIDTH 11 0
BBX 10 19 2 -4
BITMAP
1040
1F80
0F00
0000
0780
19C0
31C0
71C0
6380
E700
FE00
E000
E000
70C0
3F00
0800
0600
0600
1C00
ENDCHAR
STARTCHAR uni1E1E
ENCODING 7710
SWIDTH 602 0
DWIDTH 12 0
BBX 13 18 1 0
BITMAP
0380
0380
0000
1FF8
0E18
0E18
0E00
1C00
1C00
1C60
1FC0
1C40
1800
3800
3800
3800
3800
FC00
ENDCHAR
STARTCHAR uni1E1F
ENCODING 7711
SWIDTH 415 0
DWIDTH 8 0
BBX 11 23 1 -4
BITMAP
0700
0700
0000
03E0
0660
0C60
0C00
1C00
7F80
1C00
3800
3800
3800
3800
3800
7000
7000
7000
7000
7000
E000
E000
E000
ENDCHAR
STARTCHAR uni1E20
ENCODING 7712
SWIDTH 780 0
DWIDTH 16 0
BBX 14 17 2 0
BITMAP
07E0
0000
03FC
0E1C
1C0C
3808
3800
7000
7000
E000
E0FC
E070
E070
E070
7070
3860
1FC0
ENDCHAR
STARTCHAR uni1E21
ENCODING 7713
SWIDTH 628 0
DWIDTH 13 0
BBX 12 17 1 -4
BITMAP
0FC0
0000
03F0
0C70
1870
3860
30E0
70E0
71E0
72E0
77C0
7DC0
79C0
01C0
8180
E300
7C00
ENDCHAR
STARTCHAR uni1E22
ENCODING 7714
SWIDTH 827 0
DWIDTH 17 0
BBX 18 18 1 0
BITMAP
00E000
00E000
000000
1F8FC0
0E0700
0E0700
0E0700
0E0700
1C0E00
1C0E00
1FFE00
1C0E00
1C0E00
381C00
381C00
381C00
381C00
FC7E00
ENDCHAR
STARTCHAR uni1E23
ENCODING 7715
SWIDTH 656 0
DWIDTH 13 0
BBX 11 18 2 0
BITMAP
1C00
1C00
0000
7C00
1800
3800
3800
39C0
3BE0
36E0
74E0
78E0
71C0
71C0
61C0
E1C0
E1C0
E1E0
ENDCHAR
STARTCHAR uni1E24
ENCODING 7716
SWIDTH 827 0
DWIDTH 17 0
BBX 18 18 1 -3
BITMAP
1F8FC0
0E0700
0E0700
0E0700
0E0700
1C0E00
1C0E00
1FFE00
1C0E00
1C0E00
381C00
381C00
381C00
381C00
FC7E00
000000
01C000
01C000
ENDCHAR
STARTCHAR uni1E25
ENCODING 7717
SWIDTH 656 0
DWIDTH 13 0
BBX 11 18 2 -3
BITMAP
7C00
1800
3800
3800
39C0
3BE0
36E0
74E0
78E0
71C0
71C0
61C0
E1C0
E1C0
E1E0
0000
0E00
0E00
ENDCHAR
STARTCHAR uni1E26
ENCODING 7718
SWIDTH 827 0
DWIDTH 17 0
BBX 18 18 1 0
BITMAP
019800
019800
000000
1F8FC0
0E0700
0E0700
0E0700
0E0700
1C0E00
1C0E00
1FFE00
1C0E00
1C0E00
381C00
381C00
381C00
381C00
FC7E00
ENDCHAR
STARTCHAR uni1E27
ENCODING 7719
SWIDTH 656 0
DWIDTH 13 0
BBX 11 18 2 0
BITMAP
6600
6600
0000
7C00
1800
3800
3800
39C0
3BE0
36E0
74E0
78E0
71C0
71C0
61C0
E1C0
E1C0
E1E0
ENDCHAR
STARTCHAR uni1E28
ENCODING 7720
SWIDTH 827 0
DWIDTH 17 0
BBX 18 19 1 -4
BITMAP
1F8FC0
0E0700
0E0700
0E0700
0E0700
1C0E00
1C0E00
1FFE00
1C0E00
1C0E00
381C00
381C00
381C00
381C00
FCFE00
010000
00C000
00C000
038000
ENDCHAR
STARTCHAR uni1E29
ENCODING 7721
SWIDTH 656 0
DWIDTH 13 0
BBX 11 19 2 -4
BITMAP
7C00
1800
3800
3800
39C0
3BE0
36E0
74E0
78E0
71C0
71C0
61C0
E1C0
E1C0
E5E0
0800
0600
0600
1C00
ENDCHAR
STARTCHAR uni1E2A
ENCODING 7722
SWIDTH 827 0
DWIDTH 17 0
BBX 18 19 1 -4
BITMAP
1F8FC0
0E0700
0E0700
0E0700
0E0700
1C0E00
1C0E00
1FFE00
1C0E00
1C0E00
381C00
381C00
381C00
381C00
FC7E00
000000
041000
07E000
03C000
ENDCHAR
STARTCHAR uni1E2B
ENCODING 7723
SWIDTH 656 0
DWIDTH 13 0
BBX 11 19 2 -4
BITMAP
7C00
1800
3800
3800
39C0
3BE0
36E0
74E0
78E0
71C0
71C0
61C0
E1C0
E1C0
E1E0
0000
2080
3F00
1E00
ENDCHAR
STARTCHAR uni1E2C
ENCODING 7724
SWIDTH 372 0
DWIDTH 7 0
BBX 9 19 1 -4
BITMAP
1F80
0E00
0E00
0E00
0E00
1C00
1C00
1C00
1C00
1C00
3800
3800
3800
3800
FC00
0000
7200
FE00
9C00
ENDCHAR
STARTCHAR uni1E2D
ENCODING 7725
SWIDTH 319 0
DWIDTH 6 0
BBX 7 19 1 -4
BITMAP
0E
0E
0E
00
7C
1C
1C
18
38
38
38
38
30
70
7C
00
72
FE
9C
ENDCHAR
STARTCHAR uni1E2E
ENCODING 7726
SWIDTH 372 0
DWIDTH 7 0
BBX 9 22 1 0
BITMAP
0380
0600
0C00
0000
1980
1980
0000
1F80
0E00
0E00
0E00
0E00
1C00
1C00
1C00
1C00
1C00
3800
3800
3800
3800
FC00
ENDCHAR
STARTCHAR uni1E2F
ENCODING 7727
SWIDTH 319 0
DWIDTH 6 0
BBX 7 18 2 0
BITMAP
0E
18
30
00
66
66
00
F8
38
38
70
70
70
70
70
E0
E0
F8
ENDCHAR
STARTCHAR uni1E30
ENCODING 7728
SWIDTH 746 0
DWIDTH 15 0
BBX 15 19 1 0
BITMAP
00E0
0180
0300
0000
1F9E
0E08
0E10
0C20
1C40
1D80
1F00
1F80
1B80
19C0
39E0
38E0
3870
3878
FCFC
ENDCHAR
STARTCHAR uni1E31
ENCODING 7729
SWIDTH 626 0
DWIDTH 13 0
BBX 11 19 2 0
BITMAP
0700
0C00
1800
0000
7C00
1C00
1800
3800
38E0
38E0
39C0
3380
7E00
7E00
7700
7700
6380
E3C0
E1E0
ENDCHAR
STARTCHAR uni1E32
ENCODING 7730
SWIDTH 746 0
DWIDTH 15 0
BBX 15 18 1 -3
BITMAP
1F9E
0E08
0E10
0C20
1C40
1D80
1F00
1F80
1B80
19C0
39E0
38E0
3870
3878
FCFC
0000
0380
0380
ENDCHAR
STARTCHAR uni1E33
ENCODING 7731
SWIDTH 626 0
DWIDTH 13 0
BBX 11 18 2 -3
BITMAP
7C00
1C00
1800
3800
38E0
38E0
39C0
3380
7E00
7E00
7700
7700
6380
E3C0
E1E0
0000
0E00
0E00
ENDCHAR
STARTCHAR uni1E34
ENCODING 7732
SWIDTH 746 0
DWIDTH 15 0
BBX 15 17 1 -2
BITMAP
1F9E
0E08
0E10
0C20
1C40
1D80
1F00
1F80
1B80
19C0
39E0
38E0
3870
3878
FCFC
0000
0FC0
ENDCHAR
STARTCHAR uni1E35
ENCODING 7733
SWIDTH 626 0
DWIDTH 13 0
BBX 11 17 2 -2
BITMAP
7C00
1C00
1800
3800
38E0
38E0
39C0
3380
7E00
7E00
7700
7700
6380
E3C0
E1E0
0000
3F00
ENDCHAR
STARTCHAR uni1E36
ENCODING 7734
SWIDTH 611 0
DWIDTH 12 0
BBX 12 18 1 -3
BITMAP
1F80
0F00
0E00
0E00
0E00
1E00
1C00
1C00
1C00
1C00
3C00
3800
3830
3830
FFE0
0000
0E00
0E00
ENDCHAR
STARTCHAR uni1E37
ENCODING 7735
SWIDTH 319 0
DWIDTH 6 0
BBX 6 18 2 -3
BITMAP
7C
1C
18
38
38
38
38
30
70
70
70
70
60
E0
F8
00
70
70
ENDCHAR
STARTCHAR uni1E38
ENCODING 7736
SWIDTH 611 0
DWIDTH 12 0
BBX 12 20 1 -3
BITMAP
1F80
0000
1F80
0F00
0E00
0E00
0E00
1E00
1C00
1C00
1C00
1C00
3C00
3800
3830
3830
FFE0
0000
0E00
0E00
ENDCHAR
STARTCHAR uni1E39
ENCODING 7737
SWIDTH 319 0
DWIDTH 6 0
BBX 7 20 2 -3
BITMAP
7E
00
7C
1C
18
38
38
38
38
30
70
70
70
70
60
E0
F8
00
70
70
ENDCHAR
STARTCHAR uni1E3A
ENCODING 7738
SWIDTH 611 0
DWIDTH 12 0
BBX 12 17 1 -2
BITMAP
1F80
0F00
0E00
0E00
0E00
1E00
1C00
1C00
1C00
1C00
3C00
3800
3830
3830
FFE0
0000
1F80
ENDCHAR
STARTCHAR uni1E3B
ENCODING 7739
SWIDTH 319 0
DWIDTH 6 0
BBX 7 17 1 -2
BITMAP
3E
0E
0C
1C
1C
1C
1C
18
38
38
38
38
30
70
7C
00
FC
ENDCHAR
STARTCHAR uni1E3C
ENCODING 7740
SWIDTH 611 0
DWIDTH 12 0
BBX 12 19 1 -4
BITMAP
1F80
0F00
0E00
0E00
0E00
1E00
1C00
1C00
1C00
1C00
3C00
3800
3830
3830
FFE0
0000
0F00
1F00
3180
ENDCHAR
STARTCHAR uni1E3D
ENCODING 7741
SWIDTH 319 0
DWIDTH 6 0
BBX 7 19 1 -4
BITMAP
3E
0E
0C
1C
1C
1C
1C
18
38
38
38
38
30
70
7C
00
3C
7C
C6
ENDCHAR
STARTCHAR uni1E3E
ENCODING 7742
SWIDTH 926 0
DWIDTH 19 0
BBX 20 19 1 0
BITMAP
001C00
003000
006000
000000
1E01F0
0F01C0
0F03C0
0F03C0
0F05C0
1B8980
1B8B80
139380
139380
11E380
31C300
31C700
218700
200700
F81F80
ENDCHAR
STARTCHAR uni1E3F
ENCODING 7743
SWIDTH 969 0
DWIDTH 19 0
BBX 18 15 2 0
BITMAP
003800
006000
00C000
000000
F8E380
3BE7C0
3EEDC0
34F9C0
78F1C0
70E380
70E380
61C380
61C380
E1C380
E1C7C0
ENDCHAR
STARTCHAR uni1E40
ENCODING 7744
SWIDTH 926 0
DWIDTH 19 0
BBX 20 18 1 0
BITMAP
007000
007000
000000
1E01F0
0F01C0
0F03C0
0F03C0
0F05C0
1B8980
1B8B80
139380
139380
11E380
31C300
31C700
218700
200700
F81F80
ENDCHAR
STARTCHAR uni1E41
ENCODING 7745
SWIDTH 969 0
DWIDTH 19 0
BBX 18 14 2 0
BITMAP
00E000
00E000
000000
F8E380
3BE7C0
3EEDC0
34F9C0
78F1C0
70E380
70E380
61C380
61C380
E1C380
E1C7C0
ENDCHAR
STARTCHAR uni1E42
ENCODING 7746
SWIDTH 926 0
DWIDTH 19 0
BBX 20 18 1 -3
BITMAP
1E01F0
0F01C0
0F03C0
0F03C0
0F05C0
1B8980
1B8B80
139380
139380
11E380
31C300
31C700
218700
200700
F81F80
000000
00E000
00E000
ENDCHAR
STARTCHAR uni1E43
ENCODING 7747
SWIDTH 969 0
DWIDTH 19 0
BBX 18 14 2 -3
BITMAP
F8E380
3BE7C0
3EEDC0
34F9C0
78F1C0
70E380
70E380
61C380
61C380
E1C380
E1C7C0
000000
00E000
00E000
ENDCHAR
STARTCHAR uni1E44
ENCODING 7748
SWIDTH 797 0
DWIDTH 16 0
BBX 17 18 1 0
BITMAP
01C000
01C000
000000
1E0F80
0E0200
0F0200
0F0600
0B8600
1B8400
19C400
11C400
10EC00
10EC00
307800
307800
203800
203800
F81800
ENDCHAR
STARTCHAR uni1E45
ENCODING 7749
SWIDTH 656 0
DWIDTH 13 0
BBX 11 14 2 0
BITMAP
0E00
0E00
0000
F9C0
3BE0
36E0
74E0
78E0
71C0
71C0
61C0
E1C0
E1C0
E1E0
ENDCHAR
STARTCHAR uni1E46
ENCODING 7750
SWIDTH 797 0
DWIDTH 16 0
BBX 17 18 1 -3
BITMAP
1E0F80
0E0200
0F0200
0F0600
0B8600
1B8400
19C400
11C400
10EC00
10EC00
307800
307800
203800
203800
F81800
000000
038000
038000
ENDCHAR
STARTCHAR uni1E47
ENCODING 7751
SWIDTH 656 0
DWIDTH 13 0
BBX 11 14 2 -3
BITMAP
F9C0
3BE0
36E0
74E0
78E0
71C0
71C0
61C0
E1C0
E1C0
E1E0
0000
0E00
0E00
ENDCHAR
STARTCHAR uni1E48
ENCODING 7752
SWIDTH 797 0
DWIDTH 16 0
BBX 17 17 1 -2
BITMAP
1E0F80
0E0200
0F0200
0F0600
0B8600
1B8400
19C400
11C400
10EC00
10EC00
307800
307800
203800
203800
F81800
000000
07E000
ENDCHAR
STARTCHAR uni1E49
ENCODING 7753
SWIDTH 656 0
DWIDTH 13 0
BBX 11 13 2 -2
BITMAP
F9C0
3BE0
36E0
74E0
78E0
71C0
71C0
61C0
E1C0
E1C0
E1E0
0000
3F00
ENDCHAR
STARTCHAR uni1E4A
ENCODING 7754
SWIDTH 797 0
DWIDTH 16 0
BBX 17 19 1 -4
BITMAP
1E0F80
0E0200
0F0200
0F0600
0B8600
1B8400
19C400
11C400
10EC00
10EC00
307800
307800
203800
203800
F81800
000000
03C000
07C000
0C6000
ENDCHAR
STARTCHAR uni1E4B
ENCODING 7755
SWIDTH 656 0
DWIDTH 13 0
BBX 11 15 2 -4
BITMAP
F9C0
3BE0
36E0
74E0
78E0
71C0
71C0
61C0
E1C0
E1C0
E1E0
0000
0F00
1F00
3180
ENDCHAR
STARTCHAR uni1E4C
ENCODING 7756
SWIDTH 831 0
DWIDTH 17 0
BBX 15 23 2 0
BITMAP
0070
00C0
0180
0000
01C8
03F8
0270
0000
01F0
0E1C
1C0C
380E
300E
700E
700E
E00E
E00E
E01C
E01C
E038
7070
70E0
1F80
ENDCHAR
STARTCHAR uni1E4D
ENCODING 7757
SWIDTH 599 0
DWIDTH 12 0
BBX 11 19 2 0
BITMAP
01C0
0300
0600
0000
0720
0FE0
09C0
0000
0780
18C0
30E0
70E0
70E0
E0E0
E0C0
E1C0
E180
7300
3C00
ENDCHAR
STARTCHAR uni1E4E
ENCODING 7758
SWIDTH 831 0
DWIDTH 17 0
BBX 15 22 2 0
BITMAP
0330
0330
0000
01C8
03F8
0270
0000
01F0
0E1C
1C0C
380E
300E
700E
700E
E00E
E00E
E01C
E01C
E038
7070
70E0
1F80
ENDCHAR
STARTCHAR uni1E4F
ENCODING 7759
SWIDTH 599 0
DWIDTH 12 0
BBX 11 18 2 0
BITMAP
0CC0
0CC0
0000
0720
0FE0
09C0
0000
0780
18C0
30E0
70E0
70E0
E0E0
E0C0
E1C0
E180
7300
3C00
ENDCHAR
STARTCHAR uni1E50
ENCODING 7760
SWIDTH 831 0
DWIDTH 17 0
BBX 15 21 2 0
BITMAP
0380
0180
00C0
0000
07E0
0000
01F0
0E1C
1C0C
380E
300E
700E
700E
E00E
E00E
E01C
E01C
E038
7070
70E0
1F80
ENDCHAR
STARTCHAR uni1E51
ENCODING 7761
SWIDTH 599 0
DWIDTH 12 0
BBX 11 17 2 0
BITMAP
1C00
0C00
0600
0000
1F80
0000
0780
18C0
30E0
70E0
70E0
E0E0
E0C0
E1C0
E180
7300
3C00
ENDCHAR
STARTCHAR uni1E52
ENCODING 7762
SWIDTH 831 0
DWIDTH 17 0
BBX 15 21 2 0
BITMAP
0070
00C0
0180
0000
07E0
0000
01F0
0E1C
1C0C
380E
300E
700E
700E
E00E
E00E
E01C
E01C
E038
7070
70E0
1F80
ENDCHAR
STARTCHAR uni1E53
ENCODING 7763
SWIDTH 599 0
DWIDTH 12 0
BBX 11 17 2 0
BITMAP
01C0
0300
0600
0000
1F80
0000
0780
18C0
30E0
70E0
70E0
E0E0
E0C0
E1C0
E180
7300
3C00
ENDCHAR
STARTCHAR uni1E54
ENCODING 7764
SWIDTH 628 0
DWIDTH 13 0
BBX 14 19 0 0
BITMAP
0070
00C0
0180
0000
1FF0
0E1C
0E1C
0E1C
0E1C
1E18
1C38
1C70
1FC0
1C00
3C00
3800
3800
3800
FE00
ENDCHAR
STARTCHAR uni1E55
ENCODING 7765
SWIDTH 639 0
DWIDTH 13 0
BBX 12 19 1 -4
BITMAP
01C0
0300
0600
0000
7CE0
39F0
3A70
3C70
3C70
3870
30E0
70E0
70C0
7180
7E00
6000
E000
E000
E000
ENDCHAR
STARTCHAR uni1E56
ENCODING 7766
SWIDTH 628 0
DWIDTH 13 0
BBX 14 18 0 0
BITMAP
01C0
01C0
0000
1FF0
0E1C
0E1C
0E1C
0E1C
1E18
1C38
1C70
1FC0
1C00
3C00
3800
3800
3800
FE00
ENDCHAR
STARTCHAR uni1E57
ENCODING 7767
SWIDTH 639 0
DWIDTH 13 0
BBX 12 18 1 -4
BITMAP
0700
0700
0000
7CE0
39F0
3A70
3C70
3C70
3870
30E0
70E0
70C0
7180
7E00
6000
E000
E000
E000
ENDCHAR
STARTCHAR uni1E58
ENCODING 7768
SWIDTH 711 0
DWIDTH 14 0
BBX 14 18 1 0
BITMAP
01C0
01C0
0000
1FF8
0E3C
0E1C
0E1C
0E1C
1E38
1C70
1FE0
1DC0
1CE0
38E0
3870
3870
3838
FC3C
ENDCHAR
STARTCHAR uni1E59
ENCODING 7769
SWIDTH 496 0
DWIDTH 10 0
BBX 10 14 2 0
BITMAP
0E00
0E00
0000
F8C0
3B80
3B80
7400
7800
7800
7000
7000
E000
E000
E000
ENDCHAR
STARTCHAR uni1E5A
ENCODING 7770
SWIDTH 711 0
DWIDTH 14 0
BBX 14 18 1 -3
BITMAP
1FF8
0E3C
0E1C
0E1C
0E1C
1E38
1C70
1FE0
1DC0
1CE0
38E0
3870
3870
3838
FC3C
0000
0700
0700
ENDCHAR
STARTCHAR uni1E5B
ENCODING 7771
SWIDTH 496 0
DWIDTH 10 0
BBX 10 14 2 -3
BITMAP
F8C0
3B80
3B80
7400
7800
7800
7000
7000
E000
E000
E000
0000
7000
7000
ENDCHAR
STARTCHAR uni1E5C
ENCODING 7772
SWIDTH 711 0
DWIDTH 14 0
BBX 14 20 1 -3
BITMAP
07E0
0000
1FF8
0E3C
0E1C
0E1C
0E1C
1E38
1C70
1FE0
1DC0
1CE0
38E0
3870
3870
3838
FC3C
0000
0700
0700
ENDCHAR
STARTCHAR uni1E5D
ENCODING 7773
SWIDTH 496 0
DWIDTH 10 0
BBX 10 16 2 -3
BITMAP
3F00
0000
F8C0
3B80
3B80
7400
7800
7800
7000
7000
E000
E000
E000
0000
7000
7000
ENDCHAR
STARTCHAR uni1E5E
ENCODING 7774
SWIDTH 711 0
DWIDTH 14 0
BBX 14 17 1 -2
BITMAP
1FF8
0E3C
0E1C
0E1C
0E1C
1E38
1C70
1FE0
1DC0
1CE0
38E0
3870
3870
3838
FC3C
0000
0FC0
ENDCHAR
STARTCHAR uni1E5F
ENCODING 7775
SWIDTH 496 0
DWIDTH 10 0
BBX 10 13 2 -2
BITMAP
F8C0
3B80
3B80
7400
7800
7800
7000
7000
E000
E000
E000
0000
FC00
ENDCHAR
STARTCHAR uni1E60
ENCODING 7776
SWIDTH 587 0
DWIDTH 12 0
BBX 12 18 1 0
BITMAP
0700
0700
0000
07E0
1C30
1830
3820
3800
3C00
1F00
0F80
03C0
01C0
01E0
41C0
C1C0
C380
7E00
ENDCHAR
STARTCHAR uni1E61
ENCODING 7777
SWIDTH 479 0
DWIDTH 10 0
BBX 9 14 1 0
BITMAP
0E00
0E00
0000
0F80
3880
3880
3800
3C00
1E00
0F00
0700
C700
C700
7C00
ENDCHAR
STARTCHAR uni1E62
ENCODING 7778
SWIDTH 587 0
DWIDTH 12 0
BBX 12 18 1 -3
BITMAP
07E0
1C30
1830
3820
3800
3C00
1F00
0F80
03C0
01C0
01E0
41C0
C1C0
C380
7E00
0000
0E00
0E00
ENDCHAR
STARTCHAR uni1E63
ENCODING 7779
SWIDTH 479 0
DWIDTH 10 0
BBX 9 14 1 -3
BITMAP
0F80
3880
3880
3800
3C00
1E00
0F00
0700
C700
C700
7C00
0000
1C00
1C00
ENDCHAR
STARTCHAR uni1E64
ENCODING 7780
SWIDTH 587 0
DWIDTH 12 0
BBX 12 22 1 0
BITMAP
0380
0380
0000
01C0
0300
0600
0000
07E0
1C30
1830
3820
3800
3C00
1F00
0F80
03C0
01C0
01E0
41C0
C1C0
C380
7E00
ENDCHAR
STARTCHAR uni1E65
ENCODING 7781
SWIDTH 479 0
DWIDTH 10 0
BBX 9 18 1 0
BITMAP
0E00
0E00
0000
0380
0600
0C00
0000
0F80
3880
3880
3800
3C00
1E00
0F00
0700
C700
C700
7C00
ENDCHAR
STARTCHAR uni1E66
ENCODING 7782
SWIDTH 587 0
DWIDTH 12 0
BBX 12 22 1 0
BITMAP
0380
0380
0000
0630
03E0
03C0
0000
07E0
1C30
1830
3820
3800
3C00
1F00
0F80
03C0
01C0
01E0
41C0
C1C0
C380
7E00
ENDCHAR
STARTCHAR uni1E67
ENCODING 7783
SWIDTH 479 0
DWIDTH 10 0
BBX 11 18 1 0
BITMAP
0700
0700
0000
0C60
07C0
0780
0000
0F80
3880
3880
3800
3C00
1E00
0F00
0700
C700
C700
7C00
ENDCHAR
STARTCHAR uni1E68
ENCODING 7784
SWIDTH 587 0
DWIDTH 12 0
BBX 12 21 1 -3
BITMAP
0700
0700
0000
07E0
1C30
1830
3820
3800
3C00
1F00
0F80
03C0
01C0
01E0
41C0
C1C0
C380
7E00
0000
0E00
0E00
ENDCHAR
STARTCHAR uni1E69
ENCODING 7785
SWIDTH 479 0
DWIDTH 10 0
BBX 9 17 1 -3
BITMAP
1C00
1C00
0000
0F80
3880
3880
3800
3C00
1E00
0F00
0700
C700
C700
7C00
0000
1C00
1C00
ENDCHAR
STARTCHAR uni1E6A
ENCODING 7786
SWIDTH 716 0
DWIDTH 14 0
BBX 14 18 3 0
BITMAP
0700
0700
0000
FFFC
C38C
C708
0700
0700
0700
0700
0E00
0E00
0E00
0E00
0E00
1C00
1C00
7F00
ENDCHAR
STARTCHAR uni1E6B
ENCODING 7787
SWIDTH 375 0
DWIDTH 7 0
BBX 7 17 2 0
BITMAP
38
38
00
18
38
38
FE
70
70
70
70
70
E0
E0
E0
E8
78
ENDCHAR
STARTCHAR uni1E6C
ENCODING 7788
SWIDTH 716 0
DWIDTH 14 0
BBX 14 18 3 -3
BITMAP
FFFC
C38C
C708
0700
0700
0700
0700
0E00
0E00
0E00
0E00
0E00
1C00
1C00
7F00
0000
0E00
0E00
ENDCHAR
STARTCHAR uni1E6D
ENCODING 7789
SWIDTH 375 0
DWIDTH 7 0
BBX 7 17 2 -3
BITMAP
18
38
38
FE
70
70
70
70
70
E0
E0
E0
E8
78
00
70
70
ENDCHAR
STARTCHAR uni1E6E
ENCODING 7790
SWIDTH 716 0
DWIDTH 14 0
BBX 14 17 3 -2
BITMAP
FFFC
C38C
C708
0700
0700
0700
0700
0E00
0E00
0E00
0E00
0E00
1C00
1C00
7F00
0000
3F00
ENDCHAR
STARTCHAR uni1E6F
ENCODING 7791
SWIDTH 375 0
DWIDTH 7 0
BBX 7 16 2 -2
BITMAP
18
38
38
FE
70
70
70
70
70
E0
E0
E0
E8
78
00
FC
ENDCHAR
STARTCHAR uni1E70
ENCODING 7792
SWIDTH 716 0
DWIDTH 14 0
BBX 14 19 3 -4
BITMAP
FFFC
C38C
C708
0700
0700
0700
0700
0E00
0E00
0E00
0E00
0E00
1C00
1C00
7F00
0000
0F00
1F00
3180
ENDCHAR
STARTCHAR uni1E71
ENCODING 7793
SWIDTH 375 0
DWIDTH 7 0
BBX 8 18 1 -4
BITMAP
0C
1C
1C
7F
38
38
38
38
38
70
70
70
74
3C
00
3C
7C
C6
ENDCHAR
STARTCHAR uni1E72
ENCODING 7794
SWIDTH 775 0
DWIDTH 16 0
BBX 15 18 3 -3
BITMAP
FE3E
3818
7018
7018
7010
7010
7010
E010
E030
E020
E020
E020
E040
7080
3F00
0000
3300
3300
ENDCHAR
STARTCHAR uni1E73
ENCODING 7795
SWIDTH 655 0
DWIDTH 13 0
BBX 11 14 2 -3
BITMAP
F1E0
70E0
70E0
70C0
71C0
71C0
E3C0
E5C0
ED80
FB80
73E0
0000
3300
3300
ENDCHAR
STARTCHAR uni1E74
ENCODING 7796
SWIDTH 775 0
DWIDTH 16 0
BBX 15 19 3 -4
BITMAP
FE3E
3818
7018
7018
7010
7010
7010
E010
E030
E020
E020
E020
E040
7080
3F00
0000
1C80
3F80
2700
ENDCHAR
STARTCHAR uni1E75
ENCODING 7797
SWIDTH 655 0
DWIDTH 13 0
BBX 11 15 2 -4
BITMAP
F1E0
70E0
70E0
70C0
71C0
71C0
E3C0
E5C0
ED80
FB80
73E0
0000
1C80
3F80
2700
ENDCHAR
STARTCHAR uni1E76
ENCODING 7798
SWIDTH 775 0
DWIDTH 16 0
BBX 15 19 3 -4
BITMAP
FE3E
3818
7018
7018
7010
7010
7010
E010
E030
E020
E020
E020
E040
7080
3F00
0000
1E00
3E00
6300
ENDCHAR
STARTCHAR uni1E77
ENCODING 7799
SWIDTH 655 0
DWIDTH 13 0
BBX 11 15 2 -4
BITMAP
F1E0
70E0
70E0
70C0
71C0
71C0
E3C0
E5C0
ED80
FB80
73E0
0000
1E00
3E00
6300
ENDCHAR
STARTCHAR uni1E78
ENCODING 7800
SWIDTH 775 0
DWIDTH 16 0
BBX 15 23 3 0
BITMAP
00E0
0180
0300
0000
0720
0FE0
09C0
0000
FE3E
3818
7018
7018
7010
7010
7010
E010
E030
E020
E020
E020
E040
7080
3F00
ENDCHAR
STARTCHAR uni1E79
ENCODING 7801
SWIDTH 655 0
DWIDTH 13 0
BBX 11 19 2 0
BITMAP
0380
0600
0C00
0000
1C80
3F80
2700
0000
F1E0
70E0
70E0
70C0
71C0
71C0
E3C0
E5C0
ED80
FB80
73E0
ENDCHAR
STARTCHAR uni1E7A
ENCODING 7802
SWIDTH 775 0
DWIDTH 16 0
BBX 15 20 3 0
BITMAP
0CC0
0CC0
0000
0FC0
0000
FE3E
3818
7018
7018
7010
7010
7010
E010
E030
E020
E020
E020
E040
7080
3F00
ENDCHAR
STARTCHAR uni1E7B
ENCODING 7803
SWIDTH 655 0
DWIDTH 13 0
BBX 11 16 2 0
BITMAP
1980
1980
0000
1F80
0000
F1E0
70E0
70E0
70C0
71C0
71C0
E3C0
E5C0
ED80
FB80
73E0
ENDCHAR
STARTCHAR uni1E7C
ENCODING 7804
SWIDTH 741 0
DWIDTH 15 0
BBX 15 19 3 0
BITMAP
0E40
1FC0
1380
0000
FC1E
700C
7808
3810
3810
3820
3860
3C40
1C80
1C80
1D00
1F00
0E00
0C00
0C00
ENDCHAR
STARTCHAR uni1E7D
ENCODING 7805
SWIDTH 584 0
DWIDTH 12 0
BBX 12 15 1 0
BITMAP
0E40
1FC0
1380
0000
F0F0
7070
3870
3860
38C0
1C80
1D00
1E00
1E00
1C00
1800
ENDCHAR
STARTCHAR uni1E7E
ENCODING 7806
SWIDTH 741 0
DWIDTH 15 0
BBX 15 18 3 -3
BITMAP
FC1E
700C
7808
3810
3810
3820
3860
3C40
1C80
1C80
1D00
1F00
0E00
0C00
0C00
0000
0700
0700
ENDCHAR
STARTCHAR uni1E7F
ENCODING 7807
SWIDTH 584 0
DWIDTH 12 0
BBX 12 14 1 -3
BITMAP
F0F0
7070
3870
3860
38C0
1C80
1D00
1E00
1E00
1C00
1800
0000
0E00
0E00
ENDCHAR
STARTCHAR Wgrave
ENCODING 7808
SWIDTH 922 0
DWIDTH 18 0
BBX 19 19 2 0
BITMAP
038000
018000
00C000
000000
F861E0
7060C0
70E080
70E180
71E100
716300
726200
726600
367400
347C00
347800
387800
387000
307000
306000
ENDCHAR
STARTCHAR wgrave
ENCODING 7809
SWIDTH 822 0
DWIDTH 16 0
BBX 16 15 2 0
BITMAP
0700
0300
0180
0000
F087
7087
31C6
39C6
3BC4
3AE8
3EF8
1CF0
18E0
1860
1040
ENDCHAR
STARTCHAR Wacute
ENCODING 7810
SWIDTH 922 0
DWIDTH 18 0
BBX 19 19 2 0
BITMAP
007000
00C000
018000
000000
F861E0
7060C0
70E080
70E180
71E100
716300
726200
726600
367400
347C00
347800
387800
387000
307000
306000
ENDCHAR
STARTCHAR wacute
ENCODING 7811
SWIDTH 822 0
DWIDTH 16 0
BBX 16 15 2 0
BITMAP
0070
00C0
0180
0000
F087
7087
31C6
39C6
3BC4
3AE8
3EF8
1CF0
18E0
1860
1040
ENDCHAR
STARTCHAR Wdieresis
ENCODING 7812
SWIDTH 922 0
DWIDTH 18 0
BBX 19 18 2 0
BITMAP
033000
033000
000000
F861E0
7060C0
70E080
70E180
71E100
716300
726200
726600
367400
347C00
347800
387800
387000
307000
306000
ENDCHAR
STARTCHAR wdieresis
ENCODING 7813
SWIDTH 822 0
DWIDTH 16 0
BBX 16 14 2 0
BITMAP
0660
0660
0000
F087
7087
31C6
39C6
3BC4
3AE8
3EF8
1CF0
18E0
1860
1040
ENDCHAR
STARTCHAR uni1E86
ENCODING 7814
SWIDTH 922 0
DWIDTH 18 0
BBX 19 18 2 0
BITMAP
01C000
01C000
000000
F861E0
7060C0
70E080
70E180
71E100
716300
726200
726600
367400
347C00
347800
387800
387000
307000
306000
ENDCHAR
STARTCHAR uni1E87
ENCODING 7815
SWIDTH 822 0
DWIDTH 16 0
BBX 16 14 2 0
BITMAP
01C0
01C0
0000
F087
7087
31C6
39C6
3BC4
3AE8
3EF8
1CF0
18E0
1860
1040
ENDCHAR
STARTCHAR uni1E88
ENCODING 7816
SWIDTH 922 0
DWIDTH 18 0
BBX 19 18 2 -3
BITMAP
F861E0
7060C0
70E080
70E180
71E100
716300
726200
726600
367400
347C00
347800
387800
387000
307000
306000
000000
01C000
01C000
ENDCHAR
STARTCHAR uni1E89
ENCODING 7817
SWIDTH 822 0
DWIDTH 16 0
BBX 16 14 2 -3
BITMAP
F087
7087
31C6
39C6
3BC4
3AE8
3EF8
1CF0
18E0
1860
1040
0000
0380
0380
ENDCHAR
STARTCHAR uni1E8A
ENCODING 7818
SWIDTH 672 0
DWIDTH 13 0
BBX 16 18 0 0
BITMAP
01C0
01C0
0000
1F8F
0F04
070C
0718
03B0
03A0
03C0
01C0
03C0
06E0
0CE0
1870
1070
6078
F0FC
ENDCHAR
STARTCHAR uni1E8B
ENCODING 7819
SWIDTH 534 0
DWIDTH 11 0
BBX 11 14 1 0
BITMAP
0E00
0E00
0000
78E0
1C60
1CC0
0E80
0F00
0600
1F00
3700
6380
C380
E1E0
ENDCHAR
STARTCHAR uni1E8C
ENCODING 7820
SWIDTH 672 0
DWIDTH 13 0
BBX 16 18 0 0
BITMAP
0660
0660
0000
1F8F
0F04
070C
0718
03B0
03A0
03C0
01C0
03C0
06E0
0CE0
1870
1070
6078
F0FC
ENDCHAR
STARTCHAR uni1E8D
ENCODING 7821
SWIDTH 534 0
DWIDTH 11 0
BBX 11 14 1 0
BITMAP
1980
1980
0000
78E0
1C60
1CC0
0E80
0F00
0600
1F00
3700
6380
C380
E1E0
ENDCHAR
STARTCHAR uni1E8E
ENCODING 7822
SWIDTH 669 0
DWIDTH 13 0
BBX 14 18 2 0
BITMAP
0700
0700
0000
FC3C
7818
3830
3820
3C40
1C80
1D00
0F00
0E00
0E00
1E00
1C00
1C00
1C00
7F00
ENDCHAR
STARTCHAR uni1E8F
ENCODING 7823
SWIDTH 586 0
DWIDTH 12 0
BBX 14 18 0 -4
BITMAP
0380
0380
0000
3C3C
1E1C
0E1C
0E18
0E10
0720
0740
07C0
0780
0700
0600
0400
0800
3800
F000
ENDCHAR
STARTCHAR uni1E90
ENCODING 7824
SWIDTH 684 0
DWIDTH 14 0
BBX 14 19 1 0
BITMAP
01E0
03E0
0630
0000
1FFC
1838
1878
00F0
01E0
01C0
03C0
0780
0F00
0E00
1C00
3C00
7830
7030
FFE0
ENDCHAR
STARTCHAR uni1E91
ENCODING 7825
SWIDTH 567 0
DWIDTH 11 0
BBX 11 15 1 0
BITMAP
0780
0F80
18C0
0000
3FE0
31C0
23C0
0380
0700
0E00
1C00
3800
7840
70C0
FF80
ENDCHAR
STARTCHAR uni1E92
ENCODING 7826
SWIDTH 684 0
DWIDTH 14 0
BBX 14 18 1 -3
BITMAP
1FFC
1838
1878
00F0
01E0
01C0
03C0
0780
0F00
0E00
1C00
3C00
7830
7030
FFE0
0000
0E00
0E00
ENDCHAR
STARTCHAR uni1E93
ENCODING 7827
SWIDTH 567 0
DWIDTH 11 0
BBX 11 14 1 -3
BITMAP
3FE0
31C0
23C0
0380
0700
0E00
1C00
3800
7840
70C0
FF80
0000
1C00
1C00
ENDCHAR
STARTCHAR uni1E94
ENCODING 7828
SWIDTH 684 0
DWIDTH 14 0
BBX 14 17 1 -2
BITMAP
1FFC
1838
1878
00F0
01E0
01C0
03C0
0780
0F00
0E00
1C00
3C00
7830
7030
FFE0
0000
1F80
ENDCHAR
STARTCHAR uni1E95
ENCODING 7829
SWIDTH 567 0
DWIDTH 11 0
BBX 11 13 1 -2
BITMAP
3FE0
31C0
23C0
0380
0700
0E00
1C00
3800
7840
70C0
FF80
0000
3F00
ENDCHAR
STARTCHAR uni1E96
ENCODING 7830
SWIDTH 656 0
DWIDTH 13 0
BBX 11 17 2 -2
BITMAP
7C00
1800
3800
3800
39C0
3BE0
36E0
74E0
78E0
71C0
71C0
61C0
E1C0
E1C0
E1E0
0000
3F00
ENDCHAR
STARTCHAR uni1E97
ENCODING 7831
SWIDTH 375 0
DWIDTH 7 0
BBX 7 17 2 0
BITMAP
66
66
00
18
38
38
FE
70
70
70
70
70
E0
E0
E0
E8
78
ENDCHAR
STARTCHAR uni1E98
ENCODING 7832
SWIDTH 822 0
DWIDTH 16 0
BBX 16 15 2 0
BITMAP
01C0
0140
01C0
0000
F087
7087
31C6
39C6
3BC4
3AE8
3EF8
1CF0
18E0
1860
1040
ENDCHAR
STARTCHAR uni1E99
ENCODING 7833
SWIDTH 586 0
DWIDTH 12 0
BBX 14 19 0 -4
BITMAP
0380
0280
0380
0000
3C3C
1E1C
0E1C
0E18
0E10
0720
0740
07C0
0780
0700
0600
0400
0800
3800
F000
ENDCHAR
STARTCHAR uni1EA0
ENCODING 7840
SWIDTH 765 0
DWIDTH 15 0
BBX 15 18 0 -3
BITMAP
0060
00E0
00F0
01F0
0170
0270
0270
0438
0C38
0FF8
1838
1018
201C
601C
F07E
0000
01C0
01C0
ENDCHAR
STARTCHAR uni1EA1
ENCODING 7841
SWIDTH 634 0
DWIDTH 13 0
BBX 12 14 1 -3
BITMAP
07F0
0870
3070
30E0
70E0
61E0
E1E0
E2E0
E5C0
F9C0
71F0
0000
0E00
0E00
ENDCHAR
STARTCHAR uni1EA4
ENCODING 7844
SWIDTH 765 0
DWIDTH 15 0
BBX 15 23 0 0
BITMAP
0038
0060
00C0
0000
0078
00F8
018C
0000
0060
00E0
00F0
01F0
0170
0270
0270
0438
0C38
0FF8
1838
1018
201C
601C
F07E
ENDCHAR
STARTCHAR uni1EA5
ENCODING 7845
SWIDTH 634 0
DWIDTH 13 0
BBX 12 19 1 0
BITMAP
00E0
0180
0300
0000
03C0
07C0
0C60
0000
07F0
0870
3070
30E0
70E0
61E0
E1E0
E2E0
E5C0
F9C0
71F0
ENDCHAR
STARTCHAR uni1EA6
ENCODING 7846
SWIDTH 765 0
DWIDTH 15 0
BBX 15 23 0 0
BITMAP
01C0
00C0
0060
0000
0078
00F8
018C
0000
0060
00E0
00F0
01F0
0170
0270
0270
0438
0C38
0FF8
1838
1018
201C
601C
F07E
ENDCHAR
STARTCHAR uni1EA7
ENCODING 7847
SWIDTH 634 0
DWIDTH 13 0
BBX 12 19 1 0
BITMAP
0E00
0600
0300
0000
03C0
07C0
0C60
0000
07F0
0870
3070
30E0
70E0
61E0
E1E0
E2E0
E5C0
F9C0
71F0
ENDCHAR
STARTCHAR uni1EAA
ENCODING 7850
SWIDTH 765 0
DWIDTH 15 0
BBX 15 23 0 0
BITMAP
01C8
03F8
0270
0000
0078
00F8
018C
0000
0060
00E0
00F0
01F0
0170
0270
0270
0438
0C38
0FF8
1838
1018
201C
601C
F07E
ENDCHAR
STARTCHAR uni1EAB
ENCODING 7851
SWIDTH 634 0
DWIDTH 13 0
BBX 12 19 1 0
BITMAP
0720
0FE0
09C0
0000
03C0
07C0
0C60
0000
07F0
0870
3070
30E0
70E0
61E0
E1E0
E2E0
E5C0
F9C0
71F0
ENDCHAR
STARTCHAR uni1EAC
ENCODING 7852
SWIDTH 765 0
DWIDTH 15 0
BBX 15 22 0 -3
BITMAP
01E0
03E0
0630
0000
0060
00E0
00F0
01F0
0170
0270
0270
0438
0C38
0FF8
1838
1018
201C
601C
F07E
0000
01C0
01C0
ENDCHAR
STARTCHAR uni1EAD
ENCODING 7853
SWIDTH 634 0
DWIDTH 13 0
BBX 12 18 1 -3
BITMAP
03C0
07C0
0C60
0000
07F0
0870
3070
30E0
70E0
61E0
E1E0
E2E0
E5C0
F9C0
71F0
0000
0E00
0E00
ENDCHAR
STARTCHAR uni1EAE
ENCODING 7854
SWIDTH 765 0
DWIDTH 15 0
BBX 15 23 0 0
BITMAP
0070
00C0
0180
0000
0208
03F0
01E0
0000
0060
00E0
00F0
01F0
0170
0270
0270
0438
0C38
0FF8
1838
1018
201C
601C
F07E
ENDCHAR
STARTCHAR uni1EAF
ENCODING 7855
SWIDTH 634 0
DWIDTH 13 0
BBX 12 19 1 0
BITMAP
01C0
0300
0600
0000
0820
0FC0
0780
0000
07F0
0870
3070
30E0
70E0
61E0
E1E0
E2E0
E5C0
F9C0
71F0
ENDCHAR
STARTCHAR uni1EB0
ENCODING 7856
SWIDTH 765 0
DWIDTH 15 0
BBX 15 23 0 0
BITMAP
0380
0180
00C0
0000
0208
03F0
01E0
0000
0060
00E0
00F0
01F0
0170
0270
0270
0438
0C38
0FF8
1838
1018
201C
601C
F07E
ENDCHAR
STARTCHAR uni1EB1
ENCODING 7857
SWIDTH 634 0
DWIDTH 13 0
BBX 12 19 1 0
BITMAP
0E00
0600
0300
0000
0820
0FC0
0780
0000
07F0
0870
3070
30E0
70E0
61E0
E1E0
E2E0
E5C0
F9C0
71F0
ENDCHAR
STARTCHAR uni1EB4
ENCODING 7860
SWIDTH 765 0
DWIDTH 15 0
BBX 15 23 0 0
BITMAP
0390
07F0
04E0
0000
0208
03F0
01E0
0000
0060
00E0
00F0
01F0
0170
0270
0270
0438
0C38
0FF8
1838
1018
201C
601C
F07E
ENDCHAR
STARTCHAR uni1EB5
ENCODING 7861
SWIDTH 634 0
DWIDTH 13 0
BBX 12 19 1 0
BITMAP
0E40
1FC0
1380
0000
0820
0FC0
0780
0000
07F0
0870
3070
30E0
70E0
61E0
E1E0
E2E0
E5C0
F9C0
71F0
ENDCHAR
STARTCHAR uni1EB6
ENCODING 7862
SWIDTH 765 0
DWIDTH 15 0
BBX 15 22 0 -3
BITMAP
0208
03F0
01E0
0000
0060
00E0
00F0
01F0
0170
0270
0270
0438
0C38
0FF8
1838
1018
201C
601C
F07E
0000
01C0
01C0
ENDCHAR
STARTCHAR uni1EB7
ENCODING 7863
SWIDTH 634 0
DWIDTH 13 0
BBX 12 18 1 -3
BITMAP
0820
0FC0
0780
0000
07F0
0870
3070
30E0
70E0
61E0
E1E0
E2E0
E5C0
F9C0
71F0
0000
0E00
0E00
ENDCHAR
STARTCHAR uni1EB8
ENCODING 7864
SWIDTH 630 0
DWIDTH 13 0
BBX 13 18 1 -3
BITMAP
1FF8
0E18
0E18
0E00
1C00
1C00
1C60
1FC0
1C40
1800
3800
3800
3820
3860
FFE0
0000
0E00
0E00
ENDCHAR
STARTCHAR uni1EB9
ENCODING 7865
SWIDTH 548 0
DWIDTH 11 0
BBX 10 14 2 -3
BITMAP
0780
19C0
31C0
71C0
6380
E700
FE00
E000
E000
70C0
3F00
0000
1C00
1C00
ENDCHAR
STARTCHAR uni1EBC
ENCODING 7868
SWIDTH 630 0
DWIDTH 13 0
BBX 13 19 1 0
BITMAP
0720
0FE0
09C0
0000
1FF8
0E18
0E18
0E00
1C00
1C00
1C60
1FC0
1C40
1800
3800
3800
3820
3860
FFE0
ENDCHAR
STARTCHAR uni1EBD
ENCODING 7869
SWIDTH 548 0
DWIDTH 11 0
BBX 10 15 2 0
BITMAP
0E40
1FC0
1380
0000
0780
19C0
31C0
71C0
6380
E700
FE00
E000
E000
70C0
3F00
ENDCHAR
STARTCHAR uni1EBE
ENCODING 7870
SWIDTH 630 0
DWIDTH 13 0
BBX 13 23 1 0
BITMAP
00E0
0180
0300
0000
01E0
03E0
0630
0000
1FF8
0E18
0E18
0E00
1C00
1C00
1C60
1FC0
1C40
1800
3800
3800
3820
3860
FFE0
ENDCHAR
STARTCHAR uni1EBF
ENCODING 7871
SWIDTH 548 0
DWIDTH 11 0
BBX 10 19 2 0
BITMAP
01C0
0300
0600
0000
0780
0F80
18C0
0000
0780
19C0
31C0
71C0
6380
E700
FE00
E000
E000
70C0
3F00
ENDCHAR
STARTCHAR uni1EC0
ENCODING 7872
SWIDTH 630 0
DWIDTH 13 0
BBX 13 23 1 0
BITMAP
0700
0300
0180
0000
01E0
03E0
0630
0000
1FF8
0E18
0E18
0E00
1C00
1C00
1C60
1FC0
1C40
1800
3800
3800
3820
3860
FFE0
ENDCHAR
STARTCHAR uni1EC1
ENCODING 7873
SWIDTH 548 0
DWIDTH 11 0
BBX 10 19 2 0
BITMAP
1C00
0C00
0600
0000
0780
0F80
18C0
0000
0780
19C0
31C0
71C0
6380
E700
FE00
E000
E000
70C0
3F00
ENDCHAR
STARTCHAR uni1EC4
ENCODING 7876
SWIDTH 630 0
DWIDTH 13 0
BBX 13 23 1 0
BITMAP
0720
0FE0
09C0
0000
01E0
03E0
0630
0000
1FF8
0E18
0E18
0E00
1C00
1C00
1C60
1FC0
1C40
1800
3800
3800
3820
3860
FFE0
ENDCHAR
STARTCHAR uni1EC5
ENCODING 7877
SWIDTH 548 0
DWIDTH 11 0
BBX 10 19 2 0
BITMAP
0E40
1FC0
1380
0000
0780
0F80
18C0
0000
0780
19C0
31C0
71C0
6380
E700
FE00
E000
E000
70C0
3F00
ENDCHAR
STARTCHAR uni1EC6
ENCODING 7878
SWIDTH 630 0
DWIDTH 13 0
BBX 13 22 1 -3
BITMAP
03C0
07C0
0C60
0000
1FF8
0E18
0E18
0E00
1C00
1C00
1C60
1FC0
1C40
1800
3800
3800
3820
3860
FFE0
0000
0E00
0E00
ENDCHAR
STARTCHAR uni1EC7
ENCODING 7879
SWIDTH 548 0
DWIDTH 11 0
BBX 10 18 2 -3
BITMAP
0F00
1F00
3180
0000
0780
19C0
31C0
71C0
6380
E700
FE00
E000
E000
70C0
3F00
0000
1C00
1C00
ENDCHAR
STARTCHAR uni1ECA
ENCODING 7882
SWIDTH 372 0
DWIDTH 7 0
BBX 9 18 1 -3
BITMAP
1F80
0E00
0E00
0E00
0E00
1C00
1C00
1C00
1C00
1C00
3800
3800
3800
3800
FC00
0000
3800
3800
ENDCHAR
STARTCHAR uni1ECB
ENCODING 7883
SWIDTH 319 0
DWIDTH 6 0
BBX 6 18 2 -3
BITMAP
1C
1C
1C
00
F8
38
38
30
70
70
70
70
60
E0
F8
00
70
70
ENDCHAR
STARTCHAR uni1ECC
ENCODING 7884
SWIDTH 831 0
DWIDTH 17 0
BBX 15 18 2 -3
BITMAP
01F0
0E1C
1C0C
380E
300E
700E
700E
E00E
E00E
E01C
E01C
E038
7070
70E0
1F80
0000
0700
0700
ENDCHAR
STARTCHAR uni1ECD
ENCODING 7885
SWIDTH 599 0
DWIDTH 12 0
BBX 11 14 2 -3
BITMAP
0780
18C0
30E0
70E0
70E0
E0E0
E0C0
E1C0
E180
7300
3C00
0000
1C00
1C00
ENDCHAR
STARTCHAR uni1ED0
ENCODING 7888
SWIDTH 831 0
DWIDTH 17 0
BBX 15 23 2 0
BITMAP
0070
00C0
0180
0000
00F0
01F0
0318
0000
01F0
0E1C
1C0C
380E
300E
700E
700E
E00E
E00E
E01C
E01C
E038
7070
70E0
1F80
ENDCHAR
STARTCHAR uni1ED1
ENCODING 7889
SWIDTH 599 0
DWIDTH 12 0
BBX 11 19 2 0
BITMAP
01C0
0300
0600
0000
03C0
07C0
0C60
0000
0780
18C0
30E0
70E0
70E0
E0E0
E0C0
E1C0
E180
7300
3C00
ENDCHAR
STARTCHAR uni1ED2
ENCODING 7890
SWIDTH 831 0
DWIDTH 17 0
BBX 15 23 2 0
BITMAP
0380
0180
00C0
0000
00F0
01F0
0318
0000
01F0
0E1C
1C0C
380E
300E
700E
700E
E00E
E00E
E01C
E01C
E038
7070
70E0
1F80
ENDCHAR
STARTCHAR uni1ED3
ENCODING 7891
SWIDTH 599 0
DWIDTH 12 0
BBX 11 19 2 0
BITMAP
0E00
0600
0300
0000
03C0
07C0
0C60
0000
0780
18C0
30E0
70E0
70E0
E0E0
E0C0
E1C0
E180
7300
3C00
ENDCHAR
STARTCHAR uni1ED6
ENCODING 7894
SWIDTH 831 0
DWIDTH 17 0
BBX 15 23 2 0
BITMAP
0390
07F0
04E0
0000
00F0
01F0
0318
0000
01F0
0E1C
1C0C
380E
300E
700E
700E
E00E
E00E
E01C
E01C
E038
7070
70E0
1F80
ENDCHAR
STARTCHAR uni1ED7
ENCODING 7895
SWIDTH 599 0
DWIDTH 12 0
BBX 11 19 2 0
BITMAP
0E40
1FC0
1380
0000
03C0
07C0
0C60
0000
0780
18C0
30E0
70E0
70E0
E0E0
E0C0
E1C0
E180
7300
3C00
ENDCHAR
STARTCHAR uni1ED8
ENCODING 7896
SWIDTH 831 0
DWIDTH 17 0
BBX 15 22 2 -3
BITMAP
01E0
03E0
0630
0000
01F0
0E1C
1C0C
380E
300E
700E
700E
E00E
E00E
E01C
E01C
E038
7070
70E0
1F80
0000
0700
0700
ENDCHAR
STARTCHAR uni1ED9
ENCODING 7897
SWIDTH 599 0
DWIDTH 12 0
BBX 11 18 2 -3
BITMAP
0780
0F80
18C0
0000
0780
18C0
30E0
70E0
70E0
E0E0
E0C0
E1C0
E180
7300
3C00
0000
1C00
1C00
ENDCHAR
STARTCHAR uni1EDA
ENCODING 7898
SWIDTH 831 0
DWIDTH 17 0
BBX 18 19 2 0
BITMAP
001C00
003000
006000
000000
01F1C0
0E1DC0
1C0DC0
380E80
300F80
700F00
700E00
E00E00
E00E00
E01C00
E01C00
E03800
707000
70E000
1F8000
ENDCHAR
STARTCHAR uni1EDB
ENCODING 7899
SWIDTH 599 0
DWIDTH 12 0
BBX 14 15 2 0
BITMAP
0070
00C0
0180
0000
079C
18DC
30FC
70E8
70F8
E0F0
E0C0
E1C0
E180
7300
3C00
ENDCHAR
STARTCHAR uni1EDC
ENCODING 7900
SWIDTH 831 0
DWIDTH 17 0
BBX 18 19 2 0
BITMAP
00E000
006000
003000
000000
01F1C0
0E1DC0
1C0DC0
380E80
300F80
700F00
700E00
E00E00
E00E00
E01C00
E01C00
E03800
707000
70E000
1F8000
ENDCHAR
STARTCHAR uni1EDD
ENCODING 7901
SWIDTH 599 0
DWIDTH 12 0
BBX 14 15 2 0
BITMAP
0380
0180
00C0
0000
079C
18DC
30FC
70E8
70F8
E0F0
E0C0
E1C0
E180
7300
3C00
ENDCHAR
STARTCHAR uni1EE0
ENCODING 7904
SWIDTH 831 0
DWIDTH 17 0
BBX 18 19 2 0
BITMAP
00E400
01FC00
013800
000000
01F1C0
0E1DC0
1C0DC0
380E80
300F80
700F00
700E00
E00E00
E00E00
E01C00
E01C00
E03800
707000
70E000
1F8000
ENDCHAR
STARTCHAR uni1EE1
ENCODING 7905
SWIDTH 599 0
DWIDTH 12 0
BBX 14 15 2 0
BITMAP
0390
07F0
04E0
0000
079C
18DC
30FC
70E8
70F8
E0F0
E0C0
E1C0
E180
7300
3C00
ENDCHAR
STARTCHAR uni1EE2
ENCODING 7906
SWIDTH 831 0
DWIDTH 17 0
BBX 18 18 2 -3
BITMAP
01F1C0
0E1DC0
1C0DC0
380E80
300F80
700F00
700E00
E00E00
E00E00
E01C00
E01C00
E03800
707000
70E000
1F8000
000000
038000
038000
ENDCHAR
STARTCHAR uni1EE3
ENCODING 7907
SWIDTH 599 0
DWIDTH 12 0
BBX 14 14 2 -3
BITMAP
079C
18DC
30FC
70E8
70F8
E0F0
E0C0
E1C0
E180
7300
3C00
0000
0E00
0E00
ENDCHAR
STARTCHAR uni1EE4
ENCODING 7908
SWIDTH 775 0
DWIDTH 16 0
BBX 15 18 3 -3
BITMAP
FE3E
3818
7018
7018
7010
7010
7010
E010
E030
E020
E020
E020
E040
7080
3F00
0000
0E00
0E00
ENDCHAR
STARTCHAR uni1EE5
ENCODING 7909
SWIDTH 655 0
DWIDTH 13 0
BBX 11 14 2 -3
BITMAP
F1E0
70E0
70E0
70C0
71C0
71C0
E3C0
E5C0
ED80
FB80
73E0
0000
0E00
0E00
ENDCHAR
STARTCHAR uni1EE8
ENCODING 7912
SWIDTH 775 0
DWIDTH 16 0
BBX 18 19 3 0
BITMAP
003800
006000
00C000
000000
FE3FC0
3819C0
7019C0
701880
701180
701300
701000
E01000
E03000
E02000
E02000
E02000
E04000
708000
3F0000
ENDCHAR
STARTCHAR uni1EE9
ENCODING 7913
SWIDTH 655 0
DWIDTH 13 0
BBX 14 15 2 0
BITMAP
00E0
0180
0300
0000
F1FC
70FC
70FC
70C8
71D8
71F0
E3C0
E5C0
ED80
FB80
73E0
ENDCHAR
STARTCHAR uni1EEA
ENCODING 7914
SWIDTH 775 0
DWIDTH 16 0
BBX 18 19 3 0
BITMAP
01C000
00C000
006000
000000
FE3FC0
3819C0
7019C0
701880
701180
701300
701000
E01000
E03000
E02000
E02000
E02000
E04000
708000
3F0000
ENDCHAR
STARTCHAR uni1EEB
ENCODING 7915
SWIDTH 655 0
DWIDTH 13 0
BBX 14 15 2 0
BITMAP
0700
0300
0180
0000
F1FC
70FC
70FC
70C8
71D8
71F0
E3C0
E5C0
ED80
FB80
73E0
ENDCHAR
STARTCHAR uni1EEE
ENCODING 7918
SWIDTH 775 0
DWIDTH 16 0
BBX 18 19 3 0
BITMAP
01C800
03F800
027000
000000
FE3FC0
3819C0
7019C0
701880
701180
701300
701000
E01000
E03000
E02000
E02000
E02000
E04000
708000
3F0000
ENDCHAR
STARTCHAR uni1EEF
ENCODING 7919
SWIDTH 655 0
DWIDTH 13 0
BBX 14 15 2 0
BITMAP
0720
0FE0
09C0
0000
F1FC
70FC
70FC
70C8
71D8
71F0
E3C0
E5C0
ED80
FB80
73E0
ENDCHAR
STARTCHAR uni1EF0
ENCODING 7920
SWIDTH 775 0
DWIDTH 16 0
BBX 18 18 3 -3
BITMAP
FE3FC0
3819C0
7019C0
701880
701180
701300
701000
E01000
E03000
E02000
E02000
E02000
E04000
708000
3F0000
000000
0E0000
0E0000
ENDCHAR
STARTCHAR uni1EF1
ENCODING 7921
SWIDTH 655 0
DWIDTH 13 0
BBX 14 14 2 -3
BITMAP
F1FC
70FC
70FC
70C8
71D8
71F0
E3C0
E5C0
ED80
FB80
73E0
0000
0E00
0E00
ENDCHAR
STARTCHAR Ygrave
ENCODING 7922
SWIDTH 669 0
DWIDTH 13 0
BBX 14 19 2 0
BITMAP
0E00
0600
0300
0000
FC3C
7818
3830
3820
3C40
1C80
1D00
0F00
0E00
0E00
1E00
1C00
1C00
1C00
7F00
ENDCHAR
STARTCHAR ygrave
ENCODING 7923
SWIDTH 586 0
DWIDTH 12 0
BBX 14 19 0 -4
BITMAP
0700
0300
0180
0000
3C3C
1E1C
0E1C
0E18
0E10
0720
0740
07C0
0780
0700
0600
0400
0800
3800
F000
ENDCHAR
STARTCHAR uni1EF4
ENCODING 7924
SWIDTH 669 0
DWIDTH 13 0
BBX 14 18 2 -3
BITMAP
FC3C
7818
3830
3820
3C40
1C80
1D00
0F00
0E00
0E00
1E00
1C00
1C00
1C00
7F00
0000
0E00
0E00
ENDCHAR
STARTCHAR uni1EF5
ENCODING 7925
SWIDTH 586 0
DWIDTH 12 0
BBX 14 18 0 -7
BITMAP
3C3C
1E1C
0E1C
0E18
0E10
0720
0740
07C0
0780
0700
0600
0400
0800
3800
F000
0000
1C00
1C00
ENDCHAR
STARTCHAR uni1EF8
ENCODING 7928
SWIDTH 669 0
DWIDTH 13 0
BBX 14 19 2 0
BITMAP
0E40
1FC0
1380
0000
FC3C
7818
3830
3820
3C40
1C80
1D00
0F00
0E00
0E00
1E00
1C00
1C00
1C00
7F00
ENDCHAR
STARTCHAR uni1EF9
ENCODING 7929
SWIDTH 586 0
DWIDTH 12 0
BBX 14 19 0 -4
BITMAP
0720
0FE0
09C0
0000
3C3C
1E1C
0E1C
0E18
0E10
0720
0740
07C0
0780
0700
0600
0400
0800
3800
F000
ENDCHAR
STARTCHAR uni2000
ENCODING 8192
SWIDTH 500 0
DWIDTH 10 0
BBX 1 1 0 0
BITMAP
00
ENDCHAR
STARTCHAR uni2001
ENCODING 8193
SWIDTH 1000 0
DWIDTH 19 0
BBX 1 1 0 0
BITMAP
00
ENDCHAR
STARTCHAR uni2002
ENCODING 8194
SWIDTH 500 0
DWIDTH 10 0
BBX 1 1 0 0
BITMAP
00
ENDCHAR
STARTCHAR uni2003
ENCODING 8195
SWIDTH 1000 0
DWIDTH 19 0
BBX 1 1 0 0
BITMAP
00
ENDCHAR
STARTCHAR uni2004
ENCODING 8196
SWIDTH 333 0
DWIDTH 6 0
BBX 1 1 0 0
BITMAP
00
ENDCHAR
STARTCHAR uni2005
ENCODING 8197
SWIDTH 250 0
DWIDTH 5 0
BBX 1 1 0 0
BITMAP
00
ENDCHAR
STARTCHAR uni2006
ENCODING 8198
SWIDTH 167 0
DWIDTH 3 0
BBX 1 1 0 0
BITMAP
00
ENDCHAR
STARTCHAR uni2007
ENCODING 8199
SWIDTH 623 0
DWIDTH 13 0
BBX 1 1 0 0
BITMAP
00
ENDCHAR
STARTCHAR uni2008
ENCODING 8200
SWIDTH 265 0
DWIDTH 5 0
BBX 1 1 0 0
BITMAP
00
ENDCHAR
STARTCHAR uni2009
ENCODING 8201
SWIDTH 200 0
DWIDTH 4 0
BBX 1 1 0 0
BITMAP
00
ENDCHAR
STARTCHAR uni200A
ENCODING 8202
SWIDTH 100 0
DWIDTH 2 0
BBX 1 1 0 0
BITMAP
00
ENDCHAR
STARTCHAR uni200B
ENCODING 8203
SWIDTH 0 0
DWIDTH 0 0
BBX 1 1 0 0
BITMAP
00
ENDCHAR
STARTCHAR uni2010
ENCODING 8208
SWIDTH 289 0
DWIDTH 6 0
BBX 5 1 2 7
BITMAP
F8
ENDCHAR
STARTCHAR uni2011
ENCODING 8209
SWIDTH 289 0
DWIDTH 6 0
BBX 5 1 2 7
BITMAP
F8
ENDCHAR
STARTCHAR figuredash
ENCODING 8210
SWIDTH 500 0
DWIDTH 10 0
BBX 9 1 2 7
BITMAP
FF80
ENDCHAR
STARTCHAR endash
ENCODING 8211
SWIDTH 500 0
DWIDTH 10 0
BBX 9 1 2 7
BITMAP
FF80
ENDCHAR
STARTCHAR emdash
ENCODING 8212
SWIDTH 1000 0
DWIDTH 20 0
BBX 19 1 2 6
BITMAP
FFFFE0
ENDCHAR
STARTCHAR afii00208
ENCODING 8213
SWIDTH 1000 0
DWIDTH 20 0
BBX 19 1 2 6
BITMAP
FFFFE0
ENDCHAR
STARTCHAR quoteleft
ENCODING 8216
SWIDTH 265 0
DWIDTH 5 0
BBX 4 6 3 9
BITMAP
30
60
40
E0
E0
E0
ENDCHAR
STARTCHAR quoteright
ENCODING 8217
SWIDTH 265 0
DWIDTH 5 0
BBX 4 6 3 9
BITMAP
70
70
70
20
60
C0
ENDCHAR
STARTCHAR quotesinglbase
ENCODING 8218
SWIDTH 265 0
DWIDTH 5 0
BBX 4 8 1 -4
BITMAP
70
70
70
70
20
60
60
C0
ENDCHAR
STARTCHAR quotereversed
ENCODING 8219
SWIDTH 265 0
DWIDTH 5 0
BBX 4 6 3 9
BITMAP
E0
E0
E0
40
60
30
ENDCHAR
STARTCHAR quotedblleft
ENCODING 8220
SWIDTH 464 0
DWIDTH 9 0
BBX 9 6 2 9
BITMAP
3180
6300
6600
F700
E700
E700
ENDCHAR
STARTCHAR quotedblright
ENCODING 8221
SWIDTH 464 0
DWIDTH 9 0
BBX 9 6 2 9
BITMAP
7380
7380
7780
3300
6300
C600
ENDCHAR
STARTCHAR quotedblbase
ENCODING 8222
SWIDTH 464 0
DWIDTH 9 0
BBX 9 8 0 -4
BITMAP
7380
7380
7380
7780
3300
2300
6300
C600
ENDCHAR
STARTCHAR uni201F
ENCODING 8223
SWIDTH 464 0
DWIDTH 9 0
BBX 9 6 2 9
BITMAP
E700
E700
F700
6600
6300
3180
ENDCHAR
STARTCHAR dagger
ENCODING 8224
SWIDTH 636 0
DWIDTH 13 0
BBX 10 19 3 -4
BITMAP
0700
0600
0E00
0E00
0E00
0C00
FFC0
CCC0
1C00
1C00
1C00
1800
1800
3800
3800
3800
3800
3000
7000
ENDCHAR
STARTCHAR daggerdbl
ENCODING 8225
SWIDTH 636 0
DWIDTH 13 0
BBX 11 19 2 -4
BITMAP
0380
0300
0300
0700
0700
0700
7FE0
6660
0600
0E00
0E00
0C00
FFC0
CCC0
1C00
1C00
1C00
1C00
3800
ENDCHAR
STARTCHAR bullet
ENCODING 8226
SWIDTH 636 0
DWIDTH 13 0
BBX 7 7 4 3
BITMAP
38
7C
FE
FE
FE
7C
38
ENDCHAR
STARTCHAR ellipsis
ENCODING 8230
SWIDTH 1000 0
DWIDTH 20 0
BBX 16 2 2 0
BITMAP
E183
C187
ENDCHAR
STARTCHAR perthousand
ENCODING 8240
SWIDTH 1156 0
DWIDTH 23 0
BBX 23 15 1 0
BITMAP
3C0600
760C00
671800
E73000
C66000
6EC000
798000
01BC3C
036466
06C6E6
0CC6C6
18CEC6
30CCCE
60CCCC
C07078
ENDCHAR
STARTCHAR guilsinglleft
ENCODING 8249
SWIDTH 310 0
DWIDTH 6 0
BBX 6 10 1 1
BITMAP
04
0C
18
30
60
E0
60
30
30
10
ENDCHAR
STARTCHAR guilsinglright
ENCODING 8250
SWIDTH 310 0
DWIDTH 6 0
BBX 6 10 1 1
BITMAP
20
30
30
18
1C
18
30
60
C0
80
ENDCHAR
STARTCHAR fraction
ENCODING 8260
SWIDTH 55 0
DWIDTH 1 0
BBX 16 15 -5 0
BITMAP
0003
0004
0008
0018
0030
0060
00C0
0180
0300
0600
0C00
1800
3000
2000
C000
ENDCHAR
STARTCHAR oneinferior
ENCODING 8321
SWIDTH 381 0
DWIDTH 8 0
BBX 5 9 -12 -5
BITMAP
38
18
18
10
30
30
30
30
F8
ENDCHAR
STARTCHAR twoinferior
ENCODING 8322
SWIDTH 381 0
DWIDTH 8 0
BBX 7 9 -12 -5
BITMAP
3C
26
66
06
0C
30
60
C0
FC
ENDCHAR
STARTCHAR threeinferior
ENCODING 8323
SWIDTH 381 0
DWIDTH 8 0
BBX 7 9 -12 -5
BITMAP
3C
26
04
0C
38
0C
0C
8C
F8
ENDCHAR
STARTCHAR uni20A5
ENCODING 8357
SWIDTH 969 0
DWIDTH 19 0
BBX 18 19 2 -4
BITMAP
000300
000200
000400
000C00
F8EB80
3BF7C0
3EFDC0
34F9C0
78F1C0
70E380
70E380
61C380
63C380
E3C380
E5C7C0
040000
080000
180000
300000
ENDCHAR
STARTCHAR uni20A6
ENCODING 8358
SWIDTH 797 0
DWIDTH 16 0
BBX 17 15 1 0
BITMAP
1E0F80
0E0200
0F0200
0F0600
1FFE00
1B8400
19C400
11C400
10EC00
3FFC00
307800
307800
203800
203800
F81800
ENDCHAR
STARTCHAR uni20A9
ENCODING 8361
SWIDTH 922 0
DWIDTH 18 0
BBX 19 15 2 0
BITMAP
F861E0
7060C0
70E080
70E180
7FFF00
716300
726200
726600
367400
3FFE00
347800
387800
387000
307000
306000
ENDCHAR
STARTCHAR Euro
ENCODING 8364
SWIDTH 740 0
DWIDTH 15 0
BBX 17 15 -1 0
BITMAP
007F80
01C380
038180
070100
7FF800
0E0000
0E0000
1C0000
1C0000
FFF000
1C0000
1E0000
0E0000
070600
03F800
ENDCHAR
STARTCHAR uni20AD
ENCODING 8365
SWIDTH 746 0
DWIDTH 15 0
BBX 15 15 1 0
BITMAP
1F9E
0E08
0E10
0C20
1C40
1D80
1F00
FFFE
1B80
19C0
39E0
38E0
3870
3878
FCFC
ENDCHAR
STARTCHAR uni2103
ENCODING 8451
SWIDTH 986 0
DWIDTH 20 0
BBX 17 15 4 0
BITMAP
607F80
A1C380
A38180
670100
060000
0E0000
0E0000
1C0000
1C0000
1C0000
1C0000
1E0000
0E0000
070600
03F800
ENDCHAR
STARTCHAR uni2109
ENCODING 8457
SWIDTH 848 0
DWIDTH 17 0
BBX 15 15 4 0
BITMAP
67FE
A386
A386
6380
0700
0700
0718
07F0
0710
0600
0E00
0E00
0E00
0E00
3F00
ENDCHAR
STARTCHAR trademark
ENCODING 8482
SWIDTH 1044 0
DWIDTH 21 0
BBX 20 8 3 7
BITMAP
FFF8F0
993CE0
183DC0
183FC0
183EC0
382CC0
302DC0
7CE1E0
ENDCHAR
STARTCHAR uni212A
ENCODING 8490
SWIDTH 746 0
DWIDTH 15 0
BBX 15 15 1 0
BITMAP
1F9E
0E08
0E10
0C20
1C40
1D80
1F00
1F80
1B80
19C0
39E0
38E0
3870
3878
FCFC
ENDCHAR
STARTCHAR uni212B
ENCODING 8491
SWIDTH 765 0
DWIDTH 15 0
BBX 15 19 0 0
BITMAP
0070
0050
0070
0000
0060
00E0
00F0
01F0
0170
0270
0270
0438
0C38
0FF8
1838
1018
201C
601C
F07E
ENDCHAR
STARTCHAR uni2132
ENCODING 8498
SWIDTH 602 0
DWIDTH 12 0
BBX 13 15 1 0
BITMAP
01F8
00E0
00E0
00E0
00E0
00C0
11C0
1FC0
31C0
01C0
01C0
0380
C380
C380
FFC0
ENDCHAR
STARTCHAR minus
ENCODING 8722
SWIDTH 636 0
DWIDTH 12 0
BBX 12 1 1 6
BITMAP
FFF0
ENDCHAR
STARTCHAR fraction
ENCODING 8725
SWIDTH 55 0
DWIDTH 1 0
BBX 16 15 -5 0
BITMAP
0003
0004
0008
0018
0030
0060
00C0
0180
0300
0600
0C00
1800
3000
2000
C000
ENDCHAR
STARTCHAR periodcentered
ENCODING 8729
SWIDTH 636 0
DWIDTH 12 0
BBX 3 2 6 6
BITMAP
E0
E0
ENDCHAR
STARTCHAR uni2236
ENCODING 8758
SWIDTH 265 0
DWIDTH 5 0
BBX 5 11 1 0
BITMAP
38
38
38
00
00
00
00
00
E0
E0
E0
ENDCHAR
STARTCHAR uni2259
ENCODING 8793
SWIDTH 636 0
DWIDTH 12 0
BBX 13 10 1 3
BITMAP
0780
0F80
18C0
0000
7FF8
0000
0000
0000
0000
FFF0
ENDCHAR
STARTCHAR uni225A
ENCODING 8794
SWIDTH 636 0
DWIDTH 12 0
BBX 13 10 1 3
BITMAP
18C0
0F80
0F00
0000
7FF8
0000
0000
0000
0000
FFF0
ENDCHAR
STARTCHAR notequal
ENCODING 8800
SWIDTH 636 0
DWIDTH 12 0
BBX 14 19 1 -3
BITMAP
000C
0008
0010
0030
0020
0040
00C0
7FF8
0100
0300
0200
0400
FFF0
0800
1000
1000
2000
6000
C000
ENDCHAR
STARTCHAR equivalence
ENCODING 8801
SWIDTH 636 0
DWIDTH 12 0
BBX 13 5 0 4
BITMAP
FFF8
0000
FFF8
0000
FFF8
ENDCHAR
STARTCHAR uni2262
ENCODING 8802
SWIDTH 636 0
DWIDTH 12 0
BBX 14 19 0 -3
BITMAP
000C
0008
0010
0030
0020
0040
00C0
FFF8
0100
FFF8
0200
FFF8
0C00
0800
1000
1000
2000
6000
C000
ENDCHAR
STARTCHAR lessequal
ENCODING 8804
SWIDTH 636 0
DWIDTH 12 0
BBX 13 15 1 -2
BITMAP
0008
0038
00E0
0380
0E00
3800
E000
3800
1C00
0700
01C0
00E0
0020
0000
FFF8
ENDCHAR
STARTCHAR greaterequal
ENCODING 8805
SWIDTH 636 0
DWIDTH 12 0
BBX 13 15 0 -2
BITMAP
2000
3800
1C00
0700
01C0
00E0
0038
00E0
0380
0E00
3800
E000
8000
0000
FFF8
ENDCHAR
STARTCHAR uni226E
ENCODING 8814
SWIDTH 636 0
DWIDTH 12 0
BBX 14 19 1 -3
BITMAP
000C
0008
0010
0038
0038
00E0
03C0
0E80
3900
E300
3A00
1C00
0F00
09C0
10E0
1020
2000
6000
C000
ENDCHAR
STARTCHAR uni226F
ENCODING 8815
SWIDTH 636 0
DWIDTH 12 0
BBX 14 19 0 -3
BITMAP
000C
0008
0010
2030
3820
1C40
07C0
01C0
01E0
0338
02E0
0780
0E00
3800
F000
9000
2000
6000
C000
ENDCHAR
STARTCHAR uni2270
ENCODING 8816
SWIDTH 636 0
DWIDTH 12 0
BBX 14 19 1 -4
BITMAP
000C
0008
0018
0038
00E0
03C0
0EC0
3880
E100
3B00
1E00
0700
0DC0
08E0
1020
1000
FFF8
6000
C000
ENDCHAR
STARTCHAR uni2271
ENCODING 8817
SWIDTH 636 0
DWIDTH 12 0
BBX 14 19 0 -4
BITMAP
000C
0008
2010
3830
1C20
0740
01C0
00E0
0138
03E0
0380
0E00
3C00
E800
9000
1000
FFF8
6000
C000
ENDCHAR
STARTCHAR fi
ENCODING -1
SWIDTH 662 0
DWIDTH 13 0
BBX 13 20 1 -4
BITMAP
03C0
06B8
0CB8
1CB8
1C00
7FF0
1870
3870
3870
3860
38E0
30E0
70E0
70E0
70C0
71F0
6000
E000
E000
E000
ENDCHAR
STARTCHAR fl
ENCODING -1
SWIDTH 668 0
DWIDTH 13 0
BBX 13 20 1 -4
BITMAP
03F8
0638
0C38
1C30
1C70
7F70
1870
3870
3860
38E0
38E0
30E0
70E0
70C0
70C0
71F0
6000
E000
E000
E000
ENDCHAR
ENDFONT
